
<svg width="38px" height="38px" viewBox="0 0 38 38" version="1.1" xmlns="http://www.w3.org/2000/svg" xmlns:xlink="http://www.w3.org/1999/xlink">
    <g id="Page-1" stroke="none" stroke-width="1" fill="none" fill-rule="evenodd">
        <g id="noun_Broccoli_1875118-Copy-2" fill="#F5A623" fill-rule="nonzero">
            <path d="M7.91666667,26.9166667 C9.01866667,26.9166667 10.0953333,26.6862917 11.0833333,26.2548333 L11.0833333,33.25 C11.0833333,35.869625 13.2137083,38 15.8333333,38 L22.1666667,38 C24.7862917,38 26.9166667,35.869625 26.9166667,33.25 L26.9166667,26.2548333 C27.9046667,26.6862917 28.9813333,26.9166667 30.0833333,26.9166667 C34.4485833,26.9166667 38,23.36525 38,19 C38,15.78425 36.073875,12.939 33.1937917,11.715875 C32.7591667,8.10904167 29.8909583,5.24083333 26.284125,4.807 C25.061,1.926125 22.2165417,0 19,0 C15.7834583,0 12.939,1.926125 11.715875,4.807 C8.10904167,5.24083333 5.24083333,8.10904167 4.80620833,11.715875 C1.926125,12.939 0,15.78425 0,19 C0,23.36525 3.55141667,26.9166667 7.91666667,26.9166667 Z M6.73154167,14.3988333 C7.50341667,14.2025 8.01325,13.4575417 7.91666667,12.6666667 C7.91666667,10.0470417 10.0470417,7.91666667 12.673,7.91270833 C13.4583333,8.006125 14.2032917,7.50341667 14.399625,6.73154167 C14.9324167,4.63283333 16.8245,3.16666667 19,3.16666667 C21.1755,3.16666667 23.0675833,4.63283333 23.6011667,6.73154167 C23.7975,7.50341667 24.5448333,8.01483333 25.3333333,7.91666667 C27.9529583,7.91666667 30.0833333,10.0470417 30.0872917,12.673 C29.9907083,13.463875 30.497375,14.2032917 31.2684583,14.399625 C33.3671667,14.9324167 34.8333333,16.8245 34.8333333,19 C34.8333333,21.619625 32.7029583,23.75 30.0833333,23.75 C28.9908333,23.75 27.9434583,23.367625 27.1074583,22.6923333 C27.5436667,21.4541667 28.7145417,20.5833333 30.0833333,20.5833333 C30.9573333,20.5833333 31.6666667,19.874 31.6666667,19 C31.6666667,18.126 30.9573333,17.4166667 30.0833333,17.4166667 C26.8675833,17.4166667 24.1767083,19.8106667 23.7990833,22.9931667 C23.7982917,22.997125 23.7967083,23.0002917 23.7959167,23.0034583 C23.795125,23.0082083 23.7959167,23.0129583 23.795125,23.0177083 C23.7943333,23.0272083 23.7919583,23.0367083 23.790375,23.0462083 C23.7887917,23.063625 23.7911667,23.08025 23.7895833,23.0976667 C23.7658333,23.3122083 23.75,23.5259583 23.75,23.75 L23.75,33.25 C23.75,34.1232083 23.039875,34.8333333 22.1666667,34.8333333 L15.8333333,34.8333333 C14.960125,34.8333333 14.25,34.1232083 14.25,33.25 L14.25,23.75 C14.25,23.5259583 14.2341667,23.3122083 14.209625,23.0976667 C14.2080417,23.08025 14.2112083,23.063625 14.2088333,23.0462083 C14.2080417,23.0367083 14.2056667,23.0272083 14.2040833,23.0177083 C14.2032917,23.0129583 14.2040833,23.0082083 14.2032917,23.0034583 C14.2025,22.9995 14.2009167,22.9963333 14.200125,22.9931667 C13.8232917,19.8106667 11.1324167,17.4166667 7.91666667,17.4166667 C7.04266667,17.4166667 6.33333333,18.126 6.33333333,19 C6.33333333,19.874 7.04266667,20.5833333 7.91666667,20.5833333 C9.28545833,20.5833333 10.4563333,21.4541667 10.8925417,22.6923333 C10.0565417,23.367625 9.00916667,23.75 7.91666667,23.75 C5.29704167,23.75 3.16666667,21.619625 3.16666667,19 C3.16666667,16.8245 4.63283333,14.9324167 6.73154167,14.3988333 Z" id="Shape"></path>
            <path d="M14.625,17.25 C16.417375,17.25 17.875,18.707625 17.875,20.5 L17.875,25.375 C17.875,26.272 18.603,27 19.5,27 C20.397,27 21.125,26.272 21.125,25.375 L21.125,20.5 C21.125,18.707625 22.582625,17.25 24.375,17.25 C25.272,17.25 26,16.522 26,15.625 C26,14.728 25.272,14 24.375,14 C22.433125,14 20.6919375,14.8604375 19.5,16.214875 C18.3080625,14.8604375 16.566875,14 14.625,14 C13.728,14 13,14.728 13,15.625 C13,16.522 13.728,17.25 14.625,17.25 Z" id="Shape"></path>
        </g>
    </g>
</svg>