
<svg width="100px" height="100px" viewBox="0 0 100 100" version="1.1" xmlns="http://www.w3.org/2000/svg" xmlns:xlink="http://www.w3.org/1999/xlink">
    <g id="Page-1" stroke="none" stroke-width="1" fill="none" fill-rule="evenodd">
        <g id="noun_Menu-Notification_1163987" fill="#F5A623" fill-rule="nonzero">
            <path d="M50,60 L10,60 C4.4771525,60 0,55.5228475 0,50 C0,44.4771525 4.4771525,40 10,40 L50,40 C55.5228475,40 60,44.4771525 60,50 C60,55.5228475 55.5228475,60 50,60 Z M100,50 C100,41.7157288 93.2842712,35 85,35 C76.7157288,35 70,41.7157288 70,50 C70,58.2842712 76.7157288,65 85,65 C93.2842712,65 100,58.2842712 100,50 Z M100,10 C100,4.4771525 95.5228475,0 90,0 L10,0 C4.4771525,0 0,4.4771525 0,10 C0,15.5228475 4.4771525,20 10,20 L90,20 C95.5228475,20 100,15.5228475 100,10 Z M100,90 C100,84.4771525 95.5228475,80 90,80 L10,80 C4.4771525,80 0,84.4771525 0,90 C0,95.5228475 4.4771525,100 10,100 L90,100 C95.5228475,100 100,95.5228475 100,90 Z" id="Shape"></path>
        </g>
    </g>
</svg>