
<svg width="86px" height="86px" viewBox="0 0 86 86" version="1.1" xmlns="http://www.w3.org/2000/svg" xmlns:xlink="http://www.w3.org/1999/xlink">
    <g id="Page-1" stroke="none" stroke-width="1" fill="none" fill-rule="evenodd">
        <g id="noun_Trash_2255061" fill="#FFA83B" fill-rule="nonzero">
            <path d="M46.3,13.7 C46.2,13.5 46,13.4 45.8,13.4 L37.5,13.4 C37.3,13.4 37.1,13.5 37,13.7 L35.5,16.6 L47.8,16.6 L46.3,13.7 Z" id="Shape"></path>
            <path d="M61,20.5 C61,19.7 60.3,19 59.5,19 L50.3,19 C50.2,19.1 50,19.1 49.8,19.1 C49.8,19.1 49.8,19.1 49.8,19.1 L33.5,19.1 C33.3,19.1 33.2,19.1 33,19 L23.8,19 C23,19 22.3,19.7 22.3,20.5 C22.3,21.3 23,22 23.8,22 L59.4,22 C60.3,22.1 61,21.4 61,20.5 Z" id="Shape"></path>
            <path d="M54.7,52.1 C55,52.1 55.2,52.1 55.5,52.1 L55.6,24.4 L27.8,24.4 L27.9,59.3 C27.9,63.5 31.3,66.9 35.5,66.9 L43.7,66.9 C43.4,65.8 43.2,64.7 43.2,63.5 C43.2,57.3 48.4,52.1 54.7,52.1 Z" id="Shape"></path>
            <path d="M54.7,54.5 C49.7,54.5 45.7,58.6 45.7,63.5 C45.7,68.4 49.8,72.5 54.7,72.5 C59.6,72.5 63.7,68.4 63.7,63.5 C63.7,58.6 59.7,54.5 54.7,54.5 Z M60.6,67.1 L58.9,68.8 L54.7,64.6 L50.5,68.8 L48.8,67.1 L53,62.9 L48.8,58.7 L50.5,57 L54.7,61.2 L58.9,57 L60.6,58.7 L56.4,62.9 L60.6,67.1 Z" id="Shape"></path>
            <path d="M43,0.8 C19.7,0.8 0.8,19.7 0.8,43 C0.8,66.3 19.7,85.2 43,85.2 C66.3,85.2 85.2,66.3 85.2,43 C85.2,19.7 66.3,0.8 43,0.8 Z M54.7,75 C50.5,75 46.8,72.7 44.8,69.3 L35.5,69.3 C30,69.3 25.5,64.8 25.5,59.3 L25.4,24.4 L23.9,24.4 C21.7,24.4 19.9,22.6 19.9,20.4 C19.9,18.2 21.7,16.4 23.9,16.4 L32.9,16.4 L35,12.4 C35.5,11.4 36.5,10.8 37.6,10.8 L45.9,10.8 C47,10.8 48,11.4 48.5,12.4 L50.6,16.4 L59.6,16.4 C61.8,16.4 63.6,18.2 63.6,20.4 C63.6,22.6 61.8,24.4 59.6,24.4 L58.1,24.4 L58,52.5 C62.8,53.9 66.3,58.3 66.3,63.5 C66.1,69.9 61,75 54.7,75 Z" id="Shape"></path>
        </g>
    </g>
</svg>