
<svg width="26px" height="26px" viewBox="0 0 26 26" version="1.1" xmlns="http://www.w3.org/2000/svg" xmlns:xlink="http://www.w3.org/1999/xlink">
    <g id="Page-1" stroke="none" stroke-width="1" fill="none" fill-rule="evenodd">
        <g id="add" fill="#F5A623" fill-rule="nonzero">
            <path d="M26,13 C26,11.8954305 25.1045695,11 24,11 L17,11 C15.8954305,11 15,10.1045695 15,9 L15,2 C15,0.8954305 14.1045695,0 13,0 C11.8954305,0 11,0.8954305 11,2 L11,9 C11,10.1045695 10.1045695,11 9,11 L2,11 C0.8954305,11 0,11.8954305 0,13 C0,14.1045695 0.8954305,15 2,15 L9,15 C10.1045695,15 11,15.8954305 11,17 L11,24 C11,25.1045695 11.8954305,26 13,26 C14.1045695,26 15,25.1045695 15,24 L15,17 C15,15.8954305 15.8954305,15 17,15 L24,15 C25.1045695,15 26,14.1045695 26,13 Z" id="Shape"></path>
        </g>
    </g>
</svg>