<svg width="42px" height="35px" viewBox="0 0 42 35" version="1.1" xmlns="http://www.w3.org/2000/svg" xmlns:xlink="http://www.w3.org/1999/xlink">
    <!-- Generator: Sketch 50.2 (55047) - http://www.bohemiancoding.com/sketch -->
    <g id="Page-1" stroke="none" stroke-width="1" fill="none" fill-rule="evenodd">
        <g id="noun_cart_1281527-copy-2" fill="#F5A623">
            <path d="M14.3883125,35 C12.4312269,35 10.8446712,33.4373172 10.8446712,31.5096799 C10.8446712,29.5820426 12.4312269,28.0196125 14.3883125,28.0196125 C16.3451415,28.0196125 17.9319537,29.5820426 17.9319537,31.5096799 C17.9319537,33.4373172 16.3451415,35 14.3883125,35 Z M22.192791,23.8026689 L15.4013679,8.44071113 C15.3836625,8.40077843 15.3682666,8.360593 15.3549234,8.31990208 L12.8397336,8.316111 C12.1086811,8.316111 11.5161925,7.73228483 11.5161925,7.01248529 C11.5161925,6.29268574 12.1089377,5.70885957 12.8397336,5.70885957 L40.6474382,5.74929775 C40.8945437,5.7437375 41.1457547,5.80616393 41.3715624,5.94365373 C41.99356,6.32200342 42.186523,7.12545944 41.8023933,7.73809782 L30.5356156,25.6994721 C30.3169927,26.1271059 29.8674301,26.4205354 29.348329,26.4205354 L11.9737097,26.4205354 L11.9737097,26.4192717 C11.44922,26.4190189 10.9524431,26.1106778 10.743571,25.6026733 L4.83459411,2.61761371 L1.32867302,2.61761371 C0.594798001,2.61761371 0,2.03151289 0,1.30868049 C0,0.585848082 0.594798001,0 1.32867302,0 L5.72602131,0 C6.30644973,0 6.80014747,0.366723713 6.98105023,0.877761169 L12.8648803,23.8026689 L22.192791,23.8026689 Z M18.2401299,8.32419864 L25.0831295,23.8026689 L27.9803962,23.8026689 L20.9818972,8.44020566 C20.9652182,8.40330582 20.9503355,8.36564777 20.9372489,8.32798972 L18.2401299,8.32419864 Z M23.8360552,8.33203353 L29.9285008,21.7056967 L31.4935021,19.2114195 C31.4709213,19.1745196 31.4498802,19.1358506 31.4308918,19.0959179 L26.2601521,8.33582461 L23.8360552,8.33203353 Z M29.1956522,8.33986843 L33.1501095,16.5695428 L34.43747,14.5173054 L31.4711779,8.34315403 L29.1956522,8.33986843 Z M34.4069346,8.34745059 L36.0989527,11.8688575 L38.3044268,8.35301084 L34.4069346,8.34745059 Z M26.5452344,35 C24.5881488,35 23.0015931,33.4373172 23.0015931,31.5096799 C23.0015931,29.5820426 24.5881488,28.0196125 26.5452344,28.0196125 C28.5023199,28.0196125 30.0888756,29.5820426 30.0888756,31.5096799 C30.0888756,33.4373172 28.5023199,35 26.5452344,35 Z" id="Shape"></path>
        </g>
    </g>
</svg>