
<svg width="38px" height="60px" viewBox="0 0 38 60" version="1.1" xmlns="http://www.w3.org/2000/svg" xmlns:xlink="http://www.w3.org/1999/xlink">
    <g id="Page-1" stroke="none" stroke-width="1" fill="none" fill-rule="evenodd">
        <g id="noun_down_2399998">
            <path d="M16.298,38.814 L19,41.516 L21.701,38.814 L19,36.112 L16.298,38.814 Z M19,36.112 L21.701,38.814 L33.293,27.223 L37.114,23.401 L37.114,10.828 L18.999,0.371 L0.886,10.828 L0.886,17.998 L4.706,21.819 L4.706,13.035 L18.999,4.783 L33.293,13.035 L33.293,21.819 L19,36.112 Z M16.298,38.814 L19,36.112 L4.706,21.819 L0.886,17.998 L0.886,23.402 L4.707,27.223 L16.298,38.814 Z" id="Shape" fill="#000000"></path>
            <path d="M21.702,38.814 L19,41.516 L16.299,38.814 L19,36.112 L21.702,38.814 Z M19,36.112 L16.299,38.814 L4.707,27.223 L0.886,23.401 L0.886,10.828 L19.001,0.371 L37.114,10.828 L37.114,17.998 L33.294,21.819 L33.294,13.035 L19.001,4.783 L4.707,13.035 L4.707,21.819 L19,36.112 Z M21.702,38.814 L19,36.112 L33.294,21.819 L37.114,17.998 L37.114,23.402 L33.293,27.223 L21.702,38.814 Z" id="Shape" fill="#4D433D"></path>
            <polygon id="Shape" fill="#000000" points="37.114 32.459 31.71 32.459 19 45.169 6.29 32.459 0.886 32.459 4.707 36.28 16.298 47.871 19 50.572"></polygon>
            <polygon id="Shape" fill="#4D433D" points="0.886 32.459 6.29 32.459 19 45.169 31.71 32.459 37.114 32.459 33.293 36.28 21.702 47.871 19 50.572"></polygon>
            <polygon id="Shape" fill="#000000" points="37.114 41.516 31.71 41.516 19 54.226 6.29 41.516 0.886 41.516 4.707 45.336 16.298 56.928 19 59.629 37.114 41.516"></polygon>
            <polygon id="Shape" fill="#4D433D" points="0.886 41.516 6.29 41.516 19 54.226 31.71 41.516 37.114 41.516 33.293 45.336 21.702 56.928 19 59.629 0.886 41.516"></polygon>
        </g>
    </g>
</svg>