
<svg width="22px" height="19px" viewBox="0 0 22 19" version="1.1" xmlns="http://www.w3.org/2000/svg" xmlns:xlink="http://www.w3.org/1999/xlink">
    <g id="Page-1" stroke="none" stroke-width="1" fill="none" fill-rule="evenodd">
        <g id="noun_down_452913" transform="translate(-336.000000, -252.000000)">
            <g id="Group-Copy-4" transform="translate(331.000000, 243.000000)">
                <g id="Group" transform="translate(8.000000, 10.000000)" stroke="#644B4B" stroke-width="2">
                    <polygon id="Shape" fill="#644B4B" fill-rule="nonzero" points="8 7.807 5.83 3.862 10.171 3.862"></polygon>
                    <path d="M8,7.807 L8,14.649" id="Shape"></path>
                    <path d="M10.17,3.862 L15.654,0.737" id="Shape"></path>
                    <path d="M5.829,3.862 L0.346,0.737" id="Shape"></path>
                </g>
                <g id="Group">
                    <polygon id="Shape" stroke="#644B4B" stroke-width="2" points="16 25.591 24.555 10.319 7.446 10.319"></polygon>
                    <path d="M16,2 C23.72,2 30,8.28 30,16 C30,23.72 23.72,30 16,30 C8.28,30 2,23.72 2,16 C2,8.28 8.28,2 16,2 Z M0,16 C0,24.837 7.163,32 16,32 C24.837,32 32,24.837 32,16 C32,7.163 24.837,0 16,0 C7.163,0 0,7.163 0,16 Z" id="Shape" fill-opacity="0" fill="#FFFFFF" fill-rule="nonzero"></path>
                </g>
            </g>
        </g>
    </g>
</svg>