
<svg width="864px" height="384px" viewBox="0 0 864 384" version="1.1" xmlns="http://www.w3.org/2000/svg" xmlns:xlink="http://www.w3.org/1999/xlink">
    <defs>
        <polyline id="path-1" points="17.8336678 169.447348 143.74233 19.8809682 812.266589 19.8809682"></polyline>
        <filter x="-4.6%" y="-23.1%" width="109.2%" height="148.8%" filterUnits="objectBoundingBox" id="filter-2">
            <feMorphology radius="10" operator="dilate" in="SourceAlpha" result="shadowSpreadOuter1"></feMorphology>
            <feOffset dx="0" dy="2" in="shadowSpreadOuter1" result="shadowOffsetOuter1"></feOffset>
            <feMorphology radius="10" operator="erode" in="SourceAlpha" result="shadowInner"></feMorphology>
            <feOffset dx="0" dy="2" in="shadowInner" result="shadowInner"></feOffset>
            <feComposite in="shadowOffsetOuter1" in2="shadowInner" operator="out" result="shadowOffsetOuter1"></feComposite>
            <feGaussianBlur stdDeviation="6.5" in="shadowOffsetOuter1" result="shadowBlurOuter1"></feGaussianBlur>
            <feColorMatrix values="0 0 0 0 0   0 0 0 0 0   0 0 0 0 0  0 0 0 0.5 0" type="matrix" in="shadowBlurOuter1"></feColorMatrix>
        </filter>
        <circle id="path-3" cx="13" cy="13" r="13"></circle>
        <filter x="-140.4%" y="-132.7%" width="380.8%" height="380.8%" filterUnits="objectBoundingBox" id="filter-4">
            <feMorphology radius="10" operator="dilate" in="SourceAlpha" result="shadowSpreadOuter1"></feMorphology>
            <feOffset dx="0" dy="2" in="shadowSpreadOuter1" result="shadowOffsetOuter1"></feOffset>
            <feGaussianBlur stdDeviation="6.5" in="shadowOffsetOuter1" result="shadowBlurOuter1"></feGaussianBlur>
            <feComposite in="shadowBlurOuter1" in2="SourceAlpha" operator="out" result="shadowBlurOuter1"></feComposite>
            <feColorMatrix values="0 0 0 0 0   0 0 0 0 0   0 0 0 0 0  0 0 0 0.5 0" type="matrix" in="shadowBlurOuter1"></feColorMatrix>
        </filter>
        <path d="M57,310.348351 L57,235 L136.914918,235 L136.914918,244.703954 L74.1246252,244.703954 L74.1246252,310.348351 L57,310.348351 Z M152.897901,336.035289 L152.897901,255.54955 L196.280285,255.54955 C207.696702,255.54955 219.113118,255.54955 219.113118,268.67843 L219.113118,297.219472 C219.113118,310.348351 207.696702,310.348351 196.280285,310.348351 L168.880885,310.348351 L168.880885,336.035289 L152.897901,336.035289 Z M168.880885,301.786038 L197.421927,301.786038 C200.276031,301.786038 203.130135,301.786038 203.130135,298.361113 L203.130135,267.536788 C203.130135,264.111863 200.276031,264.111863 197.421927,264.111863 L168.880885,264.111863 L168.880885,301.786038 Z M238.521027,297.219472 L238.521027,268.67843 C238.521027,255.54955 249.937444,255.54955 261.353861,255.54955 L281.903411,255.54955 C293.319828,255.54955 304.736244,255.54955 304.736244,268.67843 L304.736244,284.661413 L254.50401,284.661413 L254.50401,298.361113 C254.50401,301.786038 257.358115,301.786038 260.212219,301.786038 L302.452961,301.786038 L302.452961,310.348351 L261.353861,310.348351 C249.937444,310.348351 238.521027,310.348351 238.521027,297.219472 Z M254.50401,276.0991 L288.753261,276.0991 L288.753261,267.536788 C288.753261,264.111863 285.899157,264.111863 283.045052,264.111863 L260.212219,264.111863 C257.358115,264.111863 254.50401,264.111863 254.50401,267.536788 L254.50401,276.0991 Z M324.144153,274.957459 L324.144153,255.54955 L340.127136,255.54955 L340.127136,276.0991 C340.127136,279.524025 342.981241,279.524025 345.835345,279.524025 L374.376387,279.524025 L374.376387,255.54955 L390.35937,255.54955 L390.35937,310.348351 L374.376387,310.348351 L374.376387,288.086338 L346.976987,288.086338 C335.56057,288.086338 324.144153,288.086338 324.144153,274.957459 Z M409.767279,310.348351 L409.767279,255.54955 L425.750262,255.54955 L425.750262,276.0991 L459.999513,276.0991 L459.999513,255.54955 L475.982496,255.54955 L475.982496,310.348351 L459.999513,310.348351 L459.999513,284.661413 L425.750262,284.661413 L425.750262,310.348351 L409.767279,310.348351 Z M495.390405,297.219472 L495.390405,268.67843 C495.390405,255.54955 506.806822,255.54955 518.223238,255.54955 L538.772789,255.54955 C550.189205,255.54955 561.605622,255.54955 561.605622,268.67843 L561.605622,284.661413 L511.373388,284.661413 L511.373388,298.361113 C511.373388,301.786038 514.227493,301.786038 517.081597,301.786038 L559.322339,301.786038 L559.322339,310.348351 L518.223238,310.348351 C506.806822,310.348351 495.390405,310.348351 495.390405,297.219472 Z M511.373388,276.0991 L545.622639,276.0991 L545.622639,267.536788 C545.622639,264.111863 542.768534,264.111863 539.91443,264.111863 L517.081597,264.111863 C514.227493,264.111863 511.373388,264.111863 511.373388,267.536788 L511.373388,276.0991 Z M581.013531,310.348351 L581.013531,255.54955 L623.254273,255.54955 C634.67069,255.54955 646.087106,255.54955 646.087106,266.965967 L646.087106,269.820071 C646.087106,276.0991 643.233002,278.953205 638.666436,280.094846 C643.233002,281.236488 647.228748,284.090592 647.228748,290.369621 L647.228748,298.931934 C647.228748,310.348351 635.812331,310.348351 624.395915,310.348351 L581.013531,310.348351 Z M596.996514,301.786038 L625.537556,301.786038 C628.39166,301.786038 631.245765,301.786038 631.245765,298.931934 L631.245765,287.515517 C631.245765,284.661413 628.39166,284.661413 625.537556,284.661413 L596.996514,284.661413 L596.996514,301.786038 Z M596.996514,276.0991 L624.395915,276.0991 C627.250019,276.0991 630.104123,276.0991 630.104123,273.244996 L630.104123,266.965967 C630.104123,264.111863 627.250019,264.111863 624.395915,264.111863 L596.996514,264.111863 L596.996514,276.0991 Z M666.636657,297.219472 L666.636657,289.22798 C666.636657,276.0991 678.053073,276.0991 689.46949,276.0991 L716.868891,276.0991 L716.868891,267.536788 C716.868891,264.111863 714.014786,264.111863 711.160682,264.111863 L671.203223,264.111863 L671.203223,255.54955 L710.01904,255.54955 C721.435457,255.54955 732.851874,255.54955 732.851874,268.67843 L732.851874,310.348351 L689.46949,310.348351 C678.053073,310.348351 666.636657,310.348351 666.636657,297.219472 Z M682.61964,298.361113 C682.61964,301.786038 685.473744,301.786038 688.327849,301.786038 L716.868891,301.786038 L716.868891,284.661413 L688.327849,284.661413 C685.473744,284.661413 682.61964,284.661413 682.61964,288.086338 L682.61964,298.361113 Z M749.976499,310.348351 L772.238512,288.086338 C761.963737,288.086338 752.259783,286.944696 752.259783,274.957459 L752.259783,268.67843 C752.259783,255.54955 763.676199,255.54955 775.092616,255.54955 L818.475,255.54955 L818.475,310.348351 L802.492016,310.348351 L802.492016,288.086338 L790.504779,288.086338 L768.242766,310.348351 L749.976499,310.348351 Z M768.242766,276.0991 C768.242766,279.524025 771.09687,279.524025 773.950975,279.524025 L802.492016,279.524025 L802.492016,264.111863 L773.950975,264.111863 C771.09687,264.111863 768.242766,264.111863 768.242766,267.536788 L768.242766,276.0991 Z" id="path-5"></path>
        <filter x="-3.9%" y="-29.7%" width="107.9%" height="159.4%" filterUnits="objectBoundingBox" id="filter-6">
            <feMorphology radius="3" operator="dilate" in="SourceAlpha" result="shadowSpreadOuter1"></feMorphology>
            <feOffset dx="0" dy="0" in="shadowSpreadOuter1" result="shadowOffsetOuter1"></feOffset>
            <feGaussianBlur stdDeviation="7" in="shadowOffsetOuter1" result="shadowBlurOuter1"></feGaussianBlur>
            <feColorMatrix values="0 0 0 0 0   0 0 0 0 0   0 0 0 0 0  0 0 0 0.5 0" type="matrix" in="shadowBlurOuter1"></feColorMatrix>
        </filter>
    </defs>
    <g id="Page-1" stroke="none" stroke-width="1" fill="none" fill-rule="evenodd">
        <g id="Group-17" transform="translate(26.000000, 28.000000)">
            <g id="Line-3-Copy-18" stroke-linecap="square" transform="translate(415.050128, 94.664158) scale(1, -1) translate(-415.050128, -94.664158) ">
                <use fill="black" fill-opacity="1" filter="url(#filter-2)" xlink:href="#path-1"></use>
                <use stroke="#F58323" stroke-width="14" xlink:href="#path-1"></use>
            </g>
            <g id="Oval-9-Copy-19" transform="translate(13.000000, 13.000000) scale(1, -1) translate(-13.000000, -13.000000) ">
                <use fill="black" fill-opacity="1" filter="url(#filter-4)" xlink:href="#path-3"></use>
                <use stroke="#F5A623" stroke-width="14" fill="#F5A623" fill-rule="evenodd" xlink:href="#path-3"></use>
            </g>
            <g id="Гречневая">
                <use fill="black" fill-opacity="1" filter="url(#filter-6)" xlink:href="#path-5"></use>
                <use fill="#F5A623" fill-rule="evenodd" xlink:href="#path-5"></use>
            </g>
        </g>
    </g>
</svg>