
        <svg width="38%" height="40%" viewBox="0 0 323 317" version="1.1">
            <g id="Page-1" stroke="none" strokeWidth="1" fill="none" fillRule="evenodd">
                <g id="Group-6">
                    <circle id="Oval-4" stroke="#FFFFFF" strokeWidth="3" cx="252" cy="171" r="25"></circle>
                    <circle id="Oval-5" stroke="#FFFFFF" strokeWidth="3" cx="250.5" cy="155.5" r="8.5"></circle>
                    <path d="M276.16413,168.828123 C275.054636,168.297267 273.812033,168 272.5,168 C267.80558,168 264,171.80558 264,176.5 C264,179.072532 265.142821,181.378143 266.948472,182.936842 C268.437818,184.222497 270.378111,185 272.5,185" id="Oval-5-Copy" stroke="#FFFFFF" strokeWidth="3"></path>
                    <circle id="Oval-5-Copy-2" stroke="#FFFFFF" strokeWidth="3" cx="244" cy="174" r="6"></circle>
                    <circle id="Oval-5-Copy-3" stroke="#FFFFFF" strokeWidth="3" cx="257" cy="183" r="4"></circle>
                    <rect id="Rectangle-4" stroke="#FFFFFF" fill="#FFFFFF" x="77.5" y="151.5" width="2" height="2"></rect>
                    <rect id="Rectangle-4-Copy-2" stroke="#FFFFFF" fill="#FFFFFF" x="61.5" y="151.5" width="2" height="2"></rect>
                    <rect id="Rectangle-5" stroke="#FFFFFF" fill="#FFFFFF" x="65.5" y="158.5" width="10" height="2"></rect>
                    <rect id="Rectangle-5-Copy" stroke="#FFFFFF" fill="#FFFFFF" x="226.5" y="203.5" width="10" height="2"></rect>
                    <rect id="Rectangle-5-Copy-2" stroke="#FFFFFF" fill="#FFFFFF" x="115.5" y="169.5" width="10" height="2"></rect>
                    <rect id="Rectangle-12" stroke="#FFFFFF" fill="#FFFFFF" x="92.5" y="122.5" width="3" height="27"></rect>
                    <rect id="Rectangle-12-Copy-10" stroke="#FFFFFF" fill="#FFFFFF" x="92.5" y="189.5" width="3" height="27"></rect>
                    <rect id="Rectangle-12-Copy-11" stroke="#FFFFFF" fill="#FFFFFF" x="119.5" y="189.5" width="3" height="27"></rect>
                    <path d="M99.6381456,188.559595 L99.6381456,217.023363 C101.462869,217.925809 102.678213,218.402939 103.117652,218.438393 C103.072817,218.253958 102.938608,217.96544 102.711463,217.593614 L102.638146,217.473597 L102.638146,188.667133 C101.960527,188.403105 101.337729,188.272914 100.769813,188.272914 C100.26949,188.272914 99.8980181,188.371989 99.6381456,188.559595 Z" id="Rectangle-12-Copy-24" stroke="#FFFFFF" fill="#FFFFFF" transform="translate(101.386106, 203.355408) rotate(-25.000000) translate(-101.386106, -203.355408) "></path>
                    <path d="M112.378208,188.735976 L112.371722,217.498119 C112.301255,217.928932 112.260967,218.271575 112.249957,218.520143 C112.600434,218.374888 113.201656,218.110282 114.008847,217.737453 C114.278263,217.613014 114.734865,217.400246 115.37828,217.099322 L115.37828,188.760045 L113.710615,188.114664 L112.378208,188.735976 Z" id="Rectangle-12-Copy-25" stroke="#FFFFFF" fill="#FFFFFF" transform="translate(113.812571, 203.360588) rotate(25.000000) translate(-113.812571, -203.360588) "></path>
                    <path d="M129.480284,189.581353 L129.479003,189.711055 L129.478908,216.779438 L132.479003,216.411073 L132.479003,189.502562 C130.814348,189.516315 129.859139,189.534835 129.698444,189.554566 C129.602982,189.566287 129.536417,189.57446 129.48064,189.581309 Z" id="Rectangle-12-Copy-15" stroke="#FFFFFF" fill="#FFFFFF" transform="translate(130.979003, 203.171008) rotate(7.000000) translate(-130.979003, -203.171008) "></path>
                    <path d="M142.521373,189.511006 L142.521373,216.409252 L145.521373,216.78324 L145.521373,189.58422 L142.521373,189.511006 Z" id="Rectangle-12-Copy-16" stroke="#FFFFFF" fill="#FFFFFF" transform="translate(144.021686, 203.174046) rotate(-7.000000) translate(-144.021686, -203.174046) "></path>
                    <rect id="Rectangle-12-Copy-12" stroke="#FFFFFF" fill="#FFFFFF" x="153.5" y="189.5" width="3" height="27"></rect>
                    <path d="M159,208 C163.970563,208 168,204.19442 168,199.5 C168,194.80558 163.970563,191 159,191" id="Oval-6" stroke="#FFFFFF" strokeWidth="4"></path>
                    <rect id="Rectangle-15" stroke="#FFFFFF" fill="#FFFFFF" x="156.5" y="206.5" width="3" height="3"></rect>
                    <rect id="Rectangle-15-Copy" stroke="#FFFFFF" fill="#FFFFFF" x="156.5" y="189.5" width="3" height="3"></rect>
                    <circle id="Oval-7" stroke="#FFFFFF" fill="#FFFFFF" cx="81" cy="181" r="1"></circle>
                    <circle id="Oval-7-Copy" stroke="#FFFFFF" fill="#FFFFFF" cx="104" cy="178" r="1"></circle>
                    <circle id="Oval-7-Copy-2" stroke="#FFFFFF" fill="#FFFFFF" cx="112" cy="160" r="1"></circle>
                    <circle id="Oval-7-Copy-3" stroke="#FFFFFF" fill="#FFFFFF" cx="151" cy="173" r="1"></circle>
                    <circle id="Oval-7-Copy-7" stroke="#FFFFFF" fill="#FFFFFF" cx="233" cy="126" r="1"></circle>
                    <rect id="Rectangle-16" stroke="#FFFFFF" fill="#FFFFFF" x="271.5" y="143.5" width="9" height="3"></rect>
                    <rect id="Rectangle-17" stroke="#FFFFFF" fill="#FFFFFF" x="277.5" y="143.5" width="3" height="9"></rect>
                    <rect id="Rectangle-17-Copy" stroke="#FFFFFF" fill="#FFFFFF" transform="translate(275.564642, 148.626346) rotate(44.000000) translate(-275.564642, -148.626346) " x="274.064642" y="144.626346" width="3" height="8"></rect>
                    <circle id="Oval-7-Copy-8" stroke="#FFFFFF" fill="#FFFFFF" cx="245" cy="218" r="1"></circle>
                    <circle id="Oval-7-Copy-4" stroke="#FFFFFF" fill="#FFFFFF" cx="157.5" cy="168.5" r="1"></circle>
                    <circle id="Oval-7-Copy-6" stroke="#FFFFFF" fill="#FFFFFF" cx="225.5" cy="145.5" r="1"></circle>
                    <circle id="Oval-7-Copy-5" stroke="#FFFFFF" fill="#FFFFFF" cx="129.5" cy="156.5" r="1"></circle>
                    <rect id="Rectangle-12-Copy-13" stroke="#FFFFFF" fill="#FFFFFF" x="200.5" y="189.5" width="3" height="27"></rect>
                    <rect id="Rectangle-12-Copy-14" stroke="#FFFFFF" fill="#FFFFFF" x="175.5" y="189.5" width="3" height="27"></rect>
                    <rect id="Rectangle-12-Copy" stroke="#FFFFFF" fill="#FFFFFF" x="110.5" y="122.5" width="3" height="27"></rect>
                    <rect id="Rectangle-12-Copy-2" stroke="#FFFFFF" fill="#FFFFFF" x="119.5" y="122.5" width="3" height="27"></rect>
                    <path d="M129.839244,120.602002 L129.839244,151.437716 L132.532823,151.768545 L132.839244,151.545917 L132.839244,120.602002 L129.839244,120.602002 Z" id="Rectangle-12-Copy-23" stroke="#FFFFFF" fill="#FFFFFF" transform="translate(131.339244, 136.195415) rotate(36.000000) translate(-131.339244, -136.195415) "></path>
                    <rect id="Rectangle-12-Copy-3" stroke="#FFFFFF" fill="#FFFFFF" x="149.5" y="122.5" width="3" height="27"></rect>
                    <rect id="Rectangle-12-Copy-17" stroke="#FFFFFF" fill="#FFFFFF" x="158.5" y="146.5" width="3" height="10"></rect>
                    <rect id="Rectangle-12-Copy-18" stroke="#FFFFFF" fill="#FFFFFF" x="184.5" y="146.5" width="3" height="10"></rect>
                    <rect id="Rectangle-14" stroke="#FFFFFF" fill="#FFFFFF" x="149.5" y="146.5" width="20" height="3"></rect>
                    <rect id="Rectangle-14-Copy" stroke="#FFFFFF" fill="#FFFFFF" x="175.5" y="146.5" width="20" height="3"></rect>
                    <rect id="Rectangle-14-Copy-2" stroke="#FFFFFF" fill="#FFFFFF" x="202.5" y="173.5" width="18" height="3"></rect>
                    <path d="M203.968712,163.5 L204.429119,166.5 L218.569592,166.5 L219.020903,163.5 L203.968712,163.5 Z" id="Rectangle-14-Copy-10" stroke="#FFFFFF" fill="#FFFFFF"></path>
                    <rect id="Rectangle-14-Copy-11" stroke="#FFFFFF" fill="#FFFFFF" x="205.5" y="122.5" width="12" height="3"></rect>
                    <rect id="Rectangle-14-Copy-12" stroke="#FFFFFF" fill="#FFFFFF" x="131.5" y="189.5" width="12" height="3"></rect>
                    <rect id="Rectangle-14-Copy-13" stroke="#FFFFFF" fill="#FFFFFF" x="131.5" y="201.5" width="12" height="3"></rect>
                    <rect id="Rectangle-14-Copy-9" stroke="#FFFFFF" fill="#FFFFFF" x="176.5" y="173.5" width="18" height="3"></rect>
                    <rect id="Rectangle-14-Copy-4" stroke="#FFFFFF" fill="#FFFFFF" x="202.5" y="199.5" width="18" height="3"></rect>
                    <rect id="Rectangle-14-Copy-6" stroke="#FFFFFF" fill="#FFFFFF" x="202.5" y="213.5" width="18" height="3"></rect>
                    <rect id="Rectangle-14-Copy-7" stroke="#FFFFFF" fill="#FFFFFF" x="178.5" y="213.5" width="18" height="3"></rect>
                    <rect id="Rectangle-14-Copy-8" stroke="#FFFFFF" fill="#FFFFFF" x="178.5" y="189.5" width="18" height="3"></rect>
                    <rect id="Rectangle-14-Copy-5" stroke="#FFFFFF" fill="#FFFFFF" x="202.5" y="189.5" width="18" height="3"></rect>
                    <rect id="Rectangle-14-Copy-3" stroke="#FFFFFF" fill="#FFFFFF" x="204.5" y="137.5" width="15" height="3"></rect>
                    <rect id="Rectangle-12-Copy-4" stroke="#FFFFFF" fill="#FFFFFF" x="167.5" y="122.5" width="3" height="27"></rect>
                    <rect id="Rectangle-12-Copy-5" stroke="#FFFFFF" fill="#FFFFFF" x="175.5" y="122.5" width="3" height="27"></rect>
                    <rect id="Rectangle-12-Copy-19" stroke="#FFFFFF" fill="#FFFFFF" x="175.5" y="163.5" width="3" height="19"></rect>
                    <rect id="Rectangle-12-Copy-20" stroke="#FFFFFF" fill="#FFFFFF" x="193.5" y="163.5" width="3" height="19"></rect>
                    <path d="M202.470713,163.623187 L202.473702,182.800226 L205.473736,182.378599 L205.473736,163.497003 L203.396463,163.493081 L202.470713,163.623187 Z" id="Rectangle-12-Copy-21" stroke="#FFFFFF" fill="#FFFFFF" transform="translate(203.972190, 173.186771) rotate(8.000000) translate(-203.972190, -173.186771) "></path>
                    <path d="M217.526606,163.497943 L217.526606,182.383279 L220.526606,182.804902 L220.526606,163.617491 L219.712154,163.497943 L217.526606,163.497943 Z" id="Rectangle-12-Copy-22" stroke="#FFFFFF" fill="#FFFFFF" transform="translate(219.028008, 173.189212) rotate(-8.000000) translate(-219.028008, -173.189212) "></path>
                    <rect id="Rectangle-12-Copy-7" stroke="#FFFFFF" fill="#FFFFFF" x="193.5" y="122.5" width="3" height="27"></rect>
                    <path d="M203.479023,122.581026 L203.479023,149.777139 L206.479023,149.408785 L206.479023,122.497724 L204.193017,122.494762 L203.479023,122.581026 Z M203.333254,122.598638 L203.332774,122.598696 L203.333735,122.598579 L203.333254,122.598638 Z" id="Rectangle-12-Copy-8" stroke="#FFFFFF" fill="#FFFFFF" transform="translate(204.976202, 136.170675) rotate(7.000000) translate(-204.976202, -136.170675) "></path>
                    <path d="M216.521297,122.498609 L216.521297,149.41453 L219.521297,149.782884 L219.521297,122.581774 L218.89052,122.498609 L216.521297,122.498609 Z" id="Rectangle-12-Copy-9" stroke="#FFFFFF" fill="#FFFFFF" transform="translate(218.022023, 136.173409) rotate(-7.000000) translate(-218.022023, -136.173409) "></path>
                    <path d="M139.781217,122.5 L140.5,127.628264 L140.5,149.5 L143.5,149.5 L143.5,122.5 L139.781217,122.5 Z" id="Rectangle-12-Copy-6" stroke="#FFFFFF" fill="#FFFFFF"></path>
                    <rect id="Rectangle-13" stroke="#FFFFFF" fill="#FFFFFF" x="92.5" y="122.5" width="20" height="3"></rect>
                    <rect id="Rectangle-4-Copy" stroke="#FFFFFF" fill="#FFFFFF" x="77.5" y="165.5" width="2" height="2"></rect>
                    <rect id="Rectangle-4-Copy-3" stroke="#FFFFFF" fill="#FFFFFF" x="61.5" y="165.5" width="2" height="2"></rect>
                    <rect id="Rectangle-3" stroke="#FFFFFF" fill="#FFFFFF" x="69.5" y="154.5" width="2" height="10"></rect>
                    <rect id="Rectangle-3-Copy" stroke="#FFFFFF" fill="#FFFFFF" x="230.5" y="199.5" width="2" height="10"></rect>
                    <rect id="Rectangle-3-Copy-2" stroke="#FFFFFF" fill="#FFFFFF" x="119.5" y="165.5" width="2" height="10"></rect>
                    <rect id="Rectangle-6" stroke="#FFFFFF" fill="#FFFFFF" x="69.5" y="109.5" width="2" height="41"></rect>
                    <rect id="Rectangle-7" stroke="#FFFFFF" fill="#FFFFFF" x="69.5" y="168.5" width="2" height="61"></rect>
                    <rect id="Rectangle-8" stroke="#FFFFFF" fill="#FFFFFF" x="69.5" y="227.5" width="184" height="2"></rect>
                    <rect id="Rectangle-9" stroke="#FFFFFF" fill="#FFFFFF" x="251.5" y="201.5" width="2" height="28"></rect>
                    <rect id="Rectangle-10" stroke="#FFFFFF" fill="#FFFFFF" x="251.5" y="112.5" width="2" height="28"></rect>
                    <rect id="Rectangle-11" stroke="#FFFFFF" fill="#FFFFFF" x="69.5" y="109.5" width="184" height="2"></rect>
                    <rect id="Rectangle-18" fill="#FFFFFF" x="160" y="56" width="3" height="53"></rect>
                    <rect id="Rectangle-18-Copy" fill="#FFFFFF" x="44" y="56" width="3" height="34"></rect>
                    <polygon id="Rectangle-18-Copy-4" fill="#FFFFFF" points="276 56 279 56 279 90.385706 278.859406 90.385706 278.754255 90.385706 277.683684 90.359548 276 91"></polygon>
                    <polygon id="Rectangle-18-Copy-2" fill="#FFFFFF" transform="translate(265.064880, 100.503912) rotate(49.000000) translate(-265.064880, -100.503912) " points="263.560061 83.1758821 266.376392 83.1790086 266.346308 83.4257906 266.569699 83.3470476 266.560061 117.831941 263.560061 117.831941"></polygon>
                    <polygon id="Rectangle-18-Copy-5" fill="#FFFFFF" points="160 229 162.776875 229 162.786247 229.249909 163 229.197313 163 263.656059 160 263.656059"></polygon>
                    <polygon id="Rectangle-18-Copy-3" fill="#FFFFFF" transform="translate(58.060619, 100.499319) rotate(-49.000000) translate(-58.060619, -100.499319) " points="56.9601435 82.8258913 59.5606189 83.0981127 59.5606189 118.172746 56.5606189 118.172746 56.5606189 83.2929158 56.5648582 83.1695076"></polygon>
                </g>
            </g>
        </svg>	