
<svg width="220px" height="121px" viewBox="0 0 220 121" version="1.1" xmlns="http://www.w3.org/2000/svg" xmlns:xlink="http://www.w3.org/1999/xlink">
    <g id="Page-1" stroke="none" stroke-width="1" fill="none" fill-rule="evenodd">
        <g id="panel-copy" stroke="#FFFFFF">
            <circle id="Oval-4" stroke-width="3" cx="191" cy="62" r="25"></circle>
            <circle id="Oval-5" stroke-width="3" cx="189.5" cy="46.5" r="8.5"></circle>
            <path d="M215.16413,59.828123 C214.054636,59.297267 212.812033,59 211.5,59 C206.80558,59 203,62.80558 203,67.5 C203,70.072532 204.142821,72.378143 205.948472,73.936842 C207.437818,75.222497 209.378111,76 211.5,76" id="Oval-5-Copy" stroke-width="3"></path>
            <circle id="Oval-5-Copy-2" stroke-width="3" cx="183" cy="65" r="6"></circle>
            <circle id="Oval-5-Copy-3" stroke-width="3" cx="196" cy="74" r="4"></circle>
            <rect id="Rectangle-4" fill="#FFFFFF" fill-rule="nonzero" x="16.5" y="42.5" width="2" height="2"></rect>
            <rect id="Rectangle-4-Copy-2" fill="#FFFFFF" fill-rule="nonzero" x="0.5" y="42.5" width="2" height="2"></rect>
            <rect id="Rectangle-5" fill="#FFFFFF" fill-rule="nonzero" x="4.5" y="49.5" width="10" height="2"></rect>
            <rect id="Rectangle-5-Copy" fill="#FFFFFF" fill-rule="nonzero" x="165.5" y="94.5" width="10" height="2"></rect>
            <rect id="Rectangle-5-Copy-2" fill="#FFFFFF" fill-rule="nonzero" x="54.5" y="60.5" width="10" height="2"></rect>
            <rect id="Rectangle-12" fill="#FFFFFF" fill-rule="nonzero" x="31.5" y="13.5" width="3" height="27"></rect>
            <rect id="Rectangle-12-Copy-10" fill="#FFFFFF" fill-rule="nonzero" x="31.5" y="80.5" width="3" height="27"></rect>
            <rect id="Rectangle-12-Copy-11" fill="#FFFFFF" fill-rule="nonzero" x="58.5" y="80.5" width="3" height="27"></rect>
            <path d="M38.6390183,79.5630405 L38.6390183,108.026809 C40.4637417,108.929255 41.6790857,109.406385 42.1185247,109.441839 C42.0736897,109.257404 41.9394807,108.968886 41.7123357,108.59706 L41.6390187,108.477043 L41.6390187,79.6705785 C40.9613997,79.4065505 40.3386017,79.2763595 39.7706857,79.2763595 C39.2703627,79.2763595 38.8988908,79.3754345 38.6390183,79.5630405 Z" id="Rectangle-12-Copy-24" fill="#FFFFFF" fill-rule="nonzero" transform="translate(40.378772, 94.359099) rotate(-25.000000) translate(-40.378772, -94.359099) "></path>
            <path d="M51.3963136,79.7406761 L51.3898276,108.502819 C51.3193606,108.933632 51.2790726,109.276275 51.2680626,109.524843 C51.6185396,109.379588 52.2197616,109.114982 53.0269526,108.742153 C53.2963686,108.617714 53.7529706,108.404946 54.3963856,108.104022 L54.3963856,79.7647451 L52.7287206,79.1193641 L51.3963136,79.7406761 Z" id="Rectangle-12-Copy-25" fill="#FFFFFF" fill-rule="nonzero" transform="translate(52.832224, 94.322104) rotate(25.000000) translate(-52.832224, -94.322104) "></path>
            <path d="M68.4839414,80.5815709 L68.4826604,80.7112729 L68.4825654,107.779656 L71.4826604,107.411291 L71.4826604,80.5027799 C69.8180054,80.5165329 68.8627964,80.5350529 68.7021014,80.5547839 C68.6066394,80.5665049 68.5400744,80.5746779 68.4842974,80.5815269 L68.4839414,80.5815709 Z" id="Rectangle-12-Copy-15" fill="#FFFFFF" fill-rule="nonzero" transform="translate(69.982613, 94.141218) rotate(7.000000) translate(-69.982613, -94.141218) "></path>
            <polygon id="Rectangle-12-Copy-16" fill="#FFFFFF" fill-rule="nonzero" transform="translate(83.018094, 94.147362) rotate(-7.000000) translate(-83.018094, -94.147362) " points="81.5180942 80.5112448 81.5180942 107.409491 84.5180942 107.783479 84.5180942 80.5844588"></polygon>
            <rect id="Rectangle-12-Copy-12" fill="#FFFFFF" fill-rule="nonzero" x="92.5" y="80.5" width="3" height="27"></rect>
            <path d="M98,99 C102.970563,99 107,95.19442 107,90.5 C107,85.80558 102.970563,82 98,82" id="Oval-6" stroke-width="4"></path>
            <rect id="Rectangle-15" fill="#FFFFFF" fill-rule="nonzero" x="95.5" y="97.5" width="3" height="3"></rect>
            <rect id="Rectangle-15-Copy" fill="#FFFFFF" fill-rule="nonzero" x="95.5" y="80.5" width="3" height="3"></rect>
            <circle id="Oval-7" fill="#FFFFFF" fill-rule="nonzero" cx="20" cy="72" r="1"></circle>
            <circle id="Oval-7-Copy" fill="#FFFFFF" fill-rule="nonzero" cx="43" cy="69" r="1"></circle>
            <circle id="Oval-7-Copy-2" fill="#FFFFFF" fill-rule="nonzero" cx="51" cy="51" r="1"></circle>
            <circle id="Oval-7-Copy-3" fill="#FFFFFF" fill-rule="nonzero" cx="90" cy="64" r="1"></circle>
            <circle id="Oval-7-Copy-7" fill="#FFFFFF" fill-rule="nonzero" cx="172" cy="17" r="1"></circle>
            <rect id="Rectangle-16" fill="#FFFFFF" fill-rule="nonzero" x="210.5" y="34.5" width="9" height="3"></rect>
            <rect id="Rectangle-17" fill="#FFFFFF" fill-rule="nonzero" x="216.5" y="34.5" width="3" height="9"></rect>
            <rect id="Rectangle-17-Copy" fill="#FFFFFF" fill-rule="nonzero" transform="translate(214.564642, 39.626346) rotate(44.000000) translate(-214.564642, -39.626346) " x="213.064642" y="35.626346" width="3" height="8"></rect>
            <circle id="Oval-7-Copy-8" fill="#FFFFFF" fill-rule="nonzero" cx="184" cy="109" r="1"></circle>
            <circle id="Oval-7-Copy-4" fill="#FFFFFF" fill-rule="nonzero" cx="96.5" cy="59.5" r="1"></circle>
            <circle id="Oval-7-Copy-6" fill="#FFFFFF" fill-rule="nonzero" cx="164.5" cy="36.5" r="1"></circle>
            <circle id="Oval-7-Copy-5" fill="#FFFFFF" fill-rule="nonzero" cx="68.5" cy="47.5" r="1"></circle>
            <rect id="Rectangle-12-Copy-13" fill="#FFFFFF" fill-rule="nonzero" x="139.5" y="80.5" width="3" height="27"></rect>
            <rect id="Rectangle-12-Copy-14" fill="#FFFFFF" fill-rule="nonzero" x="114.5" y="80.5" width="3" height="27"></rect>
            <rect id="Rectangle-12-Copy" fill="#FFFFFF" fill-rule="nonzero" x="49.5" y="13.5" width="3" height="27"></rect>
            <rect id="Rectangle-12-Copy-2" fill="#FFFFFF" fill-rule="nonzero" x="58.5" y="13.5" width="3" height="27"></rect>
            <polygon id="Rectangle-12-Copy-23" fill="#FFFFFF" fill-rule="nonzero" transform="translate(70.345205, 27.187210) rotate(36.000000) translate(-70.345205, -27.187210) " points="68.845205 11.6039389 68.845205 42.4396529 71.538784 42.7704819 71.845205 42.5478539 71.845205 11.6039389"></polygon>
            <rect id="Rectangle-12-Copy-3" fill="#FFFFFF" fill-rule="nonzero" x="88.5" y="13.5" width="3" height="27"></rect>
            <rect id="Rectangle-12-Copy-17" fill="#FFFFFF" fill-rule="nonzero" x="97.5" y="37.5" width="3" height="10"></rect>
            <rect id="Rectangle-12-Copy-18" fill="#FFFFFF" fill-rule="nonzero" x="123.5" y="37.5" width="3" height="10"></rect>
            <rect id="Rectangle-14" fill="#FFFFFF" fill-rule="nonzero" x="88.5" y="37.5" width="20" height="3"></rect>
            <rect id="Rectangle-14-Copy" fill="#FFFFFF" fill-rule="nonzero" x="114.5" y="37.5" width="20" height="3"></rect>
            <rect id="Rectangle-14-Copy-2" fill="#FFFFFF" fill-rule="nonzero" x="141.5" y="64.5" width="18" height="3"></rect>
            <polygon id="Rectangle-14-Copy-10" fill="#FFFFFF" fill-rule="nonzero" points="142.968712 54.5 143.429119 57.5 157.569592 57.5 158.020903 54.5"></polygon>
            <rect id="Rectangle-14-Copy-11" fill="#FFFFFF" fill-rule="nonzero" x="144.5" y="13.5" width="12" height="3"></rect>
            <rect id="Rectangle-14-Copy-12" fill="#FFFFFF" fill-rule="nonzero" x="70.5" y="80.5" width="12" height="3"></rect>
            <rect id="Rectangle-14-Copy-13" fill="#FFFFFF" fill-rule="nonzero" x="70.5" y="92.5" width="12" height="3"></rect>
            <rect id="Rectangle-14-Copy-9" fill="#FFFFFF" fill-rule="nonzero" x="115.5" y="64.5" width="18" height="3"></rect>
            <rect id="Rectangle-14-Copy-4" fill="#FFFFFF" fill-rule="nonzero" x="141.5" y="90.5" width="18" height="3"></rect>
            <rect id="Rectangle-14-Copy-6" fill="#FFFFFF" fill-rule="nonzero" x="141.5" y="104.5" width="18" height="3"></rect>
            <rect id="Rectangle-14-Copy-7" fill="#FFFFFF" fill-rule="nonzero" x="117.5" y="104.5" width="18" height="3"></rect>
            <rect id="Rectangle-14-Copy-8" fill="#FFFFFF" fill-rule="nonzero" x="117.5" y="80.5" width="18" height="3"></rect>
            <rect id="Rectangle-14-Copy-5" fill="#FFFFFF" fill-rule="nonzero" x="141.5" y="80.5" width="18" height="3"></rect>
            <rect id="Rectangle-14-Copy-3" fill="#FFFFFF" fill-rule="nonzero" x="143.5" y="28.5" width="15" height="3"></rect>
            <rect id="Rectangle-12-Copy-4" fill="#FFFFFF" fill-rule="nonzero" x="106.5" y="13.5" width="3" height="27"></rect>
            <rect id="Rectangle-12-Copy-5" fill="#FFFFFF" fill-rule="nonzero" x="114.5" y="13.5" width="3" height="27"></rect>
            <rect id="Rectangle-12-Copy-19" fill="#FFFFFF" fill-rule="nonzero" x="114.5" y="54.5" width="3" height="19"></rect>
            <rect id="Rectangle-12-Copy-20" fill="#FFFFFF" fill-rule="nonzero" x="132.5" y="54.5" width="3" height="19"></rect>
            <polygon id="Rectangle-12-Copy-21" fill="#FFFFFF" fill-rule="nonzero" transform="translate(142.977807, 64.147049) rotate(8.000000) translate(-142.977807, -64.147049) " points="141.476296 54.6235822 141.479285 73.8006212 144.479319 73.3789942 144.479319 54.4973982 142.402046 54.4934762"></polygon>
            <polygon id="Rectangle-12-Copy-22" fill="#FFFFFF" fill-rule="nonzero" transform="translate(158.021360, 64.151985) rotate(-8.000000) translate(-158.021360, -64.151985) " points="156.52136 54.4985059 156.52136 73.3838419 159.52136 73.8054649 159.52136 54.6180539 158.706908 54.4985059"></polygon>
            <rect id="Rectangle-12-Copy-7" fill="#FFFFFF" fill-rule="nonzero" x="132.5" y="13.5" width="3" height="27"></rect>
            <path d="M142.483779,13.572717 L142.483779,40.76883 L145.483779,40.400476 L145.483779,13.489415 L143.197773,13.486453 L142.483779,13.572717 Z M142.33801,13.590329 L142.33753,13.590387 L142.338491,13.59027 L142.33801,13.590329 Z" id="Rectangle-12-Copy-8" fill="#FFFFFF" fill-rule="nonzero" transform="translate(143.910654, 27.127641) rotate(7.000000) translate(-143.910654, -27.127641) "></path>
            <polygon id="Rectangle-12-Copy-9" fill="#FFFFFF" fill-rule="nonzero" transform="translate(157.017322, 27.141078) rotate(-7.000000) translate(-157.017322, -27.141078) " points="155.517322 13.4989409 155.517322 40.4148619 158.517322 40.7832159 158.517322 13.5821059 157.886545 13.4989409"></polygon>
            <polygon id="Rectangle-12-Copy-6" fill="#FFFFFF" fill-rule="nonzero" points="78.781217 13.5 79.5 18.628264 79.5 40.5 82.5 40.5 82.5 13.5"></polygon>
            <rect id="Rectangle-13" fill="#FFFFFF" fill-rule="nonzero" x="31.5" y="13.5" width="20" height="3"></rect>
            <rect id="Rectangle-4-Copy" fill="#FFFFFF" fill-rule="nonzero" x="16.5" y="56.5" width="2" height="2"></rect>
            <rect id="Rectangle-4-Copy-3" fill="#FFFFFF" fill-rule="nonzero" x="0.5" y="56.5" width="2" height="2"></rect>
            <rect id="Rectangle-3" fill="#FFFFFF" fill-rule="nonzero" x="8.5" y="45.5" width="2" height="10"></rect>
            <rect id="Rectangle-3-Copy" fill="#FFFFFF" fill-rule="nonzero" x="169.5" y="90.5" width="2" height="10"></rect>
            <rect id="Rectangle-3-Copy-2" fill="#FFFFFF" fill-rule="nonzero" x="58.5" y="56.5" width="2" height="10"></rect>
            <rect id="Rectangle-6" fill="#FFFFFF" fill-rule="nonzero" x="8.5" y="0.5" width="2" height="41"></rect>
            <rect id="Rectangle-7" fill="#FFFFFF" fill-rule="nonzero" x="8.5" y="59.5" width="2" height="61"></rect>
            <rect id="Rectangle-8" fill="#FFFFFF" fill-rule="nonzero" x="8.5" y="118.5" width="184" height="2"></rect>
            <rect id="Rectangle-9" fill="#FFFFFF" fill-rule="nonzero" x="190.5" y="92.5" width="2" height="28"></rect>
            <rect id="Rectangle-10" fill="#FFFFFF" fill-rule="nonzero" x="190.5" y="3.5" width="2" height="28"></rect>
            <rect id="Rectangle-11" fill="#FFFFFF" fill-rule="nonzero" x="8.5" y="0.5" width="184" height="2"></rect>
        </g>
    </g>
</svg>