
<svg width="51px" height="33px" viewBox="0 0 51 33" version="1.1" xmlns="http://www.w3.org/2000/svg" xmlns:xlink="http://www.w3.org/1999/xlink">
    <g id="Page-1" stroke="none" stroke-width="1" fill="none" fill-rule="evenodd">
        <g id="noun_Meat_1370389-Copy-2" transform="translate(24.588865, 15.238597) rotate(-176.000000) translate(-24.588865, -15.238597) translate(-0.911135, -1.261403)" fill="#F5A623" fill-rule="nonzero">
            <g id="Group">
                <path d="M49.3995886,23.8201056 C48.7897172,23.335218 48.7897172,22.7897194 48.6677429,22.1836098 C48.0578714,19.5773387 45.9233213,18.6681744 44.0937069,20.547114 C41.4712596,23.2139961 38.6658509,22.5472756 35.6774807,21.8199441 C34.7016863,21.5775003 34.2137892,21.0926126 34.0308277,20.0622264 C31.8962776,9.81897484 24.9437429,4.18215595 15.3687609,1.0909972 C11.1606478,-0.242443823 8.47721336,0.484887646 6.0377275,4.18215595 C2.500473,9.4553091 0.731845758,15.3951828 0.365922879,20.4865031 C0.304935732,27.8204287 2.37849871,30.6691436 7.98931619,31.3964751 C17.6862725,32.6693052 27.3222416,32.2450285 36.8362365,29.6993683 C39.8246066,28.9114259 42.8129768,27.9416506 46.0452956,28.729593 C47.0820771,28.9720369 48.1188586,28.790204 49.0336658,28.1840944 C50.9852544,26.7900425 51.1682159,25.3353795 49.3995886,23.8201056 Z M10.6117635,27.8204287 C6.34266323,29.3357026 3.4152802,27.7598178 3.23231876,23.274607 C2.92738303,16.48618 5.00094601,10.3644734 9.02609768,4.90948742 C10.7947249,2.54566014 12.9902622,2.54566014 15.3077738,4.36398882 C18.0521954,6.42476131 19.8208226,10.5463063 19.7598355,14.5466294 C19.6988483,20.2440592 15.6736966,26.0021 10.6117635,27.8204287 Z M27.9321131,17.6377881 C27.6271773,14.5466294 26.1024987,11.7585254 24.5168329,9.03103241 C28.9688946,11.5160816 30.798509,15.7588485 31.9572647,20.6683359 C29.578766,20.7289469 28.1760617,20.3046702 27.9321131,17.6377881 Z M48.2408328,25.9414891 C47.9358971,26.6688205 47.0820771,26.7294315 46.1062827,26.7294315 C44.5206169,26.4869877 42.7519897,25.8808781 40.8613881,26.6082096 C40.2515167,26.8506534 40.0685552,26.3051548 40.0075681,25.8202672 C40.0075681,25.2747686 39.8246066,24.5474371 40.6784267,24.5474371 C42.5080411,24.608048 43.8497583,23.7594947 45.0085141,22.4260536 C45.2524627,22.1229989 45.6183856,21.8199441 46.0452956,22.001777 C46.5331927,22.2442208 46.7161542,22.6684975 46.4722056,23.2139961 C46.0452956,24.0625494 46.655167,24.4868261 47.1430642,25.0323247 C47.5699742,25.2747686 48.6067557,25.0929357 48.2408328,25.9414891 Z" id="Shape"></path>
                <path d="M10.7337378,6.48537227 C9.20905912,7.8188133 8.17227763,9.51592006 7.25747043,11.2736378 C6.89154755,12.0009692 6.28167609,12.7889117 6.76957326,13.5162431 C7.19648328,14.1829637 8.11129048,13.6374651 8.78214909,13.6374651 C11.9534807,13.3950212 12.7463136,13.9405198 12.4413779,16.9710676 C12.1974293,19.6985606 14.149018,19.7591716 15.7346838,20.0622264 C17.7472596,20.4258921 17.0154139,18.4863415 17.3203496,17.5771772 C17.6862725,16.6074019 17.6252853,15.5164047 17.6862725,14.9709061 C17.8082468,11.6373035 16.7714653,9.15225432 15.1248123,6.97025992 C13.9050694,5.33376411 12.2584164,5.15193124 10.7337378,6.48537227 Z" id="Shape"></path>
                <path d="M14.0270437,22.3048317 C13.1122365,21.6381112 7.01352184,21.3350564 6.22068894,22.001777 C6.09871465,22.1229989 6.0377275,22.2442208 5.91575321,22.3654427 C5.42785603,23.2139961 4.87897172,24.0019385 5.48884318,25.0323247 C6.15970179,26.1233219 7.19648328,26.4263767 8.23326477,26.4263767 C10.5507763,26.3657658 12.3803907,25.4566014 13.9660565,24.0019385 C14.5149409,23.5170508 14.9418509,22.9715522 14.0270437,22.3048317 Z" id="Shape"></path>
                <path d="M11.2216349,17.3953443 C11.1606478,16.3649581 10.9776864,15.1527389 9.63596914,15.2133499 C7.68438045,15.2133499 7.19648328,16.7286238 7.07450899,18.3045086 C7.01352184,19.3348949 7.25747043,20.4865031 8.6601748,20.4865031 C10.5507763,20.4258921 10.9776864,18.9712292 11.2216349,17.3953443 Z" id="Shape"></path>
            </g>
        </g>
    </g>
</svg>