
<svg width="106px" height="58px" viewBox="0 0 106 58" version="1.1" xmlns="http://www.w3.org/2000/svg" xmlns:xlink="http://www.w3.org/1999/xlink">
    <!-- Generator: Sketch 50.2 (55047) - http://www.bohemiancoding.com/sketch -->
    <desc>Created with Sketch.</desc>
    <defs>
        <path d="M44.387,22.215 C40.756,22.215 37.802,25.169 37.802,28.8 C37.802,32.431 40.756,35.384 44.387,35.384 C48.018,35.384 50.971,32.43 50.971,28.8 C50.971,25.17 48.018,22.215 44.387,22.215 Z M44.387,33.284 C41.914,33.284 39.903,31.273 39.903,28.8 C39.903,26.327 41.915,24.316 44.387,24.316 C46.859,24.316 48.871,26.327 48.871,28.8 C48.871,31.272 46.859,33.284 44.387,33.284 Z" id="path-1"></path>
        <filter x="-57.0%" y="-41.8%" width="213.9%" height="213.9%" filterUnits="objectBoundingBox" id="filter-2">
            <feMorphology radius="0.5" operator="dilate" in="SourceAlpha" result="shadowSpreadOuter1"></feMorphology>
            <feOffset dx="0" dy="2" in="shadowSpreadOuter1" result="shadowOffsetOuter1"></feOffset>
            <feGaussianBlur stdDeviation="2" in="shadowOffsetOuter1" result="shadowBlurOuter1"></feGaussianBlur>
            <feComposite in="shadowBlurOuter1" in2="SourceAlpha" operator="out" result="shadowBlurOuter1"></feComposite>
            <feColorMatrix values="0 0 0 0 1   0 0 0 0 0.537254902   0 0 0 0 0.341176471  0 0 0 0.5 0" type="matrix" in="shadowBlurOuter1"></feColorMatrix>
        </filter>
        <path d="M60.282,0.831 C59.776,0.542 59.135,0.718 58.85,1.223 L56.386,5.543 C53.231,6.442 40.36,11.008 33.768,18.816 C27.699,26.005 24.434,35.133 23.463,38.164 C23.377,38.199 23.279,38.242 23.159,38.303 C19.89,39.942 4.255,50.579 0.919,55.263 C0.743,55.397 0.598,55.54 0.503,55.68 C-0.569,57.269 1.334,59.608 3.554,61.107 C5.08,62.135 6.699,62.751 7.883,62.751 C8.576,62.751 9.028,62.546 9.341,62.3 L9.368,62.319 C9.389,62.29 9.416,62.257 9.439,62.228 C9.558,62.122 9.657,62.011 9.729,61.904 C9.751,61.872 9.772,61.827 9.794,61.788 C11.392,59.904 14.815,56.981 19.02,53.9 C18.671,55.275 18.478,56.099 18.397,56.612 C18.146,57.357 18.279,58.518 19.891,60.155 C20.102,60.37 20.349,60.586 20.595,60.801 L18.201,65 C17.108,64.647 16.157,64.444 15.462,64.444 C14.374,64.444 13.895,64.916 13.686,65.311 C13.066,66.477 14.241,67.892 15.832,69.156 L14.094,72.204 C13.807,72.709 13.982,73.349 14.487,73.638 C14.651,73.731 14.83,73.776 15.006,73.776 C15.371,73.776 15.726,73.586 15.92,73.245 L17.553,70.382 C18.045,70.699 18.53,70.993 18.982,71.254 L16.627,75.352 C13.702,73.902 7.392,70.966 6.204,73.206 C5.712,74.129 5.871,75.495 10.492,78.572 L8.872,81.411 C8.584,81.916 8.759,82.556 9.264,82.843 C9.428,82.938 9.607,82.983 9.783,82.983 C10.148,82.983 10.503,82.793 10.696,82.452 L13.475,77.581 C13.763,77.078 13.588,76.435 13.083,76.148 C12.578,75.859 11.936,76.036 11.651,76.541 L11.534,76.746 C10.136,75.807 9.267,75.084 8.757,74.586 C9.996,74.842 12.283,75.591 15.574,77.185 L14.694,78.715 C14.679,78.707 14.67,78.7 14.653,78.691 C14.156,78.393 13.509,78.557 13.213,79.056 C12.917,79.554 13.08,80.199 13.578,80.495 C13.605,80.512 13.622,80.522 13.648,80.536 L12.553,82.442 C12.263,82.944 12.437,83.587 12.941,83.876 C13.106,83.971 13.285,84.016 13.463,84.016 C13.827,84.016 14.18,83.828 14.375,83.489 L15.49,81.549 C18.139,82.956 20.735,84.099 22.8,84.766 C23.843,85.104 24.925,85.395 25.814,85.395 C26.596,85.395 27.229,85.169 27.555,84.554 C27.819,84.06 28.581,82.576 22.275,78.481 L24.864,73.941 C25.909,74.271 26.82,74.462 27.492,74.462 C28.58,74.462 29.059,73.99 29.27,73.592 C29.876,72.449 28.757,71.065 27.213,69.82 L29.676,65.5 C30.389,65.662 31.049,65.755 31.616,65.755 C32.705,65.755 33.345,65.439 33.725,65.067 L33.764,65.104 L35.807,63.03 C35.085,67.764 34.179,71.759 33.326,73.917 C33.296,73.962 33.267,74.007 33.246,74.048 C33.187,74.159 33.131,74.301 33.091,74.467 C33.077,74.497 33.063,74.534 33.048,74.566 L33.071,74.576 C32.975,75.126 33.092,75.928 33.967,76.939 C34.649,77.727 35.671,78.504 36.848,79.127 C38.286,79.893 39.765,80.329 40.906,80.329 C42.303,80.329 42.864,79.667 43.073,79.272 C43.15,79.126 43.221,78.927 43.255,78.688 C45.82,73.51 47.861,54.759 47.774,51.11 C47.772,51.007 47.764,50.934 47.758,50.856 C49.468,48.745 52.868,44.258 55.716,38.762 L55.725,38.752 C55.724,38.751 55.723,38.751 55.723,38.75 C56.025,38.167 56.323,37.577 56.609,36.973 C62.025,25.556 59.351,9.957 58.252,6.518 L60.676,2.269 C60.962,1.759 60.786,1.118 60.282,0.831 Z M53.057,39.266 C50.602,43.687 47.875,47.328 46.333,49.259 C45.852,48.695 45.168,48.065 44.256,47.349 C42.331,45.838 39.625,44.131 36.636,42.544 C34.021,41.154 28.805,38.584 25.632,38.305 C26.395,36.037 28.12,31.405 30.889,26.627 C31.473,26.796 32.087,26.893 32.724,26.893 C36.355,26.893 39.309,23.939 39.309,20.308 C39.309,19.154 39.008,18.07 38.486,17.126 C40.475,15.457 42.723,13.979 44.969,12.716 C45.587,12.691 48.07,13.39 51.764,15.354 C55.587,17.384 57.579,19.102 57.797,19.571 C57.775,19.522 57.742,19.358 57.803,19.16 C57.857,22.037 57.688,25.179 57.122,28.306 C53.866,28.701 51.334,31.476 51.334,34.837 C51.334,36.542 51.989,38.095 53.057,39.266 Z M32.701,60.781 C31.551,59.611 29.857,58.405 27.936,57.385 C25.344,56.007 22.743,55.184 20.978,55.184 C20.942,55.184 20.913,55.188 20.876,55.191 C21.771,51.605 23.681,44.125 24.977,40.319 C26.055,40.271 29.85,41.316 35.651,44.397 C41.151,47.32 44.123,49.773 44.897,50.805 L33.764,62.105 C33.519,61.704 33.176,61.265 32.701,60.781 Z M56.414,7.694 C56.79,9.158 57.435,12.467 57.696,16.599 C56.424,15.619 54.677,14.522 52.749,13.498 C50.787,12.456 49.135,11.707 47.778,11.235 C51.481,9.402 54.816,8.189 56.414,7.694 Z M35.373,20.17 C35.832,19.627 36.335,19.105 36.858,18.593 C37.079,19.122 37.208,19.699 37.208,20.307 C37.208,22.78 35.196,24.791 32.724,24.791 C32.492,24.791 32.264,24.77 32.041,24.735 C33.038,23.172 34.146,21.623 35.373,20.17 Z M2.354,56.931 C2.932,56.931 4.102,57.269 5.505,58.215 C6.94,59.183 7.685,60.161 7.881,60.65 C7.303,60.648 6.133,60.311 4.73,59.366 C3.297,58.397 2.553,57.419 2.354,56.931 Z M19.797,50.756 C16.227,53.267 12.027,56.514 9.415,59.119 C8.834,58.223 7.881,57.283 6.681,56.473 C5.673,55.794 4.636,55.319 3.699,55.058 C7.417,51.261 17.854,44.136 22.5,41.157 C21.852,43.243 21.049,46.115 20.097,49.759 C20,50.126 19.912,50.465 19.826,50.797 L19.797,50.756 Z M20.417,57.349 C20.521,57.319 20.701,57.286 20.978,57.286 C22.088,57.286 24.24,57.801 26.951,59.241 C28.115,59.858 29.043,60.471 29.796,61.044 L28.665,63.025 C27.773,62.717 26.76,62.289 25.645,61.696 C24.738,61.215 23.969,60.736 23.314,60.277 L23.628,59.725 C23.915,59.222 23.74,58.58 23.235,58.293 C22.731,58.006 22.089,58.182 21.802,58.685 L21.657,58.937 C20.903,58.223 20.502,57.646 20.417,57.349 Z M22.274,62.098 C22.73,62.411 23.212,62.715 23.716,63.013 L21.737,66.455 C21.209,66.196 20.695,65.965 20.191,65.751 L22.274,62.098 Z M22.552,69.257 C23.266,69.659 23.899,70.049 24.45,70.418 L23.914,71.356 C23.284,71.099 22.603,70.792 21.878,70.428 L22.552,69.257 Z M16.139,66.616 C16.425,66.67 16.763,66.752 17.139,66.863 L16.892,67.296 C16.586,67.043 16.336,66.815 16.139,66.616 Z M18.599,68.545 L19.147,67.585 C19.631,67.786 20.148,68.02 20.689,68.28 L20.029,69.428 C19.506,69.125 19.026,68.828 18.599,68.545 Z M19.297,79.451 C19.009,79.956 19.185,80.597 19.69,80.886 C19.854,80.978 20.033,81.023 20.209,81.023 C20.574,81.023 20.929,80.833 21.123,80.492 L21.232,80.3 C23.109,81.532 24.305,82.524 24.97,83.186 C23.465,82.869 20.537,81.84 16.536,79.724 L20.831,72.248 C21.528,72.602 22.209,72.917 22.866,73.194 L19.297,79.451 Z M26.814,72.28 C26.559,72.233 26.257,72.159 25.928,72.064 L26.15,71.676 C26.412,71.898 26.639,72.104 26.814,72.28 Z M25.497,68.58 C24.832,68.146 24.177,67.759 23.599,67.433 L25.567,64.01 C26.259,64.342 26.945,64.633 27.609,64.877 L25.497,68.58 Z M31.615,63.648 C31.383,63.648 31.093,63.62 30.772,63.57 L31.403,62.465 C31.859,62.961 32.111,63.356 32.176,63.587 C32.073,63.618 31.894,63.648 31.615,63.648 Z M45.555,53.132 C45.099,58.683 43.717,71.105 42.123,76.145 C41.45,75.44 40.529,74.75 39.469,74.188 C38.203,73.516 36.919,73.116 35.848,73.023 C36.875,69.651 37.736,64.726 38.282,60.514 L45.555,53.132 Z M37.834,77.267 C36.306,76.455 35.461,75.561 35.215,75.095 C35.681,75.046 36.986,75.246 38.483,76.042 C40.011,76.854 40.856,77.749 41.103,78.215 C40.629,78.26 39.329,78.061 37.834,77.267 Z M54.71,36.066 C54.522,36.459 54.329,36.844 54.135,37.229 C53.696,36.536 53.435,35.717 53.435,34.836 C53.435,32.811 54.793,31.114 56.641,30.56 C56.173,32.447 55.546,34.304 54.71,36.066 Z" id="path-3"></path>
        <filter x="-7.4%" y="-3.0%" width="114.8%" height="110.6%" filterUnits="objectBoundingBox" id="filter-4">
            <feGaussianBlur stdDeviation="0" in="SourceGraphic"></feGaussianBlur>
        </filter>
        <filter x="-12.4%" y="-6.5%" width="124.7%" height="117.7%" filterUnits="objectBoundingBox" id="filter-5">
            <feMorphology radius="0.5" operator="dilate" in="SourceAlpha" result="shadowSpreadOuter1"></feMorphology>
            <feOffset dx="0" dy="2" in="shadowSpreadOuter1" result="shadowOffsetOuter1"></feOffset>
            <feGaussianBlur stdDeviation="2" in="shadowOffsetOuter1" result="shadowBlurOuter1"></feGaussianBlur>
            <feComposite in="shadowBlurOuter1" in2="SourceAlpha" operator="out" result="shadowBlurOuter1"></feComposite>
            <feColorMatrix values="0 0 0 0 1   0 0 0 0 0.297619048   0 0 0 0 0  0 0 0 0.5 0" type="matrix" in="shadowBlurOuter1"></feColorMatrix>
        </filter>
    </defs>
    <g id="Page-1" stroke="none" stroke-width="1" fill="none" fill-rule="evenodd">
        <g id="rocket-copy" transform="translate(49.654156, 24.520181) rotate(60.000000) translate(-49.654156, -24.520181) translate(19.154156, -20.979819)" fill-rule="nonzero">
            <g id="Shape">
                <use fill="black" fill-opacity="1" filter="url(#filter-2)" xlink:href="#path-1"></use>
                <use stroke="#FF8957" stroke-width="1" fill="#FFA83B" fill-rule="evenodd" xlink:href="#path-1"></use>
            </g>
            <g id="Shape" filter="url(#filter-4)">
                <use fill="black" fill-opacity="1" filter="url(#filter-5)" xlink:href="#path-3"></use>
                <use stroke="#FF8957" stroke-width="1" fill="#FFA83B" fill-rule="evenodd" xlink:href="#path-3"></use>
            </g>
            <path d="M12.382,84.851 C11.877,84.564 11.236,84.741 10.949,85.245 L9.09,88.505 C8.803,89.01 8.978,89.65 9.483,89.939 C9.647,90.032 9.825,90.077 10.002,90.077 C10.367,90.077 10.722,89.887 10.916,89.546 L12.775,86.286 C13.062,85.78 12.887,85.14 12.382,84.851 Z" id="Shape" fill="#FFA83B"></path>
            <path d="M18.053,83.842 C17.549,83.55 16.907,83.727 16.621,84.234 L15.475,86.242 C15.187,86.745 15.362,87.387 15.867,87.674 C16.032,87.769 16.21,87.812 16.386,87.812 C16.751,87.812 17.106,87.624 17.299,87.283 L18.445,85.275 C18.733,84.769 18.558,84.129 18.053,83.842 Z" id="Shape" fill="#FFA83B"></path>
        </g>
    </g>
</svg>