
<svg width="120px" height="111px" viewBox="0 0 120 111" version="1.1" xmlns="http://www.w3.org/2000/svg" xmlns:xlink="http://www.w3.org/1999/xlink">
    <!-- Generator: Sketch 50.2 (55047) - http://www.bohemiancoding.com/sketch -->
    <desc>Created with Sketch.</desc>
    <defs>
        <path d="M60.387,23.215 C56.756,23.215 53.802,26.169 53.802,29.8 C53.802,33.431 56.756,36.384 60.387,36.384 C64.018,36.384 66.971,33.43 66.971,29.8 C66.971,26.17 64.018,23.215 60.387,23.215 Z M60.387,34.284 C57.914,34.284 55.903,32.273 55.903,29.8 C55.903,27.327 57.915,25.316 60.387,25.316 C62.859,25.316 64.871,27.327 64.871,29.8 C64.871,32.272 62.859,34.284 60.387,34.284 Z" id="path-1"></path>
        <filter x="-53.2%" y="-38.0%" width="206.3%" height="206.3%" filterUnits="objectBoundingBox" id="filter-2">
            <feOffset dx="0" dy="2" in="SourceAlpha" result="shadowOffsetOuter1"></feOffset>
            <feGaussianBlur stdDeviation="2" in="shadowOffsetOuter1" result="shadowBlurOuter1"></feGaussianBlur>
            <feColorMatrix values="0 0 0 0 1   0 0 0 0 0.537254902   0 0 0 0 0.341176471  0 0 0 0.5 0" type="matrix" in="shadowBlurOuter1"></feColorMatrix>
        </filter>
        <path d="M76.282,1.831 C75.776,1.542 75.135,1.718 74.85,2.223 L72.386,6.543 C69.231,7.442 56.36,12.008 49.768,19.816 C43.699,27.005 40.434,36.133 39.463,39.164 C39.377,39.199 39.279,39.242 39.159,39.303 C35.89,40.942 20.255,51.579 16.919,56.263 C16.743,56.397 16.598,56.54 16.503,56.68 C15.431,58.269 17.334,60.608 19.554,62.107 C21.08,63.135 22.699,63.751 23.883,63.751 C24.576,63.751 25.028,63.546 25.341,63.3 L25.368,63.319 C25.389,63.29 25.416,63.257 25.439,63.228 C25.558,63.122 25.657,63.011 25.729,62.904 C25.751,62.872 25.772,62.827 25.794,62.788 C27.392,60.904 30.815,57.981 35.02,54.9 C34.671,56.275 34.478,57.099 34.397,57.612 C34.146,58.357 34.279,59.518 35.891,61.155 C36.102,61.37 36.349,61.586 36.595,61.801 L34.201,66 C33.108,65.647 32.157,65.444 31.462,65.444 C30.374,65.444 29.895,65.916 29.686,66.311 C29.066,67.477 30.241,68.892 31.832,70.156 L30.094,73.204 C29.807,73.709 29.982,74.349 30.487,74.638 C30.651,74.731 30.83,74.776 31.006,74.776 C31.371,74.776 31.726,74.586 31.92,74.245 L33.553,71.382 C34.045,71.699 34.53,71.993 34.982,72.254 L32.627,76.352 C29.702,74.902 23.392,71.966 22.204,74.206 C21.712,75.129 21.871,76.495 26.492,79.572 L24.872,82.411 C24.584,82.916 24.759,83.556 25.264,83.843 C25.428,83.938 25.607,83.983 25.783,83.983 C26.148,83.983 26.503,83.793 26.696,83.452 L29.475,78.581 C29.763,78.078 29.588,77.435 29.083,77.148 C28.578,76.859 27.936,77.036 27.651,77.541 L27.534,77.746 C26.136,76.807 25.267,76.084 24.757,75.586 C25.996,75.842 28.283,76.591 31.574,78.185 L30.694,79.715 C30.679,79.707 30.67,79.7 30.653,79.691 C30.156,79.393 29.509,79.557 29.213,80.056 C28.917,80.554 29.08,81.199 29.578,81.495 C29.605,81.512 29.622,81.522 29.648,81.536 L28.553,83.442 C28.263,83.944 28.437,84.587 28.941,84.876 C29.106,84.971 29.285,85.016 29.463,85.016 C29.827,85.016 30.18,84.828 30.375,84.489 L31.49,82.549 C34.139,83.956 36.735,85.099 38.8,85.766 C39.843,86.104 40.925,86.395 41.814,86.395 C42.596,86.395 43.229,86.169 43.555,85.554 C43.819,85.06 44.581,83.576 38.275,79.481 L40.864,74.941 C41.909,75.271 42.82,75.462 43.492,75.462 C44.58,75.462 45.059,74.99 45.27,74.592 C45.876,73.449 44.757,72.065 43.213,70.82 L45.676,66.5 C46.389,66.662 47.049,66.755 47.616,66.755 C48.705,66.755 49.345,66.439 49.725,66.067 L49.764,66.104 L51.807,64.03 C51.085,68.764 50.179,72.759 49.326,74.917 C49.296,74.962 49.267,75.007 49.246,75.048 C49.187,75.159 49.131,75.301 49.091,75.467 C49.077,75.497 49.063,75.534 49.048,75.566 L49.071,75.576 C48.975,76.126 49.092,76.928 49.967,77.939 C50.649,78.727 51.671,79.504 52.848,80.127 C54.286,80.893 55.765,81.329 56.906,81.329 C58.303,81.329 58.864,80.667 59.073,80.272 C59.15,80.126 59.221,79.927 59.255,79.688 C61.82,74.51 63.861,55.759 63.774,52.11 C63.772,52.007 63.764,51.934 63.758,51.856 C65.468,49.745 68.868,45.258 71.716,39.762 L71.725,39.752 C71.724,39.751 71.723,39.751 71.723,39.75 C72.025,39.167 72.323,38.577 72.609,37.973 C78.025,26.556 75.351,10.957 74.252,7.518 L76.676,3.269 C76.962,2.759 76.786,2.118 76.282,1.831 Z M69.057,40.266 C66.602,44.687 63.875,48.328 62.333,50.259 C61.852,49.695 61.168,49.065 60.256,48.349 C58.331,46.838 55.625,45.131 52.636,43.544 C50.021,42.154 44.805,39.584 41.632,39.305 C42.395,37.037 44.12,32.405 46.889,27.627 C47.473,27.796 48.087,27.893 48.724,27.893 C52.355,27.893 55.309,24.939 55.309,21.308 C55.309,20.154 55.008,19.07 54.486,18.126 C56.475,16.457 58.723,14.979 60.969,13.716 C61.587,13.691 64.07,14.39 67.764,16.354 C71.587,18.384 73.579,20.102 73.797,20.571 C73.775,20.522 73.742,20.358 73.803,20.16 C73.857,23.037 73.688,26.179 73.122,29.306 C69.866,29.701 67.334,32.476 67.334,35.837 C67.334,37.542 67.989,39.095 69.057,40.266 Z M48.701,61.781 C47.551,60.611 45.857,59.405 43.936,58.385 C41.344,57.007 38.743,56.184 36.978,56.184 C36.942,56.184 36.913,56.188 36.876,56.191 C37.771,52.605 39.681,45.125 40.977,41.319 C42.055,41.271 45.85,42.316 51.651,45.397 C57.151,48.32 60.123,50.773 60.897,51.805 L49.764,63.105 C49.519,62.704 49.176,62.265 48.701,61.781 Z M72.414,8.694 C72.79,10.158 73.435,13.467 73.696,17.599 C72.424,16.619 70.677,15.522 68.749,14.498 C66.787,13.456 65.135,12.707 63.778,12.235 C67.481,10.402 70.816,9.189 72.414,8.694 Z M51.373,21.17 C51.832,20.627 52.335,20.105 52.858,19.593 C53.079,20.122 53.208,20.699 53.208,21.307 C53.208,23.78 51.196,25.791 48.724,25.791 C48.492,25.791 48.264,25.77 48.041,25.735 C49.038,24.172 50.146,22.623 51.373,21.17 Z M18.354,57.931 C18.932,57.931 20.102,58.269 21.505,59.215 C22.94,60.183 23.685,61.161 23.881,61.65 C23.303,61.648 22.133,61.311 20.73,60.366 C19.297,59.397 18.553,58.419 18.354,57.931 Z M35.797,51.756 C32.227,54.267 28.027,57.514 25.415,60.119 C24.834,59.223 23.881,58.283 22.681,57.473 C21.673,56.794 20.636,56.319 19.699,56.058 C23.417,52.261 33.854,45.136 38.5,42.157 C37.852,44.243 37.049,47.115 36.097,50.759 C36,51.126 35.912,51.465 35.826,51.797 L35.797,51.756 Z M36.417,58.349 C36.521,58.319 36.701,58.286 36.978,58.286 C38.088,58.286 40.24,58.801 42.951,60.241 C44.115,60.858 45.043,61.471 45.796,62.044 L44.665,64.025 C43.773,63.717 42.76,63.289 41.645,62.696 C40.738,62.215 39.969,61.736 39.314,61.277 L39.628,60.725 C39.915,60.222 39.74,59.58 39.235,59.293 C38.731,59.006 38.089,59.182 37.802,59.685 L37.657,59.937 C36.903,59.223 36.502,58.646 36.417,58.349 Z M38.274,63.098 C38.73,63.411 39.212,63.715 39.716,64.013 L37.737,67.455 C37.209,67.196 36.695,66.965 36.191,66.751 L38.274,63.098 Z M38.552,70.257 C39.266,70.659 39.899,71.049 40.45,71.418 L39.914,72.356 C39.284,72.099 38.603,71.792 37.878,71.428 L38.552,70.257 Z M32.139,67.616 C32.425,67.67 32.763,67.752 33.139,67.863 L32.892,68.296 C32.586,68.043 32.336,67.815 32.139,67.616 Z M34.599,69.545 L35.147,68.585 C35.631,68.786 36.148,69.02 36.689,69.28 L36.029,70.428 C35.506,70.125 35.026,69.828 34.599,69.545 Z M35.297,80.451 C35.009,80.956 35.185,81.597 35.69,81.886 C35.854,81.978 36.033,82.023 36.209,82.023 C36.574,82.023 36.929,81.833 37.123,81.492 L37.232,81.3 C39.109,82.532 40.305,83.524 40.97,84.186 C39.465,83.869 36.537,82.84 32.536,80.724 L36.831,73.248 C37.528,73.602 38.209,73.917 38.866,74.194 L35.297,80.451 Z M42.814,73.28 C42.559,73.233 42.257,73.159 41.928,73.064 L42.15,72.676 C42.412,72.898 42.639,73.104 42.814,73.28 Z M41.497,69.58 C40.832,69.146 40.177,68.759 39.599,68.433 L41.567,65.01 C42.259,65.342 42.945,65.633 43.609,65.877 L41.497,69.58 Z M47.615,64.648 C47.383,64.648 47.093,64.62 46.772,64.57 L47.403,63.465 C47.859,63.961 48.111,64.356 48.176,64.587 C48.073,64.618 47.894,64.648 47.615,64.648 Z M61.555,54.132 C61.099,59.683 59.717,72.105 58.123,77.145 C57.45,76.44 56.529,75.75 55.469,75.188 C54.203,74.516 52.919,74.116 51.848,74.023 C52.875,70.651 53.736,65.726 54.282,61.514 L61.555,54.132 Z M53.834,78.267 C52.306,77.455 51.461,76.561 51.215,76.095 C51.681,76.046 52.986,76.246 54.483,77.042 C56.011,77.854 56.856,78.749 57.103,79.215 C56.629,79.26 55.329,79.061 53.834,78.267 Z M70.71,37.066 C70.522,37.459 70.329,37.844 70.135,38.229 C69.696,37.536 69.435,36.717 69.435,35.836 C69.435,33.811 70.793,32.114 72.641,31.56 C72.173,33.447 71.546,35.304 70.71,37.066 Z" id="path-3"></path>
        <filter x="-6.6%" y="-2.4%" width="113.2%" height="109.4%" filterUnits="objectBoundingBox" id="filter-4">
            <feGaussianBlur stdDeviation="0" in="SourceGraphic"></feGaussianBlur>
        </filter>
        <filter x="-11.5%" y="-5.9%" width="123.1%" height="116.5%" filterUnits="objectBoundingBox" id="filter-5">
            <feOffset dx="0" dy="2" in="SourceAlpha" result="shadowOffsetOuter1"></feOffset>
            <feGaussianBlur stdDeviation="2" in="shadowOffsetOuter1" result="shadowBlurOuter1"></feGaussianBlur>
            <feColorMatrix values="0 0 0 0 1   0 0 0 0 0.297619048   0 0 0 0 0  0 0 0 0.5 0" type="matrix" in="shadowBlurOuter1"></feColorMatrix>
        </filter>
        <path d="M44.589,4.24 C44.936,4.503 45.232,5.139 45.211,5.573 C45.188,6.056 45.356,6.338 45.5,6.49 C45.669,6.668 45.9,6.765 46.151,6.765 C46.393,6.765 46.642,6.678 46.891,6.505 C47.234,6.267 47.963,6.18 48.352,6.325 C48.886,6.528 49.374,6.421 49.638,6.065 C49.837,5.797 49.879,5.423 49.756,5.014 C49.631,4.598 49.765,3.91 50.037,3.57 C50.349,3.182 50.433,2.756 50.267,2.403 C50.102,2.049 49.722,1.84 49.225,1.828 C48.789,1.818 48.175,1.478 47.938,1.115 C47.602,0.605 47.209,0.529 47.004,0.529 C46.573,0.529 46.209,0.836 46.029,1.349 C45.885,1.76 45.372,2.239 44.953,2.353 C44.474,2.484 44.156,2.778 44.081,3.162 C44.008,3.546 44.192,3.938 44.589,4.24 Z M45.231,3.367 C45.98,3.162 46.766,2.429 47.022,1.697 C47.027,1.683 47.032,1.67 47.038,1.658 C47.045,1.668 47.053,1.679 47.061,1.692 C47.485,2.34 48.425,2.862 49.203,2.88 C49.217,2.88 49.231,2.881 49.244,2.881 C49.236,2.891 49.228,2.903 49.218,2.915 C48.734,3.52 48.529,4.577 48.752,5.318 C48.756,5.333 48.759,5.345 48.762,5.358 C48.751,5.355 48.738,5.35 48.724,5.345 C48.011,5.075 46.912,5.215 46.293,5.644 C46.281,5.652 46.27,5.66 46.259,5.666 C46.258,5.653 46.259,5.64 46.259,5.624 C46.297,4.836 45.853,3.882 45.225,3.405 C45.213,3.396 45.203,3.387 45.193,3.379 C45.204,3.375 45.217,3.37 45.231,3.367 Z" id="path-6"></path>
        <filter x="-63.6%" y="-32.1%" width="227.3%" height="228.3%" filterUnits="objectBoundingBox" id="filter-7">
            <feGaussianBlur stdDeviation="0" in="SourceGraphic"></feGaussianBlur>
        </filter>
        <filter x="-111.4%" y="-80.2%" width="322.7%" height="324.5%" filterUnits="objectBoundingBox" id="filter-8">
            <feOffset dx="0" dy="2" in="SourceAlpha" result="shadowOffsetOuter1"></feOffset>
            <feGaussianBlur stdDeviation="2" in="shadowOffsetOuter1" result="shadowBlurOuter1"></feGaussianBlur>
            <feColorMatrix values="0 0 0 0 1   0 0 0 0 0.297619048   0 0 0 0 0  0 0 0 0.5 0" type="matrix" in="shadowBlurOuter1"></feColorMatrix>
        </filter>
        <path d="M9.453,25.547 C8.955,25.427 8.356,24.901 8.173,24.422 C7.882,23.658 7.356,23.575 7.143,23.575 C6.921,23.575 6.496,23.66 6.144,24.232 C5.875,24.668 5.19,25.074 4.678,25.101 C4.147,25.128 3.748,25.361 3.585,25.739 C3.422,26.118 3.526,26.568 3.871,26.973 C4.203,27.363 4.377,28.14 4.245,28.634 C4.093,29.194 4.24,29.545 4.391,29.741 C4.678,30.118 5.21,30.216 5.773,29.982 C6.221,29.796 7.065,29.875 7.472,30.141 C7.733,30.311 7.993,30.397 8.241,30.397 C8.513,30.397 8.76,30.292 8.938,30.099 C9.091,29.934 9.265,29.626 9.224,29.101 C9.186,28.599 9.508,27.853 9.899,27.537 C10.315,27.203 10.5,26.78 10.41,26.377 C10.32,25.975 9.971,25.672 9.453,25.547 Z M9.24,26.72 C8.579,27.253 8.113,28.335 8.178,29.181 C8.182,29.245 8.18,29.295 8.176,29.331 C8.143,29.319 8.1,29.297 8.045,29.261 C7.618,28.983 7.024,28.824 6.412,28.824 C6.03,28.824 5.671,28.888 5.373,29.011 C5.301,29.041 5.248,29.053 5.231,29.077 C5.232,29.04 5.237,28.985 5.259,28.909 C5.478,28.088 5.22,26.939 4.67,26.293 C4.623,26.237 4.594,26.192 4.571,26.175 C4.606,26.165 4.658,26.154 4.73,26.151 C5.579,26.108 6.594,25.507 7.038,24.784 C7.076,24.723 7.11,24.682 7.119,24.655 C7.14,24.686 7.166,24.732 7.192,24.8 C7.497,25.594 8.382,26.371 9.207,26.571 C9.276,26.588 9.326,26.607 9.354,26.608 C9.333,26.634 9.296,26.673 9.24,26.72 Z" id="path-9"></path>
        <filter x="-57.8%" y="-29.3%" width="215.6%" height="217.3%" filterUnits="objectBoundingBox" id="filter-10">
            <feGaussianBlur stdDeviation="0" in="SourceGraphic"></feGaussianBlur>
        </filter>
        <filter x="-101.1%" y="-73.3%" width="302.2%" height="305.2%" filterUnits="objectBoundingBox" id="filter-11">
            <feOffset dx="0" dy="2" in="SourceAlpha" result="shadowOffsetOuter1"></feOffset>
            <feGaussianBlur stdDeviation="2" in="shadowOffsetOuter1" result="shadowBlurOuter1"></feGaussianBlur>
            <feColorMatrix values="0 0 0 0 1   0 0 0 0 0.297619048   0 0 0 0 0  0 0 0 0.5 0" type="matrix" in="shadowBlurOuter1"></feColorMatrix>
        </filter>
        <path d="M85.737,85.059 C85.781,84.583 85.623,84.298 85.483,84.144 C85.171,83.804 84.639,83.769 84.144,84.081 C83.819,84.286 83.13,84.338 82.78,84.187 C82.265,83.968 81.776,84.056 81.506,84.401 C81.311,84.653 81.258,85.008 81.357,85.402 C81.456,85.794 81.303,86.425 81.036,86.729 C80.718,87.092 80.619,87.502 80.764,87.853 C80.91,88.206 81.269,88.425 81.751,88.458 C82.153,88.484 82.709,88.825 82.916,89.174 C83.229,89.703 83.626,89.783 83.834,89.783 C84.027,89.783 84.508,89.709 84.779,89.03 C84.929,88.654 85.427,88.23 85.82,88.141 C86.291,88.037 86.612,87.764 86.701,87.393 C86.792,87.023 86.63,86.633 86.261,86.324 C85.948,86.066 85.699,85.463 85.737,85.059 Z M83.81,88.624 C83.423,87.984 82.578,87.465 81.834,87.412 C82.323,86.846 82.556,85.884 82.378,85.157 C83.044,85.436 84.078,85.356 84.69,84.978 C84.628,85.721 85.003,86.636 85.573,87.12 C84.847,87.293 84.095,87.933 83.81,88.624 Z" id="path-12"></path>
        <filter x="-66.4%" y="-33.8%" width="232.7%" height="235.2%" filterUnits="objectBoundingBox" id="filter-13">
            <feGaussianBlur stdDeviation="0" in="SourceGraphic"></feGaussianBlur>
        </filter>
        <filter x="-116.1%" y="-84.5%" width="332.3%" height="336.6%" filterUnits="objectBoundingBox" id="filter-14">
            <feOffset dx="0" dy="2" in="SourceAlpha" result="shadowOffsetOuter1"></feOffset>
            <feGaussianBlur stdDeviation="2" in="shadowOffsetOuter1" result="shadowBlurOuter1"></feGaussianBlur>
            <feColorMatrix values="0 0 0 0 1   0 0 0 0 0.297619048   0 0 0 0 0  0 0 0 0.5 0" type="matrix" in="shadowBlurOuter1"></feColorMatrix>
        </filter>
        <path d="M5.454,82.883 C5.051,82.854 4.496,82.509 4.291,82.162 C3.978,81.629 3.58,81.549 3.372,81.549 C3.178,81.549 2.699,81.623 2.427,82.3 C2.274,82.675 1.776,83.096 1.383,83.184 C0.912,83.287 0.589,83.56 0.498,83.929 C0.408,84.298 0.567,84.69 0.937,84.999 C1.247,85.26 1.493,85.863 1.454,86.265 C1.408,86.744 1.566,87.029 1.706,87.182 C1.873,87.367 2.106,87.467 2.362,87.467 C2.582,87.467 2.812,87.396 3.043,87.25 C3.369,87.047 4.058,86.997 4.407,87.149 C4.92,87.373 5.411,87.286 5.683,86.937 C5.822,86.761 5.96,86.445 5.835,85.943 C5.738,85.548 5.894,84.915 6.162,84.613 C6.481,84.253 6.581,83.842 6.437,83.491 C6.294,83.139 5.935,82.917 5.454,82.883 Z M4.812,86.179 C4.147,85.9 3.111,85.978 2.501,86.352 C2.567,85.607 2.191,84.69 1.624,84.206 C2.351,84.038 3.106,83.4 3.395,82.709 C3.78,83.349 4.622,83.87 5.366,83.93 C4.875,84.49 4.64,85.453 4.812,86.179 Z" id="path-15"></path>
        <filter x="-66.4%" y="-33.8%" width="232.7%" height="235.2%" filterUnits="objectBoundingBox" id="filter-16">
            <feGaussianBlur stdDeviation="0" in="SourceGraphic"></feGaussianBlur>
        </filter>
        <filter x="-116.1%" y="-84.5%" width="332.2%" height="336.6%" filterUnits="objectBoundingBox" id="filter-17">
            <feOffset dx="0" dy="2" in="SourceAlpha" result="shadowOffsetOuter1"></feOffset>
            <feGaussianBlur stdDeviation="2" in="shadowOffsetOuter1" result="shadowBlurOuter1"></feGaussianBlur>
            <feColorMatrix values="0 0 0 0 1   0 0 0 0 0.297619048   0 0 0 0 0  0 0 0 0.5 0" type="matrix" in="shadowBlurOuter1"></feColorMatrix>
        </filter>
        <path d="M87.594,48.427 C87.24,48.072 86.999,47.296 87.091,46.801 C87.194,46.252 87.034,45.92 86.882,45.737 C86.573,45.365 86.023,45.296 85.46,45.578 C85.253,45.683 84.955,45.744 84.642,45.744 C84.301,45.744 83.979,45.674 83.756,45.554 C83.198,45.252 82.64,45.309 82.321,45.682 C82.169,45.86 82.005,46.185 82.089,46.727 C82.167,47.226 81.905,47.995 81.539,48.34 C81.152,48.707 81.001,49.144 81.123,49.538 C81.244,49.932 81.615,50.204 82.141,50.288 C82.639,50.368 83.289,50.854 83.506,51.309 C83.736,51.795 84.109,52.077 84.527,52.077 C84.934,52.077 85.304,51.808 85.545,51.341 C85.778,50.883 86.43,50.424 86.938,50.359 C87.466,50.291 87.844,50.026 87.978,49.636 C88.109,49.245 87.97,48.807 87.594,48.427 Z M86.801,49.315 C85.959,49.425 84.996,50.104 84.609,50.859 C84.58,50.917 84.552,50.958 84.53,50.987 C84.509,50.958 84.481,50.917 84.454,50.857 C84.09,50.09 83.146,49.384 82.308,49.249 C82.24,49.239 82.19,49.225 82.162,49.225 C82.16,49.225 82.159,49.225 82.158,49.225 C82.177,49.195 82.211,49.154 82.263,49.102 C82.879,48.52 83.26,47.404 83.128,46.564 C83.117,46.494 83.117,46.44 83.107,46.414 C83.141,46.422 83.19,46.44 83.255,46.476 C83.632,46.682 84.124,46.795 84.642,46.795 C84.643,46.795 84.643,46.795 84.643,46.795 C85.122,46.795 85.582,46.695 85.937,46.516 C86.002,46.482 86.051,46.467 86.074,46.45 C86.077,46.486 86.074,46.539 86.061,46.609 C85.904,47.444 86.251,48.57 86.852,49.171 C86.903,49.222 86.935,49.265 86.959,49.281 C86.924,49.293 86.873,49.307 86.801,49.315 Z" id="path-18"></path>
        <filter x="-57.6%" y="-29.8%" width="215.2%" height="219.1%" filterUnits="objectBoundingBox" id="filter-19">
            <feGaussianBlur stdDeviation="0" in="SourceGraphic"></feGaussianBlur>
        </filter>
        <filter x="-100.8%" y="-74.4%" width="301.6%" height="308.4%" filterUnits="objectBoundingBox" id="filter-20">
            <feOffset dx="0" dy="2" in="SourceAlpha" result="shadowOffsetOuter1"></feOffset>
            <feGaussianBlur stdDeviation="2" in="shadowOffsetOuter1" result="shadowBlurOuter1"></feGaussianBlur>
            <feColorMatrix values="0 0 0 0 1   0 0 0 0 0.297619048   0 0 0 0 0  0 0 0 0.5 0" type="matrix" in="shadowBlurOuter1"></feColorMatrix>
        </filter>
    </defs>
    <g id="Page-1" stroke="none" stroke-width="1" fill="none" fill-rule="evenodd">
        <g id="rocket" transform="translate(63.500000, 49.000000) rotate(60.000000) translate(-63.500000, -49.000000) translate(19.000000, 3.000000)" fill-rule="nonzero">
            <g id="Shape">
                <use fill="black" fill-opacity="1" filter="url(#filter-2)" xlink:href="#path-1"></use>
                <use fill="#FFFDFD" fill-rule="evenodd" xlink:href="#path-1"></use>
            </g>
            <g id="Shape" filter="url(#filter-4)">
                <use fill="black" fill-opacity="1" filter="url(#filter-5)" xlink:href="#path-3"></use>
                <use fill="#FFFDFD" fill-rule="evenodd" xlink:href="#path-3"></use>
            </g>
            <path d="M28.382,85.851 C27.877,85.564 27.236,85.741 26.949,86.245 L25.09,89.505 C24.803,90.01 24.978,90.65 25.483,90.939 C25.647,91.032 25.825,91.077 26.002,91.077 C26.367,91.077 26.722,90.887 26.916,90.546 L28.775,87.286 C29.062,86.78 28.887,86.14 28.382,85.851 Z" id="Shape" fill="#FFFDFD"></path>
            <path d="M34.053,84.842 C33.549,84.55 32.907,84.727 32.621,85.234 L31.475,87.242 C31.187,87.745 31.362,88.387 31.867,88.674 C32.032,88.769 32.21,88.812 32.386,88.812 C32.751,88.812 33.106,88.624 33.299,88.283 L34.445,86.275 C34.733,85.769 34.558,85.129 34.053,84.842 Z" id="Shape" fill="#FFFDFD"></path>
            <g id="Shape" filter="url(#filter-7)">
                <use fill="black" fill-opacity="1" filter="url(#filter-8)" xlink:href="#path-6"></use>
                <use fill="#FFFDFD" fill-rule="evenodd" xlink:href="#path-6"></use>
            </g>
            <g id="Shape" filter="url(#filter-10)">
                <use fill="black" fill-opacity="1" filter="url(#filter-11)" xlink:href="#path-9"></use>
                <use fill="#FFFDFD" fill-rule="evenodd" xlink:href="#path-9"></use>
            </g>
            <g id="Shape" filter="url(#filter-13)">
                <use fill="black" fill-opacity="1" filter="url(#filter-14)" xlink:href="#path-12"></use>
                <use fill="#FFFDFD" fill-rule="evenodd" xlink:href="#path-12"></use>
            </g>
            <g id="Shape" filter="url(#filter-16)">
                <use fill="black" fill-opacity="1" filter="url(#filter-17)" xlink:href="#path-15"></use>
                <use fill="#FFFDFD" fill-rule="evenodd" xlink:href="#path-15"></use>
            </g>
            <g id="Shape" filter="url(#filter-19)">
                <use fill="black" fill-opacity="1" filter="url(#filter-20)" xlink:href="#path-18"></use>
                <use fill="#FFFDFD" fill-rule="evenodd" xlink:href="#path-18"></use>
            </g>
        </g>
    </g>
</svg>