
<svg width="62px" height="71px" viewBox="0 0 62 71" version="1.1" xmlns="http://www.w3.org/2000/svg" xmlns:xlink="http://www.w3.org/1999/xlink">
    <!-- Generator: Sketch 50.2 (55047) - http://www.bohemiancoding.com/sketch -->
    <desc>Created with Sketch.</desc>
    <defs>
        <path d="M29.95517,43.72129 C29.95517,40.9813 28.9252,38.5413 28.22519,37.21128 C27.53519,38.5413 26.49521,40.9813 26.49521,43.72129 C26.49521,45.34129 26.65518,46.88126 26.93521,48.17124 L29.52518,48.17124 C29.80521,46.88126 29.95517,45.34129 29.95517,43.72129 Z" id="path-1"></path>
        <filter x="-231.2%" y="-36.5%" width="562.4%" height="246.0%" filterUnits="objectBoundingBox" id="filter-2">
            <feOffset dx="0" dy="4" in="SourceAlpha" result="shadowOffsetOuter1"></feOffset>
            <feGaussianBlur stdDeviation="2" in="shadowOffsetOuter1" result="shadowBlurOuter1"></feGaussianBlur>
            <feColorMatrix values="0 0 0 0 1   0 0 0 0 0.29857337   0 0 0 0 0  0 0 0 0.730015851 0" type="matrix" in="shadowBlurOuter1"></feColorMatrix>
        </filter>
        <path d="M27.38516,0.49125 C26.77517,1.16129 21.4252,7.16129 21.4252,10.53129 L21.4252,11.87126 L34.44522,11.87126 L34.44522,10.53129 C34.44522,7.16129 29.10519,1.16129 28.49521,0.49125 C28.20517,0.18125 27.66519,0.18125 27.38516,0.49125 Z" id="path-3"></path>
        <filter x="-61.4%" y="-34.4%" width="222.9%" height="237.8%" filterUnits="objectBoundingBox" id="filter-4">
            <feOffset dx="0" dy="4" in="SourceAlpha" result="shadowOffsetOuter1"></feOffset>
            <feGaussianBlur stdDeviation="2" in="shadowOffsetOuter1" result="shadowBlurOuter1"></feGaussianBlur>
            <feColorMatrix values="0 0 0 0 1   0 0 0 0 0.29857337   0 0 0 0 0  0 0 0 0.5 0" type="matrix" in="shadowBlurOuter1"></feColorMatrix>
        </filter>
        <path d="M27.93521,19.31126 C28.72519,19.31126 29.3652,18.67125 29.3652,17.89128 C29.3652,17.11125 28.72519,16.4713 27.93521,16.4713 C27.15518,16.4713 26.51516,17.11125 26.51516,17.89128 C26.51517,18.67124 27.15518,19.31126 27.93521,19.31126 Z" id="path-5"></path>
        <filter x="-280.7%" y="-140.8%" width="661.4%" height="663.4%" filterUnits="objectBoundingBox" id="filter-6">
            <feOffset dx="0" dy="4" in="SourceAlpha" result="shadowOffsetOuter1"></feOffset>
            <feGaussianBlur stdDeviation="2" in="shadowOffsetOuter1" result="shadowBlurOuter1"></feGaussianBlur>
            <feColorMatrix values="0 0 0 0 1   0 0 0 0 0.29857337   0 0 0 0 0  0 0 0 0.5 0" type="matrix" in="shadowBlurOuter1"></feColorMatrix>
        </filter>
        <path d="M21.4252,26.21128 L34.44522,26.21128 L34.44522,13.37125 L21.4252,13.37125 L21.4252,26.21128 Z M27.93521,14.97129 C29.5452,14.97129 30.8652,16.28129 30.8652,17.89127 C30.8652,19.24125 29.93521,20.38126 28.68521,20.71128 L28.68521,23.76127 C28.68521,24.17124 28.35519,24.51127 27.93521,24.51127 C27.52518,24.51127 27.18521,24.17124 27.18521,23.76127 L27.18521,20.71128 C25.93521,20.38126 25.01516,19.24125 25.01516,17.89127 C25.01517,16.28129 26.32516,14.97129 27.93521,14.97129 Z" id="path-7"></path>
        <filter x="-61.4%" y="-31.2%" width="222.9%" height="224.6%" filterUnits="objectBoundingBox" id="filter-8">
            <feOffset dx="0" dy="4" in="SourceAlpha" result="shadowOffsetOuter1"></feOffset>
            <feGaussianBlur stdDeviation="2" in="shadowOffsetOuter1" result="shadowBlurOuter1"></feGaussianBlur>
            <feColorMatrix values="0 0 0 0 1   0 0 0 0 0.29857337   0 0 0 0 0  0 0 0 0.5 0" type="matrix" in="shadowBlurOuter1"></feColorMatrix>
        </filter>
        <path d="M21.4252,47.42124 C21.4252,47.83127 21.76517,48.17124 22.1752,48.17124 L25.40518,48.17124 C25.13516,46.85129 24.99521,45.31125 24.99521,43.72129 C24.99521,39.13126 27.50522,35.46128 27.61521,35.30125 C27.88517,34.90129 28.56522,34.90129 28.84519,35.30125 C28.94523,35.46128 31.45518,39.13127 31.45518,43.72129 C31.45518,45.31126 31.31523,46.85129 31.05522,48.17124 L33.69523,48.17124 C34.11521,48.17124 34.44523,47.83127 34.44523,47.42124 L34.44523,27.71128 L21.4252,27.71128 L21.4252,47.42124 Z" id="path-9"></path>
        <filter x="-61.4%" y="-19.6%" width="222.9%" height="178.2%" filterUnits="objectBoundingBox" id="filter-10">
            <feOffset dx="0" dy="4" in="SourceAlpha" result="shadowOffsetOuter1"></feOffset>
            <feGaussianBlur stdDeviation="2" in="shadowOffsetOuter1" result="shadowBlurOuter1"></feGaussianBlur>
            <feColorMatrix values="0 0 0 0 1   0 0 0 0 0.29857337   0 0 0 0 0  0 0 0 0.5 0" type="matrix" in="shadowBlurOuter1"></feColorMatrix>
        </filter>
        <path d="M15.2352,35.05125 C13.65518,37.70127 13.31522,47.15129 13.28519,48.22129 C13.26517,48.57127 13.49521,48.88126 13.83518,48.97129 C13.89518,48.99125 13.96518,49.00126 14.03519,49.00126 C14.30521,49.00126 14.55521,48.8513 14.69522,48.6013 C15.97519,46.2213 17.8652,44.76127 19.4252,44.28129 L19.4252,32.27128 C17.76517,33.01127 15.83517,34.0413 15.2352,35.05125 Z" id="path-11"></path>
        <filter x="-130.3%" y="-23.9%" width="360.5%" height="195.6%" filterUnits="objectBoundingBox" id="filter-12">
            <feOffset dx="0" dy="4" in="SourceAlpha" result="shadowOffsetOuter1"></feOffset>
            <feGaussianBlur stdDeviation="2" in="shadowOffsetOuter1" result="shadowBlurOuter1"></feGaussianBlur>
            <feColorMatrix values="0 0 0 0 1   0 0 0 0 0.29857337   0 0 0 0 0  0 0 0 0.5 0" type="matrix" in="shadowBlurOuter1"></feColorMatrix>
        </filter>
        <path d="M40.64517,35.0413 C40.04519,34.03129 38.1152,33.00126 36.44522,32.27128 L36.44522,44.28129 C38.00522,44.75126 39.89517,46.21128 41.18521,48.6013 C41.31521,48.8513 41.57516,49.00126 41.84518,49.00126 C41.85519,49.00126 41.85519,49.00126 41.8652,49.00126 C42.27517,49.00126 42.6152,48.66129 42.6152,48.25126 C42.6152,48.18125 42.60519,48.11125 42.58517,48.05125 C42.52518,46.39127 42.15518,37.59129 40.64517,35.0413 Z" id="path-13"></path>
        <filter x="-129.7%" y="-23.9%" width="359.3%" height="195.6%" filterUnits="objectBoundingBox" id="filter-14">
            <feOffset dx="0" dy="4" in="SourceAlpha" result="shadowOffsetOuter1"></feOffset>
            <feGaussianBlur stdDeviation="2" in="shadowOffsetOuter1" result="shadowBlurOuter1"></feGaussianBlur>
            <feColorMatrix values="0 0 0 0 1   0 0 0 0 0.29857337   0 0 0 0 0  0 0 0 0.5 0" type="matrix" in="shadowBlurOuter1"></feColorMatrix>
        </filter>
        <path d="M49.1691,35.32957 C48.75504,35.32957 48.4191,35.66551 48.4191,36.07957 L48.4191,42.05516 C48.4191,42.46922 48.75504,42.80516 49.1691,42.80516 C49.58316,42.80516 49.9191,42.46922 49.9191,42.05516 L49.9191,36.07957 C49.9191,35.6655 49.58316,35.32957 49.1691,35.32957 Z" id="path-15"></path>
        <filter x="-533.3%" y="-53.5%" width="1166.7%" height="314.0%" filterUnits="objectBoundingBox" id="filter-16">
            <feOffset dx="0" dy="4" in="SourceAlpha" result="shadowOffsetOuter1"></feOffset>
            <feGaussianBlur stdDeviation="2" in="shadowOffsetOuter1" result="shadowBlurOuter1"></feGaussianBlur>
            <feColorMatrix values="0 0 0 0 1   0 0 0 0 0.29857337   0 0 0 0 0  0 0 0 0.5 0" type="matrix" in="shadowBlurOuter1"></feColorMatrix>
        </filter>
        <path d="M8.923,43.23093 C8.50894,43.23093 8.173,43.56687 8.173,43.98093 L8.173,49.95652 C8.173,50.37058 8.50894,50.70652 8.923,50.70652 C9.33706,50.70652 9.673,50.37058 9.673,49.95652 L9.673,43.98093 C9.673,43.56687 9.33707,43.23093 8.923,43.23093 Z" id="path-17"></path>
        <filter x="-533.3%" y="-53.5%" width="1166.7%" height="314.0%" filterUnits="objectBoundingBox" id="filter-18">
            <feOffset dx="0" dy="4" in="SourceAlpha" result="shadowOffsetOuter1"></feOffset>
            <feGaussianBlur stdDeviation="2" in="shadowOffsetOuter1" result="shadowBlurOuter1"></feGaussianBlur>
            <feColorMatrix values="0 0 0 0 1   0 0 0 0 0.29857337   0 0 0 0 0  0 0 0 0.5 0" type="matrix" in="shadowBlurOuter1"></feColorMatrix>
        </filter>
        <path d="M48.4191,48.24851 C48.4191,48.66257 48.75504,48.99851 49.1691,48.99851 C49.58316,48.99851 49.9191,48.66257 49.9191,48.24851 L49.9191,45.20652 C49.9191,44.79246 49.58316,44.45652 49.1691,44.45652 C48.75504,44.45652 48.4191,44.79246 48.4191,45.20652 L48.4191,48.24851 Z" id="path-19"></path>
        <filter x="-533.3%" y="-88.1%" width="1166.7%" height="452.3%" filterUnits="objectBoundingBox" id="filter-20">
            <feOffset dx="0" dy="4" in="SourceAlpha" result="shadowOffsetOuter1"></feOffset>
            <feGaussianBlur stdDeviation="2" in="shadowOffsetOuter1" result="shadowBlurOuter1"></feGaussianBlur>
            <feColorMatrix values="0 0 0 0 1   0 0 0 0 0.29857337   0 0 0 0 0  0 0 0 0.5 0" type="matrix" in="shadowBlurOuter1"></feColorMatrix>
        </filter>
        <path d="M8.923,52.43015 C8.50894,52.43015 8.173,52.76609 8.173,53.18015 L8.173,54.91843 C8.173,55.33249 8.50894,55.66843 8.923,55.66843 C9.33706,55.66843 9.673,55.33249 9.673,54.91843 L9.673,53.18015 C9.673,52.76609 9.33707,52.43015 8.923,52.43015 Z" id="path-21"></path>
        <filter x="-533.3%" y="-123.5%" width="1166.7%" height="594.1%" filterUnits="objectBoundingBox" id="filter-22">
            <feOffset dx="0" dy="4" in="SourceAlpha" result="shadowOffsetOuter1"></feOffset>
            <feGaussianBlur stdDeviation="2" in="shadowOffsetOuter1" result="shadowBlurOuter1"></feGaussianBlur>
            <feColorMatrix values="0 0 0 0 1   0 0 0 0 0.29857337   0 0 0 0 0  0 0 0 0.5 0" type="matrix" in="shadowBlurOuter1"></feColorMatrix>
        </filter>
        <path d="M27.93521,50.7313 C27.2352,50.7313 25.91519,51.00126 25.91519,52.05125 C25.91519,53.78129 27.21518,55.31126 27.93521,56.0413 C28.65518,55.31126 29.95517,53.77128 29.95517,52.05125 C29.95517,51.00126 28.63516,50.7313 27.93521,50.7313 Z" id="path-23"></path>
        <filter x="-198.0%" y="-75.3%" width="496.0%" height="401.3%" filterUnits="objectBoundingBox" id="filter-24">
            <feOffset dx="0" dy="4" in="SourceAlpha" result="shadowOffsetOuter1"></feOffset>
            <feGaussianBlur stdDeviation="2" in="shadowOffsetOuter1" result="shadowBlurOuter1"></feGaussianBlur>
            <feColorMatrix values="0 0 0 0 1   0 0 0 0 0.29857337   0 0 0 0 0  0 0 0 0.5 0" type="matrix" in="shadowBlurOuter1"></feColorMatrix>
        </filter>
        <path d="M27.93521,49.2313 C25.03518,49.2313 22.09518,50.7913 22.09518,53.7913 C22.09518,59.17124 27.24521,63.40129 27.46518,63.58128 C27.60519,63.69127 27.77518,63.74125 27.93521,63.74125 C28.10519,63.74125 28.27518,63.69126 28.40518,63.58128 C28.62521,63.40129 33.78518,59.17125 33.78518,53.7913 C33.78519,50.7913 30.84518,49.2313 27.93521,49.2313 Z M28.40518,57.64127 C28.27518,57.75126 28.10519,57.81125 27.93521,57.81125 C27.77518,57.81125 27.60519,57.75125 27.46518,57.64127 C27.34518,57.54129 24.41519,55.14127 24.41519,52.05124 C24.41519,48.34128 31.45517,48.34128 31.45517,52.05124 C31.45517,55.14127 28.53519,57.5413 28.40518,57.64127 Z" id="path-25"></path>
        <filter x="-68.4%" y="-27.6%" width="236.9%" height="210.3%" filterUnits="objectBoundingBox" id="filter-26">
            <feOffset dx="0" dy="4" in="SourceAlpha" result="shadowOffsetOuter1"></feOffset>
            <feGaussianBlur stdDeviation="2" in="shadowOffsetOuter1" result="shadowBlurOuter1"></feGaussianBlur>
            <feColorMatrix values="0 0 0 0 1   0 0 0 0 0.29857337   0 0 0 0 0  0 0 0 0.5 0" type="matrix" in="shadowBlurOuter1"></feColorMatrix>
        </filter>
        <path d="M13.50015,17.33933 C13.79322,17.6324 14.26772,17.63231 14.5607,17.33933 C14.85367,17.04636 14.85367,16.57175 14.5607,16.27878 L13.4025,15.12058 L14.5607,13.96238 C14.85367,13.66941 14.85367,13.1948 14.5607,12.90183 C14.26773,12.60886 13.79312,12.60886 13.50015,12.90183 L12.34195,14.06003 L11.18375,12.90183 C10.89078,12.60886 10.41617,12.60886 10.1232,12.90183 C9.83023,13.1948 9.83023,13.66941 10.1232,13.96238 L11.2814,15.12058 L10.1232,16.27878 C9.83023,16.57175 9.83023,17.04636 10.1232,17.33933 C10.41627,17.6324 10.89077,17.63231 11.18375,17.33933 L12.34195,16.18113 L13.50015,17.33933 Z" id="path-27"></path>
        <filter x="-164.0%" y="-82.0%" width="428.1%" height="428.1%" filterUnits="objectBoundingBox" id="filter-28">
            <feOffset dx="0" dy="4" in="SourceAlpha" result="shadowOffsetOuter1"></feOffset>
            <feGaussianBlur stdDeviation="2" in="shadowOffsetOuter1" result="shadowBlurOuter1"></feGaussianBlur>
            <feColorMatrix values="0 0 0 0 1   0 0 0 0 0.29857337   0 0 0 0 0  0 0 0 0.5 0" type="matrix" in="shadowBlurOuter1"></feColorMatrix>
        </filter>
        <path d="M52.70328,51.4282 C52.41031,51.13523 51.9357,51.13523 51.64273,51.4282 L50.48502,52.58591 L49.3273,51.4282 C49.03433,51.13523 48.55972,51.13523 48.26675,51.4282 C47.97378,51.72117 47.97378,52.19578 48.26675,52.48875 L49.42446,53.64646 L48.26675,54.80417 C47.97378,55.09714 47.97378,55.57175 48.26675,55.86472 C48.55982,56.1578 49.03432,56.1577 49.3273,55.86472 L50.48501,54.70701 L51.64272,55.86472 C51.93579,56.1578 52.41029,56.1577 52.70327,55.86472 C52.99624,55.57175 52.99624,55.09714 52.70327,54.80417 L51.54556,53.64646 L52.70327,52.48875 C52.99625,52.19578 52.99625,51.72117 52.70328,51.4282 Z" id="path-29"></path>
        <filter x="-164.1%" y="-82.0%" width="428.1%" height="428.1%" filterUnits="objectBoundingBox" id="filter-30">
            <feOffset dx="0" dy="4" in="SourceAlpha" result="shadowOffsetOuter1"></feOffset>
            <feGaussianBlur stdDeviation="2" in="shadowOffsetOuter1" result="shadowBlurOuter1"></feGaussianBlur>
            <feColorMatrix values="0 0 0 0 1   0 0 0 0 0.29857337   0 0 0 0 0  0 0 0 0.5 0" type="matrix" in="shadowBlurOuter1"></feColorMatrix>
        </filter>
        <path d="M13.8771,25.30222 C14.29116,25.30222 14.58023,24.96628 14.58023,24.55222 C14.58023,24.13816 14.19644,23.80222 13.78238,23.80222 C13.36832,23.80222 13.03238,24.13816 13.03238,24.55222 C13.03238,24.96628 13.36832,25.30222 13.78238,25.30222 L13.8771,25.30222 Z" id="path-31"></path>
        <filter x="-516.8%" y="-266.7%" width="1133.7%" height="1166.7%" filterUnits="objectBoundingBox" id="filter-32">
            <feOffset dx="0" dy="4" in="SourceAlpha" result="shadowOffsetOuter1"></feOffset>
            <feGaussianBlur stdDeviation="2" in="shadowOffsetOuter1" result="shadowBlurOuter1"></feGaussianBlur>
            <feColorMatrix values="0 0 0 0 1   0 0 0 0 0.29857337   0 0 0 0 0  0 0 0 0.5 0" type="matrix" in="shadowBlurOuter1"></feColorMatrix>
        </filter>
        <path d="M41.79703,10.22117 L41.89273,10.22117 C42.30679,10.22117 42.59488,9.88523 42.59488,9.47117 C42.59488,9.05711 42.21109,8.72117 41.79703,8.72117 C41.38297,8.72117 41.04703,9.05711 41.04703,9.47117 C41.04703,9.88523 41.38297,10.22117 41.79703,10.22117 Z" id="path-33"></path>
        <filter x="-516.8%" y="-266.7%" width="1133.7%" height="1166.7%" filterUnits="objectBoundingBox" id="filter-34">
            <feOffset dx="0" dy="4" in="SourceAlpha" result="shadowOffsetOuter1"></feOffset>
            <feGaussianBlur stdDeviation="2" in="shadowOffsetOuter1" result="shadowBlurOuter1"></feGaussianBlur>
            <feColorMatrix values="0 0 0 0 1   0 0 0 0 0.29857337   0 0 0 0 0  0 0 0 0.5 0" type="matrix" in="shadowBlurOuter1"></feColorMatrix>
        </filter>
        <path d="M50.63394,29.71336 L50.72867,29.71336 C51.14273,29.71336 51.4318,29.37742 51.4318,28.96336 C51.4318,28.5493 51.04801,28.21336 50.63395,28.21336 C50.21989,28.21336 49.88395,28.5493 49.88395,28.96336 C49.88395,29.37742 50.21988,29.71336 50.63394,29.71336 Z" id="path-35"></path>
        <filter x="-516.8%" y="-266.7%" width="1133.7%" height="1166.7%" filterUnits="objectBoundingBox" id="filter-36">
            <feOffset dx="0" dy="4" in="SourceAlpha" result="shadowOffsetOuter1"></feOffset>
            <feGaussianBlur stdDeviation="2" in="shadowOffsetOuter1" result="shadowBlurOuter1"></feGaussianBlur>
            <feColorMatrix values="0 0 0 0 1   0 0 0 0 0.29857337   0 0 0 0 0  0 0 0 0.5 0" type="matrix" in="shadowBlurOuter1"></feColorMatrix>
        </filter>
        <path d="M4.22085,8.26511 L4.31655,8.26511 C4.73061,8.26511 5.0187,7.92917 5.0187,7.51511 C5.0187,7.10105 4.63491,6.76511 4.22085,6.76511 C3.80679,6.76511 3.47085,7.10105 3.47085,7.51511 C3.47085,7.92917 3.80679,8.26511 4.22085,8.26511 Z" id="path-37"></path>
        <filter x="-516.8%" y="-266.7%" width="1133.7%" height="1166.7%" filterUnits="objectBoundingBox" id="filter-38">
            <feOffset dx="0" dy="4" in="SourceAlpha" result="shadowOffsetOuter1"></feOffset>
            <feGaussianBlur stdDeviation="2" in="shadowOffsetOuter1" result="shadowBlurOuter1"></feGaussianBlur>
            <feColorMatrix values="0 0 0 0 1   0 0 0 0 0.29857337   0 0 0 0 0  0 0 0 0.5 0" type="matrix" in="shadowBlurOuter1"></feColorMatrix>
        </filter>
        <path d="M9.15518,31.28129 C9.15518,31.01127 9.00522,30.76127 8.76517,30.63127 L6.66519,29.48131 L5.51517,27.38127 C5.25522,26.90129 4.46518,26.90129 4.20517,27.38127 L3.05521,29.4813 L0.95517,30.63126 C0.71518,30.76126 0.56522,31.01126 0.56522,31.28128 C0.56522,31.56125 0.71518,31.81125 0.95517,31.94125 L3.05521,33.09127 L4.20517,35.19125 C4.33517,35.43124 4.58517,35.58126 4.85519,35.58126 C5.13516,35.58126 5.38516,35.43124 5.51516,35.19125 L6.66518,33.09127 L8.76516,31.94125 C9.00522,31.81126 9.15518,31.56126 9.15518,31.28129 Z" id="path-39"></path>
        <filter x="-93.1%" y="-46.7%" width="286.3%" height="286.9%" filterUnits="objectBoundingBox" id="filter-40">
            <feOffset dx="0" dy="4" in="SourceAlpha" result="shadowOffsetOuter1"></feOffset>
            <feGaussianBlur stdDeviation="2" in="shadowOffsetOuter1" result="shadowBlurOuter1"></feGaussianBlur>
            <feColorMatrix values="0 0 0 0 1   0 0 0 0 0.29857337   0 0 0 0 0  0 0 0 0.5 0" type="matrix" in="shadowBlurOuter1"></feColorMatrix>
        </filter>
        <path d="M55.0452,15.70127 L52.94522,14.55125 L51.7952,12.45127 C51.53519,11.97129 50.74521,11.97129 50.47519,12.45127 L49.33518,14.55125 L47.2352,15.70127 C46.7231,15.97868 46.70839,16.72589 47.2352,17.01127 L49.33518,18.16129 L50.47519,20.26127 C50.78803,20.79749 51.52291,20.76391 51.7952,20.26127 L52.94522,18.16129 L55.0452,17.01127 C55.57177,16.72602 55.55748,15.97878 55.0452,15.70127 Z" id="path-41"></path>
        <filter x="-93.1%" y="-46.7%" width="286.3%" height="286.9%" filterUnits="objectBoundingBox" id="filter-42">
            <feOffset dx="0" dy="4" in="SourceAlpha" result="shadowOffsetOuter1"></feOffset>
            <feGaussianBlur stdDeviation="2" in="shadowOffsetOuter1" result="shadowBlurOuter1"></feGaussianBlur>
            <feColorMatrix values="0 0 0 0 1   0 0 0 0 0.29857337   0 0 0 0 0  0 0 0 0.5 0" type="matrix" in="shadowBlurOuter1"></feColorMatrix>
        </filter>
    </defs>
    <g id="Page-1" stroke="none" stroke-width="1" fill="none" fill-rule="evenodd">
        <g id="noun_Rocket_2549420" transform="translate(3.000000, 0.000000)" fill-rule="nonzero">
            <g id="Shape">
                <use fill="black" fill-opacity="1" filter="url(#filter-2)" xlink:href="#path-1"></use>
                <use fill="#FFF8EE" fill-rule="evenodd" xlink:href="#path-1"></use>
            </g>
            <g id="Shape">
                <use fill="black" fill-opacity="1" filter="url(#filter-4)" xlink:href="#path-3"></use>
                <use fill="#FFF8EE" fill-rule="evenodd" xlink:href="#path-3"></use>
            </g>
            <g id="Shape">
                <use fill="black" fill-opacity="1" filter="url(#filter-6)" xlink:href="#path-5"></use>
                <use fill="#FFF8EE" fill-rule="evenodd" xlink:href="#path-5"></use>
            </g>
            <g id="Shape">
                <use fill="black" fill-opacity="1" filter="url(#filter-8)" xlink:href="#path-7"></use>
                <use fill="#FFF8EE" fill-rule="evenodd" xlink:href="#path-7"></use>
            </g>
            <g id="Shape">
                <use fill="black" fill-opacity="1" filter="url(#filter-10)" xlink:href="#path-9"></use>
                <use fill="#FFF8EE" fill-rule="evenodd" xlink:href="#path-9"></use>
            </g>
            <g id="Shape">
                <use fill="black" fill-opacity="1" filter="url(#filter-12)" xlink:href="#path-11"></use>
                <use fill="#FFF8EE" fill-rule="evenodd" xlink:href="#path-11"></use>
            </g>
            <g id="Shape">
                <use fill="black" fill-opacity="1" filter="url(#filter-14)" xlink:href="#path-13"></use>
                <use fill="#FFF8EE" fill-rule="evenodd" xlink:href="#path-13"></use>
            </g>
            <g id="Shape">
                <use fill="black" fill-opacity="1" filter="url(#filter-16)" xlink:href="#path-15"></use>
                <use fill="#FFF8EE" fill-rule="evenodd" xlink:href="#path-15"></use>
            </g>
            <g id="Shape">
                <use fill="black" fill-opacity="1" filter="url(#filter-18)" xlink:href="#path-17"></use>
                <use fill="#FFF8EE" fill-rule="evenodd" xlink:href="#path-17"></use>
            </g>
            <g id="Shape">
                <use fill="black" fill-opacity="1" filter="url(#filter-20)" xlink:href="#path-19"></use>
                <use fill="#FFF8EE" fill-rule="evenodd" xlink:href="#path-19"></use>
            </g>
            <g id="Shape">
                <use fill="black" fill-opacity="1" filter="url(#filter-22)" xlink:href="#path-21"></use>
                <use fill="#FFF8EE" fill-rule="evenodd" xlink:href="#path-21"></use>
            </g>
            <g id="Shape">
                <use fill="black" fill-opacity="1" filter="url(#filter-24)" xlink:href="#path-23"></use>
                <use fill="#FFF8EE" fill-rule="evenodd" xlink:href="#path-23"></use>
            </g>
            <g id="Shape">
                <use fill="black" fill-opacity="1" filter="url(#filter-26)" xlink:href="#path-25"></use>
                <use fill="#FFF8EE" fill-rule="evenodd" xlink:href="#path-25"></use>
            </g>
            <g id="Shape">
                <use fill="black" fill-opacity="1" filter="url(#filter-28)" xlink:href="#path-27"></use>
                <use fill="#FFF8EE" fill-rule="evenodd" xlink:href="#path-27"></use>
            </g>
            <g id="Shape">
                <use fill="black" fill-opacity="1" filter="url(#filter-30)" xlink:href="#path-29"></use>
                <use fill="#FFF8EE" fill-rule="evenodd" xlink:href="#path-29"></use>
            </g>
            <g id="Shape">
                <use fill="black" fill-opacity="1" filter="url(#filter-32)" xlink:href="#path-31"></use>
                <use fill="#FFF8EE" fill-rule="evenodd" xlink:href="#path-31"></use>
            </g>
            <g id="Shape">
                <use fill="black" fill-opacity="1" filter="url(#filter-34)" xlink:href="#path-33"></use>
                <use fill="#FFF8EE" fill-rule="evenodd" xlink:href="#path-33"></use>
            </g>
            <g id="Shape">
                <use fill="black" fill-opacity="1" filter="url(#filter-36)" xlink:href="#path-35"></use>
                <use fill="#FFF8EE" fill-rule="evenodd" xlink:href="#path-35"></use>
            </g>
            <g id="Shape">
                <use fill="black" fill-opacity="1" filter="url(#filter-38)" xlink:href="#path-37"></use>
                <use fill="#FFF8EE" fill-rule="evenodd" xlink:href="#path-37"></use>
            </g>
            <g id="Shape">
                <use fill="black" fill-opacity="1" filter="url(#filter-40)" xlink:href="#path-39"></use>
                <use fill="#FFF8EE" fill-rule="evenodd" xlink:href="#path-39"></use>
            </g>
            <g id="Shape">
                <use fill="black" fill-opacity="1" filter="url(#filter-42)" xlink:href="#path-41"></use>
                <use fill="#FFF8EE" fill-rule="evenodd" xlink:href="#path-41"></use>
            </g>
        </g>
    </g>
</svg>