
<svg width="127px" height="95px" viewBox="0 0 127 95" version="1.1" xmlns="http://www.w3.org/2000/svg" xmlns:xlink="http://www.w3.org/1999/xlink">
    <g id="Page-1" stroke="none" stroke-width="1" fill="none" fill-rule="evenodd">
        <path d="M18.988417,76.9949495 L0,76.9949495 L0,65 L18.988417,65 L18.988417,56.2933796 L0.474079016,56.0164141 L0.474079016,44.0214646 L18.988417,44.0081569 L18.988417,0 L92.4362934,0 C109.718147,0 127,0 127,19.4318182 L127,36.7045455 C127,56.1363636 109.718147,56.1363636 92.4362934,56.1363636 L40.5907336,56.1363636 L40.5907336,65 L105.397683,65 L105.397683,76.9949495 L40.5907336,76.9949495 L40.5907336,95 L18.988417,95 L18.988417,76.9949495 Z M40.5907336,43.9015152 L96.7567568,43.9015152 C101.07722,43.9015152 105.397683,43.9015152 105.397683,38.8636364 L105.397683,17.2727273 C105.397683,12.2348485 101.07722,12.2348485 96.7567568,12.2348485 L40.5907336,12.2348485 L40.5907336,43.9015152 Z" id="ла-P-Copy-2" fill="#FFEEA2"></path>
    </g>
</svg>