
<svg width="984px" height="337px" viewBox="0 0 984 337" version="1.1" xmlns="http://www.w3.org/2000/svg" xmlns:xlink="http://www.w3.org/1999/xlink">
    <defs>
        <polyline id="path-1" points="2 285.131401 143.388946 164.5 925.274647 164.5"></polyline>
        <filter x="-4.7%" y="-35.6%" width="109.3%" height="171.3%" filterUnits="objectBoundingBox" id="filter-2">
            <feMorphology radius="11.5" operator="dilate" in="SourceAlpha" result="shadowSpreadOuter1"></feMorphology>
            <feOffset dx="0" dy="0" in="shadowSpreadOuter1" result="shadowOffsetOuter1"></feOffset>
            <feMorphology radius="11.5" operator="erode" in="SourceAlpha" result="shadowInner"></feMorphology>
            <feOffset dx="0" dy="0" in="shadowInner" result="shadowInner"></feOffset>
            <feComposite in="shadowOffsetOuter1" in2="shadowInner" operator="out" result="shadowOffsetOuter1"></feComposite>
            <feGaussianBlur stdDeviation="7.5" in="shadowOffsetOuter1" result="shadowBlurOuter1"></feGaussianBlur>
            <feColorMatrix values="0 0 0 0 0   0 0 0 0 0   0 0 0 0 0  0 0 0 0.5 0" type="matrix" in="shadowBlurOuter1"></feColorMatrix>
        </filter>
        <path d="M0,85.0724443 L0,0 L19.3346464,0 L19.3346464,45.114175 L64.4488215,0 L87.6503972,0 L47.6921279,39.9582693 L92.8063029,85.0724443 L69.6047272,85.0724443 L36.09134,51.5590572 L19.3346464,68.3157508 L19.3346464,85.0724443 L0,85.0724443 Z M110.529729,70.2492154 L110.529729,61.2263804 C110.529729,46.4031515 123.419493,46.4031515 136.309257,46.4031515 L167.244692,46.4031515 L167.244692,36.7358282 C167.244692,32.8688989 164.022251,32.8688989 160.79981,32.8688989 L115.685635,32.8688989 L115.685635,23.2015757 L159.510833,23.2015757 C172.400597,23.2015757 185.290362,23.2015757 185.290362,38.0248047 L185.290362,85.0724443 L136.309257,85.0724443 C123.419493,85.0724443 110.529729,85.0724443 110.529729,70.2492154 Z M128.575399,71.5381918 C128.575399,75.4051211 131.79784,75.4051211 135.020281,75.4051211 L167.244692,75.4051211 L167.244692,56.0704747 L135.020281,56.0704747 C131.79784,56.0704747 128.575399,56.0704747 128.575399,59.937404 L128.575399,71.5381918 Z M208.169693,114.074414 L208.169693,23.2015757 L257.150798,23.2015757 C270.040562,23.2015757 282.930326,23.2015757 282.930326,38.0248047 L282.930326,70.2492154 C282.930326,85.0724443 270.040562,85.0724443 257.150798,85.0724443 L226.215363,85.0724443 L226.215363,114.074414 L208.169693,114.074414 Z M226.215363,75.4051211 L258.439774,75.4051211 C261.662215,75.4051211 264.884656,75.4051211 264.884656,71.5381918 L264.884656,36.7358282 C264.884656,32.8688989 261.662215,32.8688989 258.439774,32.8688989 L226.215363,32.8688989 L226.215363,75.4051211 Z M305.809658,70.2492154 L305.809658,30.2909461 C305.809658,8.37834679 324.499816,0 375.414385,0 L375.414385,7.73385858 C350.279345,7.73385858 323.855328,12.2452761 323.855328,23.2015757 L354.790762,23.2015757 C367.680526,23.2015757 380.570291,23.2015757 380.570291,38.0248047 L380.570291,70.2492154 C380.570291,85.0724443 367.680526,85.0724443 354.790762,85.0724443 L331.589186,85.0724443 C318.699422,85.0724443 305.809658,85.0724443 305.809658,70.2492154 Z M323.855328,71.5381918 C323.855328,75.4051211 327.077769,75.4051211 330.30021,75.4051211 L356.079739,75.4051211 C359.30218,75.4051211 362.524621,75.4051211 362.524621,71.5381918 L362.524621,36.7358282 C362.524621,32.8688989 359.30218,32.8688989 356.079739,32.8688989 L330.30021,32.8688989 C327.077769,32.8688989 323.855328,32.8688989 323.855328,36.7358282 L323.855328,71.5381918 Z M403.449622,70.2492154 L403.449622,38.0248047 C403.449622,23.2015757 416.339387,23.2015757 429.229151,23.2015757 L452.430727,23.2015757 C465.320491,23.2015757 478.210255,23.2015757 478.210255,38.0248047 L478.210255,70.2492154 C478.210255,85.0724443 465.320491,85.0724443 452.430727,85.0724443 L429.229151,85.0724443 C416.339387,85.0724443 403.449622,85.0724443 403.449622,70.2492154 Z M421.495292,71.5381918 C421.495292,75.4051211 424.717733,75.4051211 427.940175,75.4051211 L453.719703,75.4051211 C456.942144,75.4051211 460.164585,75.4051211 460.164585,71.5381918 L460.164585,36.7358282 C460.164585,32.8688989 456.942144,32.8688989 453.719703,32.8688989 L427.940175,32.8688989 C424.717733,32.8688989 421.495292,32.8688989 421.495292,36.7358282 L421.495292,71.5381918 Z M501.089587,85.0724443 L501.089587,23.2015757 L519.135257,23.2015757 L519.135257,46.4031515 L557.80455,46.4031515 L557.80455,23.2015757 L575.85022,23.2015757 L575.85022,85.0724443 L557.80455,85.0724443 L557.80455,56.0704747 L519.135257,56.0704747 L519.135257,85.0724443 L501.089587,85.0724443 Z M598.729551,70.2492154 L598.729551,61.2263804 C598.729551,46.4031515 611.619316,46.4031515 624.50908,46.4031515 L655.444514,46.4031515 L655.444514,36.7358282 C655.444514,32.8688989 652.222073,32.8688989 648.999632,32.8688989 L603.885457,32.8688989 L603.885457,23.2015757 L647.710656,23.2015757 C660.60042,23.2015757 673.490184,23.2015757 673.490184,38.0248047 L673.490184,85.0724443 L624.50908,85.0724443 C611.619316,85.0724443 598.729551,85.0724443 598.729551,70.2492154 Z M616.775221,71.5381918 C616.775221,75.4051211 619.997663,75.4051211 623.220104,75.4051211 L655.444514,75.4051211 L655.444514,56.0704747 L623.220104,56.0704747 C619.997663,56.0704747 616.775221,56.0704747 616.775221,59.937404 L616.775221,71.5381918 Z M696.369516,114.074414 L696.369516,23.2015757 L745.35062,23.2015757 C758.240385,23.2015757 771.130149,23.2015757 771.130149,38.0248047 L771.130149,70.2492154 C771.130149,85.0724443 758.240385,85.0724443 745.35062,85.0724443 L714.415186,85.0724443 L714.415186,114.074414 L696.369516,114.074414 Z M714.415186,75.4051211 L746.639597,75.4051211 C749.862038,75.4051211 753.084479,75.4051211 753.084479,71.5381918 L753.084479,36.7358282 C753.084479,32.8688989 749.862038,32.8688989 746.639597,32.8688989 L714.415186,32.8688989 L714.415186,75.4051211 Z M794.00948,70.2492154 L794.00948,61.2263804 C794.00948,46.4031515 806.899245,46.4031515 819.789009,46.4031515 L850.724443,46.4031515 L850.724443,36.7358282 C850.724443,32.8688989 847.502002,32.8688989 844.279561,32.8688989 L799.165386,32.8688989 L799.165386,23.2015757 L842.990585,23.2015757 C855.880349,23.2015757 868.770113,23.2015757 868.770113,38.0248047 L868.770113,85.0724443 L819.789009,85.0724443 C806.899245,85.0724443 794.00948,85.0724443 794.00948,70.2492154 Z M812.055151,71.5381918 C812.055151,75.4051211 815.277592,75.4051211 818.500033,75.4051211 L850.724443,75.4051211 L850.724443,56.0704747 L818.500033,56.0704747 C815.277592,56.0704747 812.055151,56.0704747 812.055151,59.937404 L812.055151,71.5381918 Z" id="path-3"></path>
        <filter x="-3.7%" y="-26.7%" width="107.5%" height="157.0%" filterUnits="objectBoundingBox" id="filter-4">
            <feMorphology radius="4" operator="dilate" in="SourceAlpha" result="shadowSpreadOuter1"></feMorphology>
            <feOffset dx="0" dy="2" in="shadowSpreadOuter1" result="shadowOffsetOuter1"></feOffset>
            <feGaussianBlur stdDeviation="6.5" in="shadowOffsetOuter1" result="shadowBlurOuter1"></feGaussianBlur>
            <feColorMatrix values="0 0 0 0 0   0 0 0 0 0   0 0 0 0 0  0 0 0 0.585541214 0" type="matrix" in="shadowBlurOuter1"></feColorMatrix>
        </filter>
    </defs>
    <g id="Page-1" stroke="none" stroke-width="1" fill="none" fill-rule="evenodd">
        <g id="Group-18" transform="translate(25.000000, 19.000000)">
            <g id="Line-3-Copy-19" stroke-linecap="square" transform="translate(463.637323, 224.815701) scale(-1, 1) translate(-463.637323, -224.815701) ">
                <use fill="black" fill-opacity="1" filter="url(#filter-2)" xlink:href="#path-1"></use>
                <use stroke="#F58323" stroke-width="14" xlink:href="#path-1"></use>
            </g>
            <circle id="Oval-9-Copy-20" stroke="#F5A623" stroke-width="14" fill="#F5A623" transform="translate(939.000000, 298.000000) scale(-1, 1) translate(-939.000000, -298.000000) " cx="939" cy="298" r="13"></circle>
            <g id="Карбонара-Copy-2">
                <use fill="black" fill-opacity="1" filter="url(#filter-4)" xlink:href="#path-3"></use>
                <use fill="#F5B523" fill-rule="evenodd" xlink:href="#path-3"></use>
            </g>
        </g>
    </g>
</svg>