
<svg width="48px" height="30px" viewBox="0 0 48 30" version="1.1" xmlns="http://www.w3.org/2000/svg" xmlns:xlink="http://www.w3.org/1999/xlink">
    <g id="Page-1" stroke="none" stroke-width="1" fill="none" fill-rule="evenodd">
        <g id="noun_Fish_1655015-Copy-2" transform="translate(24.000000, 15.000000) scale(-1, 1) translate(-24.000000, -15.000000) " fill="#F5A623" fill-rule="nonzero">
            <g id="Group">
                <path d="M34.5,13.5 L34.5,4.5 C34.5,3.67157287 35.1715729,3 36,3 C36.828427,3 37.5,3.67157287 37.5,4.5 L37.5,25.5 C37.5,26.3284271 36.828427,27 36,27 C35.1715729,27 34.5,26.3284271 34.5,25.5 L34.5,21 L28.5,21 C27.6715729,21 27,20.3284271 27,19.5 C27,18.671573 27.6715729,18 28.5,18 L34.5,18 L34.5,16.5 L25.5,16.5 C24.6715729,16.5 24,15.8284271 24,15 C24,14.1715729 24.6715729,13.5 25.5,13.5 L34.5,13.5 Z" id="Shape"></path>
                <path d="M13.0500703,16.8613461 C14.09035,18.2952452 15.2886499,19.7298296 16.6231602,21.0643398 C20.3529846,24.7941642 24.375391,27 28.5,27 C32.6020332,27 36.6185194,24.6678467 40.3469802,20.7200648 C41.6836966,19.3047179 42.8842446,17.7828966 43.9266639,16.2615279 C44.2360357,15.8100123 44.5118586,15.3867785 44.7526369,15 C44.5118586,14.6132215 44.2360357,14.1899877 43.9266639,13.7384722 C42.8842446,12.2171034 41.6836966,10.6952821 40.3469802,9.2799353 C36.6185194,5.33215332 32.6020332,3 28.5,3 C24.419991,3 20.4080919,5.45890593 16.6803619,9.62519229 C15.3413893,11.121691 14.138615,12.731037 13.094107,14.340144 C12.7762439,14.829825 12.4936522,15.2881638 12.2479405,15.7058673 C12.4828478,16.0611645 12.7506798,16.4486729 13.0500703,16.8613461 Z M3,9.83647575 L3,21.6635242 L8.45863777,15.75 L3,9.83647575 Z M2.60220516,26.5174201 C1.67603641,27.5207697 0,26.8654665 0,25.5 L0,6 C0,4.63453351 1.67603641,3.97923037 2.60220516,4.98257985 L10.2320111,13.248203 C10.3427206,13.0718717 10.4579912,12.891252 10.577768,12.706731 C11.7012287,10.9759942 12.9945481,9.24549648 14.444638,7.62480771 C18.6856581,2.88484407 23.392509,1.66533453e-16 28.5,0 C33.5854668,0 38.2877305,2.73034668 42.5280198,7.2200647 C43.9803658,8.75784289 45.2759116,10.4000841 46.4014611,12.0427778 C46.7960673,12.6186897 47.1419484,13.1546908 47.4371493,13.6377469 C47.6174569,13.9327958 47.7428358,14.1484153 47.8112359,14.2715356 C48.0629214,14.7245694 48.0629214,15.2754306 47.8112359,15.7284644 C47.7428358,15.8515846 47.6174569,16.0672041 47.4371493,16.3622532 C47.1419484,16.8453091 46.7960673,17.3813103 46.4014611,17.9572221 C45.2759116,19.5999159 43.9803658,21.2421571 42.5280198,22.7799353 C39.9764026,25.4816475 37.2575002,27.5462743 34.3884768,28.7622391 C32.4897436,29.5669704 30.5252595,30 28.5,30 C23.4371089,30 18.7407654,27.4245858 14.5018398,23.1856602 C13.0472875,21.731108 11.7494938,20.1774111 10.6218047,18.6230289 C10.5114547,18.4709249 10.4048998,18.3217523 10.3021822,18.1757784 L2.60220516,26.5174201 Z" id="Shape"></path>
            </g>
        </g>
    </g>
</svg>