
<svg width="6191px" height="3052px" viewBox="0 0 6191 3052" version="1.1" xmlns="http://www.w3.org/2000/svg" xmlns:xlink="http://www.w3.org/1999/xlink">
    <!-- Generator: Sketch 50.2 (55047) - http://www.bohemiancoding.com/sketch -->
    <desc>Created with Sketch.</desc>
    <defs>
        <path d="M435,552.850208 L476.925104,469 L501.0638,469 L542.988904,552.850208 L523.932039,552.850208 L510.592233,526.170596 L467.396671,526.170596 L454.056865,552.850208 L435,552.850208 Z M472.478502,516.006935 L505.510402,516.006935 L488.994452,482.975035 L472.478502,516.006935 Z M559.504854,528.711512 L559.504854,516.006935 L610.323162,516.006935 L610.323162,528.711512 L559.504854,528.711512 Z M628.10957,552.850208 L628.10957,543.321775 C638.273232,540.78086 642.084605,535.699029 642.084605,524.26491 L642.084605,491.868239 L703.066574,491.868239 L703.066574,552.850208 L685.280166,552.850208 L685.280166,501.396671 L659.871012,501.396671 L659.871012,524.26491 C659.871012,549.674064 640.814147,551.57975 628.10957,552.850208 Z M722.12344,552.850208 L746.897365,528.076283 C735.463245,528.076283 724.664355,526.805825 724.664355,513.466019 L724.664355,506.478502 C724.664355,491.868239 737.368932,491.868239 750.073509,491.868239 L798.350902,491.868239 L798.350902,552.850208 L780.564494,552.850208 L780.564494,528.076283 L767.224688,528.076283 L742.450763,552.850208 L722.12344,552.850208 Z M742.450763,514.736477 C742.450763,518.54785 745.626907,518.54785 748.803051,518.54785 L780.564494,518.54785 L780.564494,501.396671 L748.803051,501.396671 C745.626907,501.396671 742.450763,501.396671 742.450763,505.208044 L742.450763,514.736477 Z M877.119279,552.850208 L877.119279,491.868239 L894.905687,491.868239 L894.905687,514.736477 L933.019417,514.736477 L933.019417,491.868239 L950.805825,491.868239 L950.805825,552.850208 L933.019417,552.850208 L933.019417,524.26491 L894.905687,524.26491 L894.905687,552.850208 L877.119279,552.850208 Z M972.403606,538.239945 L972.403606,506.478502 C972.403606,491.868239 985.108183,491.868239 997.81276,491.868239 L1020.681,491.868239 C1033.38558,491.868239 1046.09015,491.868239 1046.09015,506.478502 L1046.09015,538.239945 C1046.09015,552.850208 1033.38558,552.850208 1020.681,552.850208 L997.81276,552.850208 C985.108183,552.850208 972.403606,552.850208 972.403606,538.239945 Z M990.190014,539.510402 C990.190014,543.321775 993.366158,543.321775 996.542302,543.321775 L1021.95146,543.321775 C1025.1276,543.321775 1028.30374,543.321775 1028.30374,539.510402 L1028.30374,505.208044 C1028.30374,501.396671 1025.1276,501.396671 1021.95146,501.396671 L996.542302,501.396671 C993.366158,501.396671 990.190014,501.396671 990.190014,505.208044 L990.190014,539.510402 Z M1067.68793,581.435506 L1067.68793,491.868239 L1115.96533,491.868239 C1128.6699,491.868239 1141.37448,491.868239 1141.37448,506.478502 L1141.37448,538.239945 C1141.37448,552.850208 1128.6699,552.850208 1115.96533,552.850208 L1085.47434,552.850208 L1085.47434,581.435506 L1067.68793,581.435506 Z M1085.47434,543.321775 L1117.23578,543.321775 C1120.41193,543.321775 1123.58807,543.321775 1123.58807,539.510402 L1123.58807,505.208044 C1123.58807,501.396671 1120.41193,501.396671 1117.23578,501.396671 L1085.47434,501.396671 L1085.47434,543.321775 Z M1162.97226,552.850208 L1162.97226,491.868239 L1187.74619,491.868239 L1209.34397,535.0638 L1230.94175,491.868239 L1255.71567,491.868239 L1255.71567,552.850208 L1237.92926,552.850208 L1237.92926,509.654646 L1216.33148,552.850208 L1202.35645,552.850208 L1180.75867,509.654646 L1180.75867,552.850208 L1162.97226,552.850208 Z M1277.31345,538.239945 L1277.31345,529.346741 C1277.31345,514.736477 1290.01803,514.736477 1302.72261,514.736477 L1333.21359,514.736477 L1333.21359,505.208044 C1333.21359,501.396671 1330.03745,501.396671 1326.8613,501.396671 L1282.39528,501.396671 L1282.39528,491.868239 L1325.59085,491.868239 C1338.29542,491.868239 1351,491.868239 1351,506.478502 L1351,552.850208 L1302.72261,552.850208 C1290.01803,552.850208 1277.31345,552.850208 1277.31345,538.239945 Z M1295.09986,539.510402 C1295.09986,543.321775 1298.27601,543.321775 1301.45215,543.321775 L1333.21359,543.321775 L1333.21359,524.26491 L1301.45215,524.26491 C1298.27601,524.26491 1295.09986,524.26491 1295.09986,528.076283 L1295.09986,539.510402 Z" id="path-1"></path>
        <filter x="-5.3%" y="-41.8%" width="110.7%" height="187.2%" filterUnits="objectBoundingBox" id="filter-2">
            <feMorphology radius="4" operator="dilate" in="SourceAlpha" result="shadowSpreadOuter1"></feMorphology>
            <feOffset dx="0" dy="2" in="shadowSpreadOuter1" result="shadowOffsetOuter1"></feOffset>
            <feGaussianBlur stdDeviation="12" in="shadowOffsetOuter1" result="shadowBlurOuter1"></feGaussianBlur>
            <feColorMatrix values="0 0 0 0 0   0 0 0 0 0   0 0 0 0 0  0 0 0 0.585541214 0" type="matrix" in="shadowBlurOuter1"></feColorMatrix>
        </filter>
        <path d="M4753,2697.01599 L4753,2624 L4835.97272,2624 L4835.97272,2697.01599 L4819.37817,2697.01599 L4819.37817,2633.40357 L4769.59454,2633.40357 L4769.59454,2697.01599 L4753,2697.01599 Z M4855.88617,2684.29351 L4855.88617,2676.54939 C4855.88617,2663.8269 4866.9492,2663.8269 4878.01223,2663.8269 L4904.5635,2663.8269 L4904.5635,2655.52963 C4904.5635,2652.21072 4901.79774,2652.21072 4899.03198,2652.21072 L4860.31138,2652.21072 L4860.31138,2643.91345 L4897.92568,2643.91345 C4908.98871,2643.91345 4920.05174,2643.91345 4920.05174,2656.63594 L4920.05174,2697.01599 L4878.01223,2697.01599 C4866.9492,2697.01599 4855.88617,2697.01599 4855.88617,2684.29351 Z M4871.37441,2685.39981 C4871.37441,2688.71872 4874.14017,2688.71872 4876.90593,2688.71872 L4904.5635,2688.71872 L4904.5635,2672.12418 L4876.90593,2672.12418 C4874.14017,2672.12418 4871.37441,2672.12418 4871.37441,2675.44309 L4871.37441,2685.39981 Z M4938.85889,2684.29351 L4938.85889,2656.63594 C4938.85889,2643.91345 4949.92192,2643.91345 4960.98495,2643.91345 L4998.59925,2643.91345 L4998.59925,2652.21072 L4959.87865,2652.21072 C4957.11289,2652.21072 4954.34713,2652.21072 4954.34713,2655.52963 L4954.34713,2685.39981 C4954.34713,2688.71872 4957.11289,2688.71872 4959.87865,2688.71872 L4998.59925,2688.71872 L4998.59925,2697.01599 L4960.98495,2697.01599 C4949.92192,2697.01599 4938.85889,2697.01599 4938.85889,2684.29351 Z M5017.4064,2652.21072 L5017.4064,2643.91345 L5081.57197,2643.91345 L5081.57197,2652.21072 L5057.2333,2652.21072 L5057.2333,2697.01599 L5041.74506,2697.01599 L5041.74506,2652.21072 L5017.4064,2652.21072 Z M5100.37912,2684.29351 L5100.37912,2676.54939 C5100.37912,2663.8269 5111.44214,2663.8269 5122.50517,2663.8269 L5149.05644,2663.8269 L5149.05644,2655.52963 C5149.05644,2652.21072 5146.29069,2652.21072 5143.52493,2652.21072 L5104.80433,2652.21072 L5104.80433,2643.91345 L5142.41863,2643.91345 C5153.48166,2643.91345 5164.54468,2643.91345 5164.54468,2656.63594 L5164.54468,2697.01599 L5122.50517,2697.01599 C5111.44214,2697.01599 5100.37912,2697.01599 5100.37912,2684.29351 Z M5115.86736,2685.39981 C5115.86736,2688.71872 5118.63311,2688.71872 5121.39887,2688.71872 L5149.05644,2688.71872 L5149.05644,2672.12418 L5121.39887,2672.12418 C5118.63311,2672.12418 5115.86736,2672.12418 5115.86736,2675.44309 L5115.86736,2685.39981 Z M5233.13547,2684.29351 L5233.13547,2656.63594 C5233.13547,2643.91345 5244.19849,2643.91345 5255.26152,2643.91345 L5292.87582,2643.91345 L5292.87582,2652.21072 L5254.15522,2652.21072 C5251.38946,2652.21072 5248.62371,2652.21072 5248.62371,2655.52963 L5248.62371,2685.39981 C5248.62371,2688.71872 5251.38946,2688.71872 5254.15522,2688.71872 L5292.87582,2688.71872 L5292.87582,2697.01599 L5255.26152,2697.01599 C5244.19849,2697.01599 5233.13547,2697.01599 5233.13547,2684.29351 Z M5358.1477,2697.01599 L5358.1477,2688.71872 C5366.99812,2686.50611 5370.31703,2682.0809 5370.31703,2672.12418 L5370.31703,2643.91345 L5423.41957,2643.91345 L5423.41957,2697.01599 L5407.93133,2697.01599 L5407.93133,2652.21072 L5385.80527,2652.21072 L5385.80527,2672.12418 C5385.80527,2694.25024 5369.21072,2695.90969 5358.1477,2697.01599 Z M5442.22672,2684.29351 L5442.22672,2656.63594 C5442.22672,2643.91345 5453.28975,2643.91345 5464.35278,2643.91345 L5484.26623,2643.91345 C5495.32926,2643.91345 5506.39229,2643.91345 5506.39229,2656.63594 L5506.39229,2684.29351 C5506.39229,2697.01599 5495.32926,2697.01599 5484.26623,2697.01599 L5464.35278,2697.01599 C5453.28975,2697.01599 5442.22672,2697.01599 5442.22672,2684.29351 Z M5457.71496,2685.39981 C5457.71496,2688.71872 5460.48071,2688.71872 5463.24647,2688.71872 L5485.37253,2688.71872 C5488.13829,2688.71872 5490.90405,2688.71872 5490.90405,2685.39981 L5490.90405,2655.52963 C5490.90405,2652.21072 5488.13829,2652.21072 5485.37253,2652.21072 L5463.24647,2652.21072 C5460.48071,2652.21072 5457.71496,2652.21072 5457.71496,2655.52963 L5457.71496,2685.39981 Z M5525.19944,2684.29351 L5525.19944,2656.63594 C5525.19944,2643.91345 5536.26246,2643.91345 5547.32549,2643.91345 L5584.93979,2643.91345 L5584.93979,2652.21072 L5546.21919,2652.21072 C5543.45343,2652.21072 5540.68768,2652.21072 5540.68768,2655.52963 L5540.68768,2685.39981 C5540.68768,2688.71872 5543.45343,2688.71872 5546.21919,2688.71872 L5584.93979,2688.71872 L5584.93979,2697.01599 L5547.32549,2697.01599 C5536.26246,2697.01599 5525.19944,2697.01599 5525.19944,2684.29351 Z M5603.74694,2684.29351 L5603.74694,2656.63594 C5603.74694,2643.91345 5614.80997,2643.91345 5625.873,2643.91345 L5645.78645,2643.91345 C5656.84948,2643.91345 5667.91251,2643.91345 5667.91251,2656.63594 L5667.91251,2684.29351 C5667.91251,2697.01599 5656.84948,2697.01599 5645.78645,2697.01599 L5625.873,2697.01599 C5614.80997,2697.01599 5603.74694,2697.01599 5603.74694,2684.29351 Z M5619.23518,2685.39981 C5619.23518,2688.71872 5622.00094,2688.71872 5624.7667,2688.71872 L5646.89276,2688.71872 C5649.65851,2688.71872 5652.42427,2688.71872 5652.42427,2685.39981 L5652.42427,2655.52963 C5652.42427,2652.21072 5649.65851,2652.21072 5646.89276,2652.21072 L5624.7667,2652.21072 C5622.00094,2652.21072 5619.23518,2652.21072 5619.23518,2655.52963 L5619.23518,2685.39981 Z M5686.71966,2684.29351 L5686.71966,2656.63594 C5686.71966,2643.91345 5697.78269,2643.91345 5708.84572,2643.91345 L5746.46002,2643.91345 L5746.46002,2652.21072 L5707.73942,2652.21072 C5704.97366,2652.21072 5702.2079,2652.21072 5702.2079,2655.52963 L5702.2079,2685.39981 C5702.2079,2688.71872 5704.97366,2688.71872 5707.73942,2688.71872 L5746.46002,2688.71872 L5746.46002,2697.01599 L5708.84572,2697.01599 C5697.78269,2697.01599 5686.71966,2697.01599 5686.71966,2684.29351 Z M5765.26717,2684.29351 L5765.26717,2656.63594 C5765.26717,2643.91345 5776.3302,2643.91345 5787.39323,2643.91345 L5807.30668,2643.91345 C5818.36971,2643.91345 5829.43274,2643.91345 5829.43274,2656.63594 L5829.43274,2672.12418 L5780.75541,2672.12418 L5780.75541,2685.39981 C5780.75541,2688.71872 5783.52117,2688.71872 5786.28692,2688.71872 L5827.22013,2688.71872 L5827.22013,2697.01599 L5787.39323,2697.01599 C5776.3302,2697.01599 5765.26717,2697.01599 5765.26717,2684.29351 Z M5780.75541,2663.8269 L5813.9445,2663.8269 L5813.9445,2655.52963 C5813.9445,2652.21072 5811.17874,2652.21072 5808.41298,2652.21072 L5786.28692,2652.21072 C5783.52117,2652.21072 5780.75541,2652.21072 5780.75541,2655.52963 L5780.75541,2663.8269 Z M5848.23989,2697.01599 L5848.23989,2643.91345 L5869.81279,2643.91345 L5888.61994,2681.52775 L5907.42709,2643.91345 L5929,2643.91345 L5929,2697.01599 L5913.51176,2697.01599 L5913.51176,2659.40169 L5894.70461,2697.01599 L5882.53528,2697.01599 L5863.72813,2659.40169 L5863.72813,2697.01599 L5848.23989,2697.01599 Z" id="path-3"></path>
        <filter x="-1.7%" y="-25.3%" width="103.5%" height="156.2%" filterUnits="objectBoundingBox" id="filter-4">
            <feOffset dx="0" dy="2" in="SourceAlpha" result="shadowOffsetOuter1"></feOffset>
            <feGaussianBlur stdDeviation="6.5" in="shadowOffsetOuter1" result="shadowBlurOuter1"></feGaussianBlur>
            <feColorMatrix values="0 0 0 0 0   0 0 0 0 0   0 0 0 0 0  0 0 0 0.585541214 0" type="matrix" in="shadowBlurOuter1"></feColorMatrix>
        </filter>
        <polyline id="path-5" points="4531.44336 2760.5 4634.0386 2575.55002 5926.15021 2575.55002"></polyline>
        <filter x="-2.1%" y="-14.6%" width="104.2%" height="131.4%" filterUnits="objectBoundingBox" id="filter-6">
            <feMorphology radius="10" operator="dilate" in="SourceAlpha" result="shadowSpreadOuter1"></feMorphology>
            <feOffset dx="0" dy="2" in="shadowSpreadOuter1" result="shadowOffsetOuter1"></feOffset>
            <feMorphology radius="10" operator="erode" in="SourceAlpha" result="shadowInner"></feMorphology>
            <feOffset dx="0" dy="2" in="shadowInner" result="shadowInner"></feOffset>
            <feComposite in="shadowOffsetOuter1" in2="shadowInner" operator="out" result="shadowOffsetOuter1"></feComposite>
            <feGaussianBlur stdDeviation="4" in="shadowOffsetOuter1" result="shadowBlurOuter1"></feGaussianBlur>
            <feColorMatrix values="0 0 0 0 0   0 0 0 0 0   0 0 0 0 0  0 0 0 0.5 0" type="matrix" in="shadowBlurOuter1"></feColorMatrix>
        </filter>
        <polyline id="path-7" points="436.246833 864.514611 623.717632 613 1534.37058 613"></polyline>
        <filter x="-5.1%" y="-21.5%" width="110.2%" height="144.5%" filterUnits="objectBoundingBox" id="filter-8">
            <feMorphology radius="11" operator="dilate" in="SourceAlpha" result="shadowSpreadOuter1"></feMorphology>
            <feOffset dx="0" dy="2" in="shadowSpreadOuter1" result="shadowOffsetOuter1"></feOffset>
            <feMorphology radius="11" operator="erode" in="SourceAlpha" result="shadowInner"></feMorphology>
            <feOffset dx="0" dy="2" in="shadowInner" result="shadowInner"></feOffset>
            <feComposite in="shadowOffsetOuter1" in2="shadowInner" operator="out" result="shadowOffsetOuter1"></feComposite>
            <feGaussianBlur stdDeviation="12" in="shadowOffsetOuter1" result="shadowBlurOuter1"></feGaussianBlur>
            <feColorMatrix values="0 0 0 0 0   0 0 0 0 0   0 0 0 0 0  0 0 0 0.5 0" type="matrix" in="shadowBlurOuter1"></feColorMatrix>
        </filter>
        <circle id="path-9" cx="1535" cy="869" r="13"></circle>
        <filter x="-215.4%" y="-207.7%" width="530.8%" height="530.8%" filterUnits="objectBoundingBox" id="filter-10">
            <feMorphology radius="11" operator="dilate" in="SourceAlpha" result="shadowSpreadOuter1"></feMorphology>
            <feOffset dx="0" dy="2" in="shadowSpreadOuter1" result="shadowOffsetOuter1"></feOffset>
            <feGaussianBlur stdDeviation="12" in="shadowOffsetOuter1" result="shadowBlurOuter1"></feGaussianBlur>
            <feComposite in="shadowBlurOuter1" in2="SourceAlpha" operator="out" result="shadowBlurOuter1"></feComposite>
            <feColorMatrix values="0 0 0 0 0   0 0 0 0 0   0 0 0 0 0  0 0 0 0.5 0" type="matrix" in="shadowBlurOuter1"></feColorMatrix>
        </filter>
        <path d="M2488,2865 L2527.6,2785 L2550.4,2785 L2590,2865 L2572,2865 L2559.4,2839.54545 L2518.6,2839.54545 L2506,2865 L2488,2865 Z M2524,2829 L2555,2829 L2539.5,2798 L2524,2829 Z M2606,2892 L2606,2807 L2651.86207,2807 C2663.93103,2807 2676,2807 2676,2820.86525 L2676,2851.00709 C2676,2864.87234 2663.93103,2864.87234 2651.86207,2864.87234 L2622.89655,2864.87234 L2622.89655,2892 L2606,2892 Z M2623,2856 L2653,2856 C2656,2856 2659,2856 2659,2852.36364 L2659,2819.63636 C2659,2816 2656,2816 2653,2816 L2623,2816 L2623,2856 Z M2696,2851.10417 L2696,2842.64583 C2696,2828.75 2708.06897,2828.75 2720.13793,2828.75 L2749.10345,2828.75 L2749.10345,2819.6875 C2749.10345,2816.0625 2746.08621,2816.0625 2743.06897,2816.0625 L2700.82759,2816.0625 L2700.82759,2807 L2741.86207,2807 C2753.93103,2807 2766,2807 2766,2820.89583 L2766,2865 L2720.13793,2865 C2708.06897,2865 2696,2865 2696,2851.10417 Z M2713,2852.4 C2713,2856 2716,2856 2719,2856 L2749,2856 L2749,2838 L2719,2838 C2716,2838 2713,2838 2713,2841.6 L2713,2852.4 Z M2787,2851.06061 L2787,2813.48485 C2787,2792.87879 2804.5,2785 2852.17241,2785 L2852.17241,2792.27273 C2828.63793,2792.27273 2803.89655,2796.51515 2803.89655,2806.81818 L2832.86207,2806.81818 C2844.93103,2806.81818 2857,2806.81818 2857,2820.75758 L2857,2851.06061 C2857,2865 2844.93103,2865 2832.86207,2865 L2811.13793,2865 C2799.06897,2865 2787,2865 2787,2851.06061 Z M2804,2852.36364 C2804,2856 2807,2856 2810,2856 L2834,2856 C2837,2856 2840,2856 2840,2852.36364 L2840,2819.63636 C2840,2816 2837,2816 2834,2816 L2810,2816 C2807,2816 2804,2816 2804,2819.63636 L2804,2852.36364 Z M2877,2865 L2877,2807 L2893.85185,2807 L2893.85185,2828.75 L2917.92593,2828.75 C2929.96296,2828.75 2942,2828.75 2942,2842.64583 L2942,2851.10417 C2942,2865 2929.96296,2865 2917.92593,2865 L2877,2865 Z M2894,2856 L2919.03846,2856 C2922.01923,2856 2925,2856 2925,2852.4 L2925,2841.6 C2925,2838 2922.01923,2838 2919.03846,2838 L2894,2838 L2894,2856 Z M2960,2865 L2983.4,2841.4375 C2972.6,2841.4375 2962.4,2840.22917 2962.4,2827.54167 L2962.4,2820.89583 C2962.4,2807 2974.4,2807 2986.4,2807 L3032,2807 L3032,2865 L3015.2,2865 L3015.2,2841.4375 L3002.6,2841.4375 L2979.2,2865 L2960,2865 Z M2979,2828.44444 C2979,2832 2982,2832 2985,2832 L3015,2832 L3015,2816 L2985,2816 C2982,2816 2979,2816 2979,2819.55556 L2979,2828.44444 Z M3053,2816.0625 L3053,2807 L3123,2807 L3123,2816.0625 L3096.44828,2816.0625 L3096.44828,2865 L3079.55172,2865 L3079.55172,2816.0625 L3053,2816.0625 Z M3143,2851.10417 L3143,2842.64583 C3143,2828.75 3155.06897,2828.75 3167.13793,2828.75 L3196.10345,2828.75 L3196.10345,2819.6875 C3196.10345,2816.0625 3193.08621,2816.0625 3190.06897,2816.0625 L3147.82759,2816.0625 L3147.82759,2807 L3188.86207,2807 C3200.93103,2807 3213,2807 3213,2820.89583 L3213,2865 L3167.13793,2865 C3155.06897,2865 3143,2865 3143,2851.10417 Z M3160,2852.4 C3160,2856 3163,2856 3166,2856 L3196,2856 L3196,2838 L3166,2838 C3163,2838 3160,2838 3160,2841.6 L3160,2852.4 Z" id="path-11"></path>
        <filter x="-2.8%" y="-17.3%" width="105.7%" height="138.3%" filterUnits="objectBoundingBox" id="filter-12">
            <feOffset dx="0" dy="2" in="SourceAlpha" result="shadowOffsetOuter1"></feOffset>
            <feGaussianBlur stdDeviation="6.5" in="shadowOffsetOuter1" result="shadowBlurOuter1"></feGaussianBlur>
            <feColorMatrix values="0 0 0 0 0   0 0 0 0 0   0 0 0 0 0  0 0 0 0.585541214 0" type="matrix" in="shadowBlurOuter1"></feColorMatrix>
        </filter>
        <polyline id="path-13" points="2 234.875793 95.7796899 130 774.24196 130"></polyline>
        <filter x="-7.1%" y="-52.4%" width="114.2%" height="204.9%" filterUnits="objectBoundingBox" id="filter-14">
            <feMorphology radius="11" operator="dilate" in="SourceAlpha" result="shadowSpreadOuter1"></feMorphology>
            <feOffset dx="0" dy="0" in="shadowSpreadOuter1" result="shadowOffsetOuter1"></feOffset>
            <feMorphology radius="11" operator="erode" in="SourceAlpha" result="shadowInner"></feMorphology>
            <feOffset dx="0" dy="0" in="shadowInner" result="shadowInner"></feOffset>
            <feComposite in="shadowOffsetOuter1" in2="shadowInner" operator="out" result="shadowOffsetOuter1"></feComposite>
            <feGaussianBlur stdDeviation="12" in="shadowOffsetOuter1" result="shadowBlurOuter1"></feGaussianBlur>
            <feColorMatrix values="0 0 0 0 0   0 0 0 0 0   0 0 0 0 0  0 0 0 0.5 0" type="matrix" in="shadowBlurOuter1"></feColorMatrix>
        </filter>
        <path d="M0,67.1186441 L0,0 L15.2893175,0 L15.2893175,35.5932203 L50.9643917,0 L69.3115727,0 L37.7136499,31.5254237 L73.388724,67.1186441 L55.041543,67.1186441 L28.5400593,40.6779661 L15.2893175,53.8983051 L15.2893175,67.1186441 L0,67.1186441 Z M87.4039318,55.4237288 L87.4039318,48.3050847 C87.4039318,36.6101695 97.5968101,36.6101695 107.789688,36.6101695 L132.252596,36.6101695 L132.252596,28.9830508 C132.252596,25.9322034 129.704377,25.9322034 127.156157,25.9322034 L91.4810831,25.9322034 L91.4810831,18.3050847 L126.136869,18.3050847 C136.329748,18.3050847 146.522626,18.3050847 146.522626,30 L146.522626,67.1186441 L107.789688,67.1186441 C97.5968101,67.1186441 87.4039318,67.1186441 87.4039318,55.4237288 Z M101.673961,56.440678 C101.673961,59.4915254 104.222181,59.4915254 106.770401,59.4915254 L132.252596,59.4915254 L132.252596,44.2372881 L106.770401,44.2372881 C104.222181,44.2372881 101.673961,44.2372881 101.673961,47.2881356 L101.673961,56.440678 Z M164.614985,90 L164.614985,18.3050847 L203.347923,18.3050847 C213.540801,18.3050847 223.73368,18.3050847 223.73368,30 L223.73368,55.4237288 C223.73368,67.1186441 213.540801,67.1186441 203.347923,67.1186441 L178.885015,67.1186441 L178.885015,90 L164.614985,90 Z M178.885015,59.4915254 L204.367211,59.4915254 C206.91543,59.4915254 209.46365,59.4915254 209.46365,56.440678 L209.46365,28.9830508 C209.46365,25.9322034 206.91543,25.9322034 204.367211,25.9322034 L178.885015,25.9322034 L178.885015,59.4915254 Z M241.826039,55.4237288 L241.826039,23.8983051 C241.826039,6.61016949 256.605712,0 296.867582,0 L296.867582,6.10169492 C276.991469,6.10169492 256.096068,9.66101695 256.096068,18.3050847 L280.558976,18.3050847 C290.751855,18.3050847 300.944733,18.3050847 300.944733,30 L300.944733,55.4237288 C300.944733,67.1186441 290.751855,67.1186441 280.558976,67.1186441 L262.211795,67.1186441 C252.018917,67.1186441 241.826039,67.1186441 241.826039,55.4237288 Z M256.096068,56.440678 C256.096068,59.4915254 258.644288,59.4915254 261.192507,59.4915254 L281.578264,59.4915254 C284.126484,59.4915254 286.674703,59.4915254 286.674703,56.440678 L286.674703,28.9830508 C286.674703,25.9322034 284.126484,25.9322034 281.578264,25.9322034 L261.192507,25.9322034 C258.644288,25.9322034 256.096068,25.9322034 256.096068,28.9830508 L256.096068,56.440678 Z M319.037092,55.4237288 L319.037092,30 C319.037092,18.3050847 329.22997,18.3050847 339.422849,18.3050847 L357.77003,18.3050847 C367.962908,18.3050847 378.155786,18.3050847 378.155786,30 L378.155786,55.4237288 C378.155786,67.1186441 367.962908,67.1186441 357.77003,67.1186441 L339.422849,67.1186441 C329.22997,67.1186441 319.037092,67.1186441 319.037092,55.4237288 Z M333.307122,56.440678 C333.307122,59.4915254 335.855341,59.4915254 338.403561,59.4915254 L358.789318,59.4915254 C361.337537,59.4915254 363.885757,59.4915254 363.885757,56.440678 L363.885757,28.9830508 C363.885757,25.9322034 361.337537,25.9322034 358.789318,25.9322034 L338.403561,25.9322034 C335.855341,25.9322034 333.307122,25.9322034 333.307122,28.9830508 L333.307122,56.440678 Z M396.248145,67.1186441 L396.248145,18.3050847 L410.518175,18.3050847 L410.518175,36.6101695 L441.09681,36.6101695 L441.09681,18.3050847 L455.36684,18.3050847 L455.36684,67.1186441 L441.09681,67.1186441 L441.09681,44.2372881 L410.518175,44.2372881 L410.518175,67.1186441 L396.248145,67.1186441 Z M473.459199,55.4237288 L473.459199,48.3050847 C473.459199,36.6101695 483.652077,36.6101695 493.844955,36.6101695 L518.307864,36.6101695 L518.307864,28.9830508 C518.307864,25.9322034 515.759644,25.9322034 513.211424,25.9322034 L477.53635,25.9322034 L477.53635,18.3050847 L512.192136,18.3050847 C522.385015,18.3050847 532.577893,18.3050847 532.577893,30 L532.577893,67.1186441 L493.844955,67.1186441 C483.652077,67.1186441 473.459199,67.1186441 473.459199,55.4237288 Z M487.729228,56.440678 C487.729228,59.4915254 490.277448,59.4915254 492.825668,59.4915254 L518.307864,59.4915254 L518.307864,44.2372881 L492.825668,44.2372881 C490.277448,44.2372881 487.729228,44.2372881 487.729228,47.2881356 L487.729228,56.440678 Z M550.670252,90 L550.670252,18.3050847 L589.40319,18.3050847 C599.596068,18.3050847 609.788947,18.3050847 609.788947,30 L609.788947,55.4237288 C609.788947,67.1186441 599.596068,67.1186441 589.40319,67.1186441 L564.940282,67.1186441 L564.940282,90 L550.670252,90 Z M564.940282,59.4915254 L590.422478,59.4915254 C592.970697,59.4915254 595.518917,59.4915254 595.518917,56.440678 L595.518917,28.9830508 C595.518917,25.9322034 592.970697,25.9322034 590.422478,25.9322034 L564.940282,25.9322034 L564.940282,59.4915254 Z M627.881306,55.4237288 L627.881306,48.3050847 C627.881306,36.6101695 638.074184,36.6101695 648.267062,36.6101695 L672.72997,36.6101695 L672.72997,28.9830508 C672.72997,25.9322034 670.181751,25.9322034 667.633531,25.9322034 L631.958457,25.9322034 L631.958457,18.3050847 L666.614243,18.3050847 C676.807122,18.3050847 687,18.3050847 687,30 L687,67.1186441 L648.267062,67.1186441 C638.074184,67.1186441 627.881306,67.1186441 627.881306,55.4237288 Z M642.151335,56.440678 C642.151335,59.4915254 644.699555,59.4915254 647.247774,59.4915254 L672.72997,59.4915254 L672.72997,44.2372881 L647.247774,44.2372881 C644.699555,44.2372881 642.151335,44.2372881 642.151335,47.2881356 L642.151335,56.440678 Z" id="path-15"></path>
        <filter x="-4.7%" y="-33.9%" width="109.5%" height="172.2%" filterUnits="objectBoundingBox" id="filter-16">
            <feMorphology radius="4" operator="dilate" in="SourceAlpha" result="shadowSpreadOuter1"></feMorphology>
            <feOffset dx="0" dy="2" in="shadowSpreadOuter1" result="shadowOffsetOuter1"></feOffset>
            <feGaussianBlur stdDeviation="6.5" in="shadowOffsetOuter1" result="shadowBlurOuter1"></feGaussianBlur>
            <feColorMatrix values="0 0 0 0 0   0 0 0 0 0   0 0 0 0 0  0 0 0 0.585541214 0" type="matrix" in="shadowBlurOuter1"></feColorMatrix>
        </filter>
        <polyline id="path-17" points="23.3440958 131.447348 96.7423304 26.173621 859.427421 26.173621"></polyline>
        <filter x="-4.4%" y="-32.8%" width="108.7%" height="169.3%" filterUnits="objectBoundingBox" id="filter-18">
            <feMorphology radius="10" operator="dilate" in="SourceAlpha" result="shadowSpreadOuter1"></feMorphology>
            <feOffset dx="0" dy="2" in="shadowSpreadOuter1" result="shadowOffsetOuter1"></feOffset>
            <feMorphology radius="10" operator="erode" in="SourceAlpha" result="shadowInner"></feMorphology>
            <feOffset dx="0" dy="2" in="shadowInner" result="shadowInner"></feOffset>
            <feComposite in="shadowOffsetOuter1" in2="shadowInner" operator="out" result="shadowOffsetOuter1"></feComposite>
            <feGaussianBlur stdDeviation="6.5" in="shadowOffsetOuter1" result="shadowBlurOuter1"></feGaussianBlur>
            <feColorMatrix values="0 0 0 0 0   0 0 0 0 0   0 0 0 0 0  0 0 0 0.5 0" type="matrix" in="shadowBlurOuter1"></feColorMatrix>
        </filter>
        <circle id="path-19" cx="13" cy="13" r="13"></circle>
        <filter x="-140.4%" y="-132.7%" width="380.8%" height="380.8%" filterUnits="objectBoundingBox" id="filter-20">
            <feMorphology radius="10" operator="dilate" in="SourceAlpha" result="shadowSpreadOuter1"></feMorphology>
            <feOffset dx="0" dy="2" in="shadowSpreadOuter1" result="shadowOffsetOuter1"></feOffset>
            <feGaussianBlur stdDeviation="6.5" in="shadowOffsetOuter1" result="shadowBlurOuter1"></feGaussianBlur>
            <feComposite in="shadowBlurOuter1" in2="SourceAlpha" operator="out" result="shadowBlurOuter1"></feComposite>
            <feColorMatrix values="0 0 0 0 0   0 0 0 0 0   0 0 0 0 0  0 0 0 0.5 0" type="matrix" in="shadowBlurOuter1"></feColorMatrix>
        </filter>
        <polyline id="path-21" points="16.3440958 129.447348 89.7423304 24.173621 762.849153 24.173621"></polyline>
        <filter x="-4.9%" y="-32.8%" width="109.8%" height="169.3%" filterUnits="objectBoundingBox" id="filter-22">
            <feMorphology radius="10" operator="dilate" in="SourceAlpha" result="shadowSpreadOuter1"></feMorphology>
            <feOffset dx="0" dy="2" in="shadowSpreadOuter1" result="shadowOffsetOuter1"></feOffset>
            <feMorphology radius="10" operator="erode" in="SourceAlpha" result="shadowInner"></feMorphology>
            <feOffset dx="0" dy="2" in="shadowInner" result="shadowInner"></feOffset>
            <feComposite in="shadowOffsetOuter1" in2="shadowInner" operator="out" result="shadowOffsetOuter1"></feComposite>
            <feGaussianBlur stdDeviation="6.5" in="shadowOffsetOuter1" result="shadowBlurOuter1"></feGaussianBlur>
            <feColorMatrix values="0 0 0 0 0   0 0 0 0 0   0 0 0 0 0  0 0 0 0.5 0" type="matrix" in="shadowBlurOuter1"></feColorMatrix>
        </filter>
        <circle id="path-23" cx="13" cy="13" r="13"></circle>
        <filter x="-140.4%" y="-132.7%" width="380.8%" height="380.8%" filterUnits="objectBoundingBox" id="filter-24">
            <feMorphology radius="10" operator="dilate" in="SourceAlpha" result="shadowSpreadOuter1"></feMorphology>
            <feOffset dx="0" dy="2" in="shadowSpreadOuter1" result="shadowOffsetOuter1"></feOffset>
            <feGaussianBlur stdDeviation="6.5" in="shadowOffsetOuter1" result="shadowBlurOuter1"></feGaussianBlur>
            <feComposite in="shadowBlurOuter1" in2="SourceAlpha" operator="out" result="shadowBlurOuter1"></feComposite>
            <feColorMatrix values="0 0 0 0 0   0 0 0 0 0   0 0 0 0 0  0 0 0 0.5 0" type="matrix" in="shadowBlurOuter1"></feColorMatrix>
        </filter>
        <path d="M2741,684.348351 L2741,609 L2820.91492,609 L2820.91492,618.703954 L2758.12463,618.703954 L2758.12463,684.348351 L2741,684.348351 Z M2836.8979,710.035289 L2836.8979,629.54955 L2880.28028,629.54955 C2891.6967,629.54955 2903.11312,629.54955 2903.11312,642.67843 L2903.11312,671.219472 C2903.11312,684.348351 2891.6967,684.348351 2880.28028,684.348351 L2852.88088,684.348351 L2852.88088,710.035289 L2836.8979,710.035289 Z M2852.88088,675.786038 L2881.42193,675.786038 C2884.27603,675.786038 2887.13013,675.786038 2887.13013,672.361113 L2887.13013,641.536788 C2887.13013,638.111863 2884.27603,638.111863 2881.42193,638.111863 L2852.88088,638.111863 L2852.88088,675.786038 Z M2922.52103,671.219472 L2922.52103,642.67843 C2922.52103,629.54955 2933.93744,629.54955 2945.35386,629.54955 L2965.90341,629.54955 C2977.31983,629.54955 2988.73624,629.54955 2988.73624,642.67843 L2988.73624,658.661413 L2938.50401,658.661413 L2938.50401,672.361113 C2938.50401,675.786038 2941.35811,675.786038 2944.21222,675.786038 L2986.45296,675.786038 L2986.45296,684.348351 L2945.35386,684.348351 C2933.93744,684.348351 2922.52103,684.348351 2922.52103,671.219472 Z M2938.50401,650.0991 L2972.75326,650.0991 L2972.75326,641.536788 C2972.75326,638.111863 2969.89916,638.111863 2967.04505,638.111863 L2944.21222,638.111863 C2941.35811,638.111863 2938.50401,638.111863 2938.50401,641.536788 L2938.50401,650.0991 Z M3008.14415,648.957459 L3008.14415,629.54955 L3024.12714,629.54955 L3024.12714,650.0991 C3024.12714,653.524025 3026.98124,653.524025 3029.83534,653.524025 L3058.37639,653.524025 L3058.37639,629.54955 L3074.35937,629.54955 L3074.35937,684.348351 L3058.37639,684.348351 L3058.37639,662.086338 L3030.97699,662.086338 C3019.56057,662.086338 3008.14415,662.086338 3008.14415,648.957459 Z M3093.76728,684.348351 L3093.76728,629.54955 L3109.75026,629.54955 L3109.75026,650.0991 L3143.99951,650.0991 L3143.99951,629.54955 L3159.9825,629.54955 L3159.9825,684.348351 L3143.99951,684.348351 L3143.99951,658.661413 L3109.75026,658.661413 L3109.75026,684.348351 L3093.76728,684.348351 Z M3179.3904,671.219472 L3179.3904,642.67843 C3179.3904,629.54955 3190.80682,629.54955 3202.22324,629.54955 L3222.77279,629.54955 C3234.18921,629.54955 3245.60562,629.54955 3245.60562,642.67843 L3245.60562,658.661413 L3195.37339,658.661413 L3195.37339,672.361113 C3195.37339,675.786038 3198.22749,675.786038 3201.0816,675.786038 L3243.32234,675.786038 L3243.32234,684.348351 L3202.22324,684.348351 C3190.80682,684.348351 3179.3904,684.348351 3179.3904,671.219472 Z M3195.37339,650.0991 L3229.62264,650.0991 L3229.62264,641.536788 C3229.62264,638.111863 3226.76853,638.111863 3223.91443,638.111863 L3201.0816,638.111863 C3198.22749,638.111863 3195.37339,638.111863 3195.37339,641.536788 L3195.37339,650.0991 Z M3265.01353,684.348351 L3265.01353,629.54955 L3307.25427,629.54955 C3318.67069,629.54955 3330.08711,629.54955 3330.08711,640.965967 L3330.08711,643.820071 C3330.08711,650.0991 3327.233,652.953205 3322.66644,654.094846 C3327.233,655.236488 3331.22875,658.090592 3331.22875,664.369621 L3331.22875,672.931934 C3331.22875,684.348351 3319.81233,684.348351 3308.39591,684.348351 L3265.01353,684.348351 Z M3280.99651,675.786038 L3309.53756,675.786038 C3312.39166,675.786038 3315.24576,675.786038 3315.24576,672.931934 L3315.24576,661.515517 C3315.24576,658.661413 3312.39166,658.661413 3309.53756,658.661413 L3280.99651,658.661413 L3280.99651,675.786038 Z M3280.99651,650.0991 L3308.39591,650.0991 C3311.25002,650.0991 3314.10412,650.0991 3314.10412,647.244996 L3314.10412,640.965967 C3314.10412,638.111863 3311.25002,638.111863 3308.39591,638.111863 L3280.99651,638.111863 L3280.99651,650.0991 Z M3350.63666,671.219472 L3350.63666,663.22798 C3350.63666,650.0991 3362.05307,650.0991 3373.46949,650.0991 L3400.86889,650.0991 L3400.86889,641.536788 C3400.86889,638.111863 3398.01479,638.111863 3395.16068,638.111863 L3355.20322,638.111863 L3355.20322,629.54955 L3394.01904,629.54955 C3405.43546,629.54955 3416.85187,629.54955 3416.85187,642.67843 L3416.85187,684.348351 L3373.46949,684.348351 C3362.05307,684.348351 3350.63666,684.348351 3350.63666,671.219472 Z M3366.61964,672.361113 C3366.61964,675.786038 3369.47374,675.786038 3372.32785,675.786038 L3400.86889,675.786038 L3400.86889,658.661413 L3372.32785,658.661413 C3369.47374,658.661413 3366.61964,658.661413 3366.61964,662.086338 L3366.61964,672.361113 Z M3433.9765,684.348351 L3456.23851,662.086338 C3445.96374,662.086338 3436.25978,660.944696 3436.25978,648.957459 L3436.25978,642.67843 C3436.25978,629.54955 3447.6762,629.54955 3459.09262,629.54955 L3502.475,629.54955 L3502.475,684.348351 L3486.49202,684.348351 L3486.49202,662.086338 L3474.50478,662.086338 L3452.24277,684.348351 L3433.9765,684.348351 Z M3452.24277,650.0991 C3452.24277,653.524025 3455.09687,653.524025 3457.95097,653.524025 L3486.49202,653.524025 L3486.49202,638.111863 L3457.95097,638.111863 C3455.09687,638.111863 3452.24277,638.111863 3452.24277,641.536788 L3452.24277,650.0991 Z" id="path-25"></path>
        <filter x="-6.3%" y="-47.5%" width="112.6%" height="195.0%" filterUnits="objectBoundingBox" id="filter-26">
            <feMorphology radius="4" operator="dilate" in="SourceAlpha" result="shadowSpreadOuter1"></feMorphology>
            <feOffset dx="0" dy="0" in="shadowSpreadOuter1" result="shadowOffsetOuter1"></feOffset>
            <feGaussianBlur stdDeviation="12" in="shadowOffsetOuter1" result="shadowBlurOuter1"></feGaussianBlur>
            <feColorMatrix values="0 0 0 0 0   0 0 0 0 0   0 0 0 0 0  0 0 0 0.5 0" type="matrix" in="shadowBlurOuter1"></feColorMatrix>
        </filter>
        <path d="M5026,246.101695 L5026,176 L5079.10734,176 C5091.85311,176 5104.59887,176 5104.59887,190.338983 L5104.59887,196.180791 C5104.59887,202.553672 5100.35028,205.740113 5096.10169,206.80226 C5100.35028,207.864407 5105.66102,209.988701 5105.66102,217.423729 L5105.66102,231.762712 C5105.66102,246.101695 5092.91525,246.101695 5080.16949,246.101695 L5026,246.101695 Z M5041.9322,237.073446 L5083.35593,237.073446 C5086.54237,237.073446 5089.72881,237.073446 5089.72881,233.355932 L5089.72881,215.299435 C5089.72881,211.581921 5086.54237,211.581921 5083.35593,211.581921 L5041.9322,211.581921 L5041.9322,237.073446 Z M5041.9322,202.553672 L5082.29379,202.553672 C5085.48023,202.553672 5088.66667,202.553672 5088.66667,198.836158 L5088.66667,188.745763 C5088.66667,185.028249 5085.48023,185.028249 5082.29379,185.028249 L5041.9322,185.028249 L5041.9322,202.553672 Z M5124.77966,233.887006 L5124.77966,207.333333 C5124.77966,195.118644 5135.40113,195.118644 5146.0226,195.118644 L5165.14124,195.118644 C5175.76271,195.118644 5186.38418,195.118644 5186.38418,207.333333 L5186.38418,222.20339 L5139.64972,222.20339 L5139.64972,234.949153 C5139.64972,238.135593 5142.30508,238.135593 5144.96045,238.135593 L5184.25989,238.135593 L5184.25989,246.101695 L5146.0226,246.101695 C5135.40113,246.101695 5124.77966,246.101695 5124.77966,233.887006 Z M5139.64972,214.237288 L5171.51412,214.237288 L5171.51412,206.271186 C5171.51412,203.084746 5168.85876,203.084746 5166.20339,203.084746 L5144.96045,203.084746 C5142.30508,203.084746 5139.64972,203.084746 5139.64972,206.271186 L5139.64972,214.237288 Z M5204.44068,203.084746 L5204.44068,195.118644 L5266.0452,195.118644 L5266.0452,203.084746 L5242.67797,203.084746 L5242.67797,246.101695 L5227.80791,246.101695 L5227.80791,203.084746 L5204.44068,203.084746 Z M5284.10169,213.175141 L5284.10169,195.118644 L5298.97175,195.118644 L5298.97175,214.237288 C5298.97175,217.423729 5301.62712,217.423729 5304.28249,217.423729 L5330.83616,217.423729 L5330.83616,195.118644 L5345.70621,195.118644 L5345.70621,246.101695 L5330.83616,246.101695 L5330.83616,225.389831 L5305.34463,225.389831 C5294.72316,225.389831 5284.10169,225.389831 5284.10169,213.175141 Z M5363.76271,246.101695 L5363.76271,195.118644 L5378.63277,195.118644 L5378.63277,230.169492 L5409.43503,195.118644 L5425.36723,195.118644 L5425.36723,246.101695 L5410.49718,246.101695 L5410.49718,211.050847 L5379.69492,246.101695 L5363.76271,246.101695 Z M5443.42373,246.101695 L5443.42373,195.118644 L5458.29379,195.118644 L5458.29379,214.237288 L5490.15819,214.237288 L5490.15819,195.118644 L5505.02825,195.118644 L5505.02825,246.101695 L5490.15819,246.101695 L5490.15819,222.20339 L5458.29379,222.20339 L5458.29379,246.101695 L5443.42373,246.101695 Z M5523.08475,233.887006 L5523.08475,226.451977 C5523.08475,214.237288 5533.70621,214.237288 5544.32768,214.237288 L5569.81921,214.237288 L5569.81921,206.271186 C5569.81921,203.084746 5567.16384,203.084746 5564.50847,203.084746 L5527.33333,203.084746 L5527.33333,195.118644 L5563.44633,195.118644 C5574.0678,195.118644 5584.68927,195.118644 5584.68927,207.333333 L5584.68927,246.101695 L5544.32768,246.101695 C5533.70621,246.101695 5523.08475,246.101695 5523.08475,233.887006 Z M5537.9548,234.949153 C5537.9548,238.135593 5540.61017,238.135593 5543.26554,238.135593 L5569.81921,238.135593 L5569.81921,222.20339 L5543.26554,222.20339 C5540.61017,222.20339 5537.9548,222.20339 5537.9548,225.389831 L5537.9548,234.949153 Z M5650.54237,246.101695 L5650.54237,195.118644 L5665.41243,195.118644 L5665.41243,230.169492 L5696.21469,195.118644 L5712.14689,195.118644 L5712.14689,246.101695 L5697.27684,246.101695 L5697.27684,211.050847 L5666.47458,246.101695 L5650.54237,246.101695 Z M5778,246.101695 L5778,195.118644 L5835.35593,195.118644 L5835.35593,203.084746 L5792.87006,203.084746 L5792.87006,246.101695 L5778,246.101695 Z M5853.41243,270 L5853.41243,195.118644 L5893.77401,195.118644 C5904.39548,195.118644 5915.01695,195.118644 5915.01695,207.333333 L5915.01695,233.887006 C5915.01695,246.101695 5904.39548,246.101695 5893.77401,246.101695 L5868.28249,246.101695 L5868.28249,270 L5853.41243,270 Z M5868.28249,238.135593 L5894.83616,238.135593 C5897.49153,238.135593 5900.14689,238.135593 5900.14689,234.949153 L5900.14689,206.271186 C5900.14689,203.084746 5897.49153,203.084746 5894.83616,203.084746 L5868.28249,203.084746 L5868.28249,238.135593 Z M5933.07345,246.101695 L5933.07345,195.118644 L5947.9435,195.118644 L5947.9435,230.169492 L5978.74576,195.118644 L5994.67797,195.118644 L5994.67797,246.101695 L5979.80791,246.101695 L5979.80791,211.050847 L5949.00565,246.101695 L5933.07345,246.101695 Z M6012.73446,233.887006 L6012.73446,200.960452 C6012.73446,182.903955 6028.13559,176 6070.0904,176 L6070.0904,182.372881 C6049.37853,182.372881 6027.60452,186.090395 6027.60452,195.118644 L6053.09605,195.118644 C6063.71751,195.118644 6074.33898,195.118644 6074.33898,207.333333 L6074.33898,233.887006 C6074.33898,246.101695 6063.71751,246.101695 6053.09605,246.101695 L6033.9774,246.101695 C6023.35593,246.101695 6012.73446,246.101695 6012.73446,233.887006 Z M6027.60452,234.949153 C6027.60452,238.135593 6030.25989,238.135593 6032.91525,238.135593 L6054.15819,238.135593 C6056.81356,238.135593 6059.46893,238.135593 6059.46893,234.949153 L6059.46893,206.271186 C6059.46893,203.084746 6056.81356,203.084746 6054.15819,203.084746 L6032.91525,203.084746 C6030.25989,203.084746 6027.60452,203.084746 6027.60452,206.271186 L6027.60452,234.949153 Z" id="path-27"></path>
        <filter x="-2.0%" y="-19.7%" width="103.9%" height="143.6%" filterUnits="objectBoundingBox" id="filter-28">
            <feOffset dx="0" dy="2" in="SourceAlpha" result="shadowOffsetOuter1"></feOffset>
            <feGaussianBlur stdDeviation="6.5" in="shadowOffsetOuter1" result="shadowBlurOuter1"></feGaussianBlur>
            <feColorMatrix values="0 0 0 0 0   0 0 0 0 0   0 0 0 0 0  0 0 0 0.585541214 0" type="matrix" in="shadowBlurOuter1"></feColorMatrix>
        </filter>
    </defs>
    <g id="Page-1" stroke="none" stroke-width="1" fill="none" fill-rule="evenodd">
        <g id="Group-26-Copy">
            <g id="Group-27">
                <g id="А-ля-норма-Copy-3">
                    <use fill="black" fill-opacity="1" filter="url(#filter-2)" xlink:href="#path-1"></use>
                    <use fill="#F5A623" fill-rule="evenodd" xlink:href="#path-1"></use>
                </g>
                <g id="Паста-с-лососем-Copy-2">
                    <use fill="black" fill-opacity="1" filter="url(#filter-4)" xlink:href="#path-3"></use>
                    <use fill="#F5A623" fill-rule="evenodd" xlink:href="#path-3"></use>
                </g>
                <g id="Line-3-Copy-16" stroke-linecap="square" transform="translate(5228.796782, 2668.025009) scale(1, -1) translate(-5228.796782, -2668.025009) ">
                    <use fill="black" fill-opacity="1" filter="url(#filter-6)" xlink:href="#path-5"></use>
                    <use stroke="#F58323" stroke-width="14" xlink:href="#path-5"></use>
                </g>
                <circle id="Oval-9-Copy-15" stroke="#F5A623" stroke-width="14" fill="#F5A623" transform="translate(4536.000000, 2578.000000) scale(1, -1) translate(-4536.000000, -2578.000000) " cx="4536" cy="2578" r="13"></circle>
                <g id="Line-3-Copy-21" stroke-linecap="square" transform="translate(985.308708, 738.757305) scale(-1, 1) translate(-985.308708, -738.757305) ">
                    <use fill="black" fill-opacity="1" filter="url(#filter-8)" xlink:href="#path-7"></use>
                    <use stroke="#F58323" stroke-width="14" xlink:href="#path-7"></use>
                </g>
                <g id="Oval-9-Copy-17" transform="translate(1535.000000, 869.000000) scale(1, -1) translate(-1535.000000, -869.000000) ">
                    <use fill="black" fill-opacity="1" filter="url(#filter-10)" xlink:href="#path-9"></use>
                    <use stroke="#F5A623" stroke-width="14" fill="#F5A623" fill-rule="evenodd" xlink:href="#path-9"></use>
                </g>
                <g id="Арабьята-Copy-2">
                    <use fill="black" fill-opacity="1" filter="url(#filter-12)" xlink:href="#path-11"></use>
                    <use fill="#F5B523" fill-rule="evenodd" xlink:href="#path-11"></use>
                </g>
                <g id="Group-18-Copy" transform="translate(204.000000, 1979.000000)">
                    <g id="Line-3-Copy-19" stroke-linecap="square" transform="translate(388.120980, 182.437896) scale(-1, 1) translate(-388.120980, -182.437896) ">
                        <use fill="black" fill-opacity="1" filter="url(#filter-14)" xlink:href="#path-13"></use>
                        <use stroke="#F58323" stroke-width="14" xlink:href="#path-13"></use>
                    </g>
                    <circle id="Oval-9-Copy-20" stroke="#F5A623" stroke-width="14" fill="#F5A623" transform="translate(779.500000, 243.500000) scale(-1, 1) translate(-779.500000, -243.500000) " cx="779.5" cy="243.5" r="10.5"></circle>
                    <g id="Карбонара-Copy-2">
                        <use fill="black" fill-opacity="1" filter="url(#filter-16)" xlink:href="#path-15"></use>
                        <use fill="#F5B523" fill-rule="evenodd" xlink:href="#path-15"></use>
                    </g>
                </g>
                <g id="Group-24" transform="translate(3174.000000, 816.000000) scale(-1, -1) translate(-3174.000000, -816.000000) translate(2744.000000, 750.000000)">
                    <g id="Line-3-Copy-18" stroke-linecap="square" transform="translate(441.385758, 78.810484) scale(1, -1) translate(-441.385758, -78.810484) ">
                        <use fill="black" fill-opacity="1" filter="url(#filter-18)" xlink:href="#path-17"></use>
                        <use stroke="#F58323" stroke-width="14" xlink:href="#path-17"></use>
                    </g>
                    <g id="Oval-9-Copy-19" transform="translate(13.000000, 13.000000) scale(1, -1) translate(-13.000000, -13.000000) ">
                        <use fill="black" fill-opacity="1" filter="url(#filter-20)" xlink:href="#path-19"></use>
                        <use stroke="#F5A623" stroke-width="14" fill="#F5A623" fill-rule="evenodd" xlink:href="#path-19"></use>
                    </g>
                </g>
                <g id="Group-24-Copy" transform="translate(2443.000000, 2609.000000)">
                    <g id="Line-3-Copy-18" stroke-linecap="square" transform="translate(389.596624, 76.810484) scale(1, -1) translate(-389.596624, -76.810484) ">
                        <use fill="black" fill-opacity="1" filter="url(#filter-22)" xlink:href="#path-21"></use>
                        <use stroke="#F58323" stroke-width="14" xlink:href="#path-21"></use>
                    </g>
                    <g id="Oval-9-Copy-19" transform="translate(13.000000, 13.000000) scale(1, -1) translate(-13.000000, -13.000000) ">
                        <use fill="black" fill-opacity="1" filter="url(#filter-24)" xlink:href="#path-23"></use>
                        <use stroke="#F5A623" stroke-width="14" fill="#F5A623" fill-rule="evenodd" xlink:href="#path-23"></use>
                    </g>
                </g>
                <g id="Гречневая">
                    <use fill="black" fill-opacity="1" filter="url(#filter-26)" xlink:href="#path-25"></use>
                    <use fill="#F5A623" fill-rule="evenodd" xlink:href="#path-25"></use>
                </g>
                <g id="Group-25" transform="translate(5132.000000, 316.000000)" stroke-width="14">
                    <polyline id="Line-3-Copy-17" stroke="#F58323" stroke-linecap="square" transform="translate(478.622467, 69.039786) scale(-1, 1) translate(-478.622467, -69.039786) " points="14.1955985 0.560354607 829.231694 0.560354607 943.049336 137.519217"></polyline>
                    <circle id="Oval-9-Copy-18" stroke="#F5A623" fill="#F5A623" transform="translate(13.000000, 143.000000) scale(-1, -1) translate(-13.000000, -143.000000) " cx="13" cy="143" r="13"></circle>
                </g>
                <g id="Ветчина-и-гриб">
                    <use fill="black" fill-opacity="1" filter="url(#filter-28)" xlink:href="#path-27"></use>
                    <use fill="#F5A623" fill-rule="evenodd" xlink:href="#path-27"></use>
                </g>
                <rect id="Rectangle-24" stroke="#000000" stroke-width="9" x="4.5" y="4.5" width="6182" height="3043"></rect>
            </g>
        </g>
    </g>
</svg>