
<svg width="91px" height="32px" viewBox="0 0 91 32" version="1.1" xmlns="http://www.w3.org/2000/svg" xmlns:xlink="http://www.w3.org/1999/xlink">
    <g id="Page-1" stroke="none" stroke-width="1" fill="none" fill-rule="evenodd">
        <path d="M0.05,9.93 L0.05,5.43 C0.05,3.36 1.85,3.36 3.65,3.36 L9.77,3.36 L9.77,4.71 L3.47,4.71 C3.02,4.71 2.57,4.71 2.57,5.25 L2.57,10.11 C2.57,10.65 3.02,10.65 3.47,10.65 L9.77,10.65 L9.77,12 L3.65,12 C1.85,12 0.05,12 0.05,9.93 Z M12.83,9.93 L12.83,5.43 C12.83,3.36 14.63,3.36 16.43,3.36 L19.67,3.36 C21.47,3.36 23.27,3.36 23.27,5.43 L23.27,9.93 C23.27,12 21.47,12 19.67,12 L16.43,12 C14.63,12 12.83,12 12.83,9.93 Z M15.35,10.11 C15.35,10.65 15.8,10.65 16.25,10.65 L19.85,10.65 C20.3,10.65 20.75,10.65 20.75,10.11 L20.75,5.25 C20.75,4.71 20.3,4.71 19.85,4.71 L16.25,4.71 C15.8,4.71 15.35,4.71 15.35,5.25 L15.35,10.11 Z M26.33,9.93 L26.33,4.35 C26.33,1.29 28.94,0.12 36.05,0.12 L36.05,1.2 C32.54,1.2 28.85,1.83 28.85,3.36 L33.17,3.36 C34.97,3.36 36.77,3.36 36.77,5.43 L36.77,9.93 C36.77,12 34.97,12 33.17,12 L29.93,12 C28.13,12 26.33,12 26.33,9.93 Z M28.85,10.11 C28.85,10.65 29.3,10.65 29.75,10.65 L33.35,10.65 C33.8,10.65 34.25,10.65 34.25,10.11 L34.25,5.25 C34.25,4.71 33.8,4.71 33.35,4.71 L29.75,4.71 C29.3,4.71 28.85,4.71 28.85,5.25 L28.85,10.11 Z M39.83,16.05 L39.83,3.36 L46.67,3.36 C48.47,3.36 50.27,3.36 50.27,5.43 L50.27,9.93 C50.27,12 48.47,12 46.67,12 L42.35,12 L42.35,16.05 L39.83,16.05 Z M42.35,10.65 L46.85,10.65 C47.3,10.65 47.75,10.65 47.75,10.11 L47.75,5.25 C47.75,4.71 47.3,4.71 46.85,4.71 L42.35,4.71 L42.35,10.65 Z M53.33,9.93 L53.33,8.67 C53.33,6.6 55.13,6.6 56.93,6.6 L61.25,6.6 L61.25,5.25 C61.25,4.71 60.8,4.71 60.35,4.71 L54.05,4.71 L54.05,3.36 L60.17,3.36 C61.97,3.36 63.77,3.36 63.77,5.43 L63.77,12 L56.93,12 C55.13,12 53.33,12 53.33,9.93 Z M55.85,10.11 C55.85,10.65 56.3,10.65 56.75,10.65 L61.25,10.65 L61.25,7.95 L56.75,7.95 C56.3,7.95 55.85,7.95 55.85,8.49 L55.85,10.11 Z M66.83,4.71 L66.83,3.36 L77.27,3.36 L77.27,4.71 L73.31,4.71 L73.31,12 L70.79,12 L70.79,4.71 L66.83,4.71 Z M80.33,12 L80.33,3.36 L82.85,3.36 L82.85,6.6 L86.45,6.6 C88.25,6.6 90.05,6.6 90.05,8.67 L90.05,9.93 C90.05,12 88.25,12 86.45,12 L80.33,12 Z M82.85,10.65 L86.63,10.65 C87.08,10.65 87.53,10.65 87.53,10.11 L87.53,8.49 C87.53,7.95 87.08,7.95 86.63,7.95 L82.85,7.95 L82.85,10.65 Z M17.42,29.93 L17.42,25.43 C17.42,23.36 19.22,23.36 21.02,23.36 L27.14,23.36 L27.14,24.71 L20.84,24.71 C20.39,24.71 19.94,24.71 19.94,25.25 L19.94,30.11 C19.94,30.65 20.39,30.65 20.84,30.65 L27.14,30.65 L27.14,32 L21.02,32 C19.22,32 17.42,32 17.42,29.93 Z M30.2,32 L30.2,23.36 L36.86,23.36 C38.66,23.36 40.46,23.36 40.46,25.16 L40.46,25.61 C40.46,26.6 40.01,27.05 39.29,27.23 C40.01,27.41 40.64,27.86 40.64,28.85 L40.64,30.2 C40.64,32 38.84,32 37.04,32 L30.2,32 Z M32.72,30.65 L37.22,30.65 C37.67,30.65 38.12,30.65 38.12,30.2 L38.12,28.4 C38.12,27.95 37.67,27.95 37.22,27.95 L32.72,27.95 L32.72,30.65 Z M32.72,26.6 L37.04,26.6 C37.49,26.6 37.94,26.6 37.94,26.15 L37.94,25.16 C37.94,24.71 37.49,24.71 37.04,24.71 L32.72,24.71 L32.72,26.6 Z M43.7,29.93 L43.7,25.43 C43.7,23.36 45.5,23.36 47.3,23.36 L50.54,23.36 C52.34,23.36 54.14,23.36 54.14,25.43 L54.14,29.93 C54.14,32 52.34,32 50.54,32 L47.3,32 C45.5,32 43.7,32 43.7,29.93 Z M46.22,30.11 C46.22,30.65 46.67,30.65 47.12,30.65 L50.72,30.65 C51.17,30.65 51.62,30.65 51.62,30.11 L51.62,25.25 C51.62,24.71 51.17,24.71 50.72,24.71 L47.12,24.71 C46.67,24.71 46.22,24.71 46.22,25.25 L46.22,30.11 Z M57.2,32 L57.2,23.36 L59.72,23.36 L59.72,26.96 L62.24,26.96 L62.24,25.43 C62.24,23.36 64.04,23.36 65.84,23.36 L69.08,23.36 C70.88,23.36 72.68,23.36 72.68,25.43 L72.68,29.93 C72.68,32 70.88,32 69.08,32 L65.84,32 C64.04,32 62.24,32 62.24,29.93 L62.24,28.31 L59.72,28.31 L59.72,32 L57.2,32 Z M64.76,30.11 C64.76,30.65 65.21,30.65 65.66,30.65 L69.26,30.65 C69.71,30.65 70.16,30.65 70.16,30.11 L70.16,25.25 C70.16,24.71 69.71,24.71 69.26,24.71 L65.66,24.71 C65.21,24.71 64.76,24.71 64.76,25.25 L64.76,30.11 Z" id="собрать-свою" fill="#F5A623"></path>
    </g>
</svg>