<svg width="80vw" height="40vw" viewBox="0 0 675 394" version="1.1" xmlns="http://www.w3.org/2000/svg" xmlns:xlink="http://www.w3.org/1999/xlink">
            <g id="Page-1" stroke="none" stroke-width="1" fill="none" fill-rule="evenodd">
                <path d="M335.482964,272.45079 C353.176938,259.07513 368.742496,251.381269 382.179637,249.369207 C396.847544,247.172852 421.610217,244.784795 455.036312,251.976192 C469.131981,255.00878 482.677427,262.22964 503.426627,271.780036 C517.438568,280.780017 534.109688,286 552,286 C601.705627,286 642,245.705627 642,196 C642,146.294373 601.705627,106 552,106 C535.879949,106 519.891938,110.376352 506.805012,117.799027 C506.703311,117.85671 506.601745,117.914584 506.500315,117.972647 L506.55297,117.925084 C505.013263,118.644994 504.204803,119.020579 504.127591,119.051837 C477.049962,130.013812 460.071193,135.737995 449.036312,138.196101 C414.820735,145.817888 390.847544,143.015349 376.179637,140.81172 C356.091767,137.793824 331.247144,122.035741 301.645769,93.5374705 C299.870135,91.7080712 298.048296,89.9238063 296.182117,88.1865404 C295.457487,87.4650378 294.730115,86.736191 294,86 L294.005526,86.1996209 C267.46704,62.4446835 232.420389,48 194,48 C111.157288,48 44,115.157288 44,198 C44,280.842712 111.157288,348 194,348 C235.406879,348 272.895142,331.222412 300.037551,304.094476 L300.047646,304.459134 L335.482964,272.45079 Z M551.250156,319.912138 C527.538478,319.912138 506.142113,311.81755 486.951166,299.081749 C423.952195,257.273367 383.173899,293.594076 371.407148,302.591171 C353.135108,316.562342 349.463742,322.244145 342.965864,328.817233 C340.721247,331.08783 324.535883,346.802399 313.629456,355.446296 C265.206083,393.824277 206.818795,393.824277 189.880352,393.824277 C156.051178,393.824277 127.099347,384.395142 97.63748,367.118812 C4.271933,312.369599 0.924065,223.195198 0.212248,206.357395 C-5.801323,64.1082178 117.397892,0 188.380605,0 C243.743793,3.25739111e-15 294.055015,17.8601458 324.629108,48.1440398 C378.741861,101.743172 378.852006,121.429305 497.39005,84.0095581 C515.921404,78.1596337 533.878938,73.9121384 551.250156,73.9121384 C619.18118,73.9121384 674.250156,128.981114 674.250156,196.912138 C674.250156,264.843163 619.18118,319.912138 551.250156,319.912138 Z" id="Combined-Shape" fill="rgba(0,0,0,1.0)" fill-rule="nonzero"></path>
            </g>
        </svg>