
<svg width="675px" height="394px" viewBox="0 0 675 394" version="1.1" xmlns="http://www.w3.org/2000/svg" xmlns:xlink="http://www.w3.org/1999/xlink">
    <g id="Page-1" stroke="none" stroke-width="1" fill="none" fill-rule="evenodd">
        <path d="M123,319.912138 C146.711678,319.912138 168.108043,311.81755 187.29899,299.081749 C250.297961,257.273367 291.076257,293.594076 302.843008,302.591171 C321.115048,316.562342 324.786414,322.244145 331.284292,328.817233 C333.528909,331.08783 349.714273,346.802399 360.6207,355.446296 C409.044073,393.824277 467.431361,393.824277 484.369804,393.824277 C518.198978,393.824277 547.150809,384.395142 576.612676,367.118812 C669.978223,312.369599 673.326091,223.195198 674.037908,206.357395 C680.051479,64.1082178 556.852264,0 485.869551,0 C430.506363,3.25739111e-15 380.195141,17.8601458 349.621048,48.1440398 C295.508295,101.743172 295.39815,121.429305 176.860106,84.0095581 C158.328752,78.1596337 140.371218,73.9121384 123,73.9121384 C55.0689758,73.9121384 -1.41662895e-08,128.981114 -1.41662895e-08,196.912138 C-1.41662895e-08,264.843163 55.0689758,319.912138 123,319.912138 Z" id="Oval-4-Copy-9" fill="#F5A623" fill-rule="nonzero" transform="translate(337.125078, 196.912138) scale(-1, 1) translate(-337.125078, -196.912138) "></path>
    </g>
</svg>