
<svg width="56px" height="62px" viewBox="0 0 56 62" version="1.1" xmlns="http://www.w3.org/2000/svg" xmlns:xlink="http://www.w3.org/1999/xlink">
    <g id="Page-1" stroke="none" stroke-width="1" fill="none" fill-rule="evenodd">
        <g id="noun_Trash_2836640" fill="#F5A623" fill-rule="nonzero">
            <path d="M42,10 L42,6 C42,2.69 39.31,0 36,0 L20,0 C16.69,0 14,2.69 14,6 L14,10 L0,10 L0,14 L4,14 L4,56 C4,59.31 6.69,62 10,62 L46,62 C49.31,62 52,59.31 52,56 L52,14 L56,14 L56,10 L42,10 Z M37.41,40.59 L34.59,43.41 L28,36.83 L21.41,43.41 L18.59,40.59 L25.17,34 L18.59,27.41 L21.41,24.59 L28,31.17 L34.59,24.59 L37.41,27.41 L30.83,34 L37.41,40.59 Z M38,10 L18,10 L18,6 C18,4.9 18.9,4 20,4 L36,4 C37.1,4 38,4.9 38,6 L38,10 Z" id="Shape"></path>
        </g>
    </g>
</svg>